<?xml version="1.0" encoding="UTF-8" standalone="no"?>
<!-- Generator: Adobe Illustrator 21.1.0, SVG Export Plug-In . SVG Version: 6.00 Build 0)  -->

<svg
   xmlns:dc="http://purl.org/dc/elements/1.1/"
   xmlns:cc="http://creativecommons.org/ns#"
   xmlns:rdf="http://www.w3.org/1999/02/22-rdf-syntax-ns#"
   xmlns:svg="http://www.w3.org/2000/svg"
   xmlns="http://www.w3.org/2000/svg"
   xmlns:sodipodi="http://sodipodi.sourceforge.net/DTD/sodipodi-0.dtd"
   xmlns:inkscape="http://www.inkscape.org/namespaces/inkscape"
   version="1.1"
   id="Capa_1"
   x="0px"
   y="0px"
   viewBox="0 0 297.70001 124.69999"
   xml:space="preserve"
   inkscape:version="0.91 r13725"
   sodipodi:docname="pp-logo.svg"
   width="297.70001"
   height="124.7"><metadata
     id="metadata185"><rdf:RDF><cc:Work
         rdf:about=""><dc:format>image/svg+xml</dc:format><dc:type
           rdf:resource="http://purl.org/dc/dcmitype/StillImage" /><dc:title></dc:title></cc:Work></rdf:RDF></metadata><defs
     id="defs183" /><sodipodi:namedview
     pagecolor="#ffffff"
     bordercolor="#666666"
     borderopacity="1"
     objecttolerance="10"
     gridtolerance="10"
     guidetolerance="10"
     inkscape:pageopacity="0"
     inkscape:pageshadow="2"
     inkscape:window-width="1366"
     inkscape:window-height="747"
     id="namedview181"
     showgrid="false"
     fit-margin-top="0"
     fit-margin-left="0"
     fit-margin-right="0"
     fit-margin-bottom="0"
     inkscape:zoom="1.5857199"
     inkscape:cx="245.85806"
     inkscape:cy="53.44096"
     inkscape:window-x="0"
     inkscape:window-y="21"
     inkscape:window-maximized="1"
     inkscape:current-layer="Capa_1" /><style
     type="text/css"
     id="style3">
	.st0{fill:#F3A195;}
	.st1{fill:#E9DEBE;}
	.st2{fill:#DDEDDF;}
	.st3{fill:#BAD7C1;}
	.st4{fill:#E5415C;}
	.st5{fill:#9E2A54;}
	.st6{fill:#FFFFFF;}
	.st7{fill:#686868;}
	.st8{fill:#868686;stroke:#868686;stroke-width:0.9673;stroke-miterlimit:10;}
	.st9{fill:#4C4846;}
	.st10{fill:#E5415C;stroke:#E5415C;stroke-width:2.2132;stroke-miterlimit:10;}
	.st11{font-family:'NellaSueDemo';}
	.st12{font-size:129.0912px;}
</style><g
     id="g5"
     transform="translate(-148.8,-28.800004)"><g
       id="XMLID_1_"><g
         id="g8"><path
           class="st0"
           d="m 446.5,91.2 c 0,6 -0.8,11.8 -2.4,17.3 -1.6,5.5 -3.9,10.7 -6.8,15.4 l -90.7,-95 37.6,0 c 34.4,0 62.3,27.9 62.3,62.3 z"
           id="path10"
           inkscape:connector-curvature="0"
           style="fill:#f3a195" /><path
           class="st1"
           d="m 346.6,28.9 90.7,95 c -11,17.8 -30.6,29.6 -53.1,29.6 l -37.3,0 -0.3,-124.6 z"
           id="path12"
           inkscape:connector-curvature="0"
           style="fill:#e9debe" /><polygon
           class="st2"
           points="298.7,96.2 242,28.9 346.6,28.9 "
           id="polygon14"
           style="fill:#ddeddf" /><polygon
           class="st3"
           points="346.9,153.5 298.7,96.2 346.6,28.9 "
           id="polygon16"
           style="fill:#bad7c1" /><polygon
           class="st4"
           points="346.9,153.5 298.7,153.5 298.7,96.2 298.7,96.2 "
           id="polygon18"
           style="fill:#e5415c" /><path
           class="st5"
           d="m 298.7,96.2 0,0 0,57.3 -87.6,0 c -34.4,0 -62.3,-27.9 -62.3,-62.3 0,-17.2 7,-32.8 18.3,-44.1 11.3,-11.3 26.9,-18.3 44.1,-18.3 l 30.8,0 56.7,67.4 z"
           id="path20"
           inkscape:connector-curvature="0"
           style="fill:#9e2a54" /></g></g><g
       id="g22"><path
         class="st6"
         d="m 222.5,98 c 0,3.1 -1.1,5.8 -3.3,8 -2.2,2.2 -4.8,3.3 -8,3.3 l -2.2,0 c -1.5,0 -2.2,0.8 -2.2,2.2 l 0,9 c 0,1.3 -0.4,2.3 -1.3,3.2 -0.9,0.9 -1.9,1.3 -3.2,1.3 l -2.3,0 c -1.3,0 -2.3,-0.4 -3.2,-1.3 -0.9,-0.9 -1.3,-1.9 -1.3,-3.2 l 0,-51.7 c 0,-3.1 1.1,-5.8 3.3,-8 2.2,-2.2 4.8,-3.3 8,-3.3 l 4.5,0 c 3.1,0 5.8,1.1 8,3.3 2.2,2.2 3.3,4.8 3.3,8 L 222.5,98 Z m -11.3,-2.3 0,-24.7 c 0,-1.5 -0.8,-2.2 -2.2,-2.2 -1.5,0 -2.2,0.7 -2.2,2.2 l 0,24.7 c 0,1.5 0.8,2.2 2.2,2.2 1.5,0.1 2.2,-0.7 2.2,-2.2 z"
         id="path24"
         inkscape:connector-curvature="0"
         style="fill:#ffffff" /><path
         class="st6"
         d="m 253.9,98 c 0,3.1 -1.1,5.8 -3.3,8 -2.2,2.2 -4.8,3.3 -8,3.3 l -2.2,0 c -1.5,0 -2.2,0.8 -2.2,2.3 l 0,9 c 0,1.3 -0.4,2.3 -1.3,3.2 -0.9,0.9 -1.9,1.3 -3.2,1.3 l -2.2,0 c -1.3,0 -2.3,-0.4 -3.2,-1.3 -0.9,-0.9 -1.3,-1.9 -1.3,-3.2 l 0,-51.7 c 0,-3.1 1.1,-5.8 3.3,-8 2.2,-2.2 4.8,-3.3 8,-3.3 l 4.5,0 c 3.1,0 5.8,1.1 8,3.3 2.2,2.2 3.3,4.8 3.3,8 L 253.9,98 Z m -11.2,-2.3 0,-24.7 c 0,-1.5 -0.8,-2.2 -2.2,-2.2 -1.5,0 -2.3,0.7 -2.3,2.2 l 0,24.7 c 0,1.5 0.8,2.2 2.2,2.2 1.6,0.1 2.3,-0.7 2.3,-2.2 z"
         id="path26"
         inkscape:connector-curvature="0"
         style="fill:#ffffff" /></g></g></svg>