<?xml version="1.0" encoding="UTF-8" standalone="no"?>
<!-- Generator: Adobe Illustrator 21.1.0, SVG Export Plug-In . SVG Version: 6.00 Build 0)  -->

<svg
   xmlns:dc="http://purl.org/dc/elements/1.1/"
   xmlns:cc="http://creativecommons.org/ns#"
   xmlns:rdf="http://www.w3.org/1999/02/22-rdf-syntax-ns#"
   xmlns:svg="http://www.w3.org/2000/svg"
   xmlns="http://www.w3.org/2000/svg"
   xmlns:sodipodi="http://sodipodi.sourceforge.net/DTD/sodipodi-0.dtd"
   xmlns:inkscape="http://www.inkscape.org/namespaces/inkscape"
   version="1.1"
   id="Capa_1"
   x="0px"
   y="0px"
   viewBox="0 0 327.70002 286.1"
   xml:space="preserve"
   inkscape:version="0.91 r13725"
   sodipodi:docname="pp-logo-text.svg"
   width="327.70001"
   height="286.10001"><metadata
     id="metadata185"><rdf:RDF><cc:Work
         rdf:about=""><dc:format>image/svg+xml</dc:format><dc:type
           rdf:resource="http://purl.org/dc/dcmitype/StillImage" /><dc:title></dc:title></cc:Work></rdf:RDF></metadata><defs
     id="defs183" /><sodipodi:namedview
     pagecolor="#ffffff"
     bordercolor="#666666"
     borderopacity="1"
     objecttolerance="10"
     gridtolerance="10"
     guidetolerance="10"
     inkscape:pageopacity="0"
     inkscape:pageshadow="2"
     inkscape:window-width="1366"
     inkscape:window-height="747"
     id="namedview181"
     showgrid="false"
     inkscape:zoom="0.56063664"
     inkscape:cx="59.774835"
     inkscape:cy="16.453481"
     inkscape:window-x="0"
     inkscape:window-y="21"
     inkscape:window-maximized="1"
     inkscape:current-layer="Capa_1"
     fit-margin-top="0"
     fit-margin-left="0"
     fit-margin-right="0"
     fit-margin-bottom="0" /><style
     type="text/css"
     id="style3">
	.st0{fill:#F3A195;}
	.st1{fill:#E9DEBE;}
	.st2{fill:#DDEDDF;}
	.st3{fill:#BAD7C1;}
	.st4{fill:#E5415C;}
	.st5{fill:#9E2A54;}
	.st6{fill:#FFFFFF;}
	.st7{fill:#686868;}
	.st8{fill:#868686;stroke:#868686;stroke-width:0.9673;stroke-miterlimit:10;}
	.st9{fill:#4C4846;}
	.st10{fill:#E5415C;stroke:#E5415C;stroke-width:2.2132;stroke-miterlimit:10;}
	.st11{font-family:'NellaSueDemo';}
	.st12{font-size:129.0912px;}
</style><g
     id="g5"
     transform="translate(-133.8,-28.8)"><g
       id="XMLID_1_"><g
         id="g8"><path
           class="st0"
           d="m 446.5,91.2 c 0,6 -0.8,11.8 -2.4,17.3 -1.6,5.5 -3.9,10.7 -6.8,15.4 l -90.7,-95 37.6,0 c 34.4,0 62.3,27.9 62.3,62.3 z"
           id="path10"
           inkscape:connector-curvature="0"
           style="fill:#f3a195" /><path
           class="st1"
           d="m 346.6,28.9 90.7,95 c -11,17.8 -30.6,29.6 -53.1,29.6 l -37.3,0 -0.3,-124.6 z"
           id="path12"
           inkscape:connector-curvature="0"
           style="fill:#e9debe" /><polygon
           class="st2"
           points="346.6,28.9 298.7,96.2 242,28.9 "
           id="polygon14"
           style="fill:#ddeddf" /><polygon
           class="st3"
           points="346.6,28.9 346.9,153.5 298.7,96.2 "
           id="polygon16"
           style="fill:#bad7c1" /><polygon
           class="st4"
           points="298.7,96.2 298.7,96.2 346.9,153.5 298.7,153.5 "
           id="polygon18"
           style="fill:#e5415c" /><path
           class="st5"
           d="m 298.7,96.2 0,0 0,57.3 -87.6,0 c -34.4,0 -62.3,-27.9 -62.3,-62.3 0,-17.2 7,-32.8 18.3,-44.1 11.3,-11.3 26.9,-18.3 44.1,-18.3 l 30.8,0 56.7,67.4 z"
           id="path20"
           inkscape:connector-curvature="0"
           style="fill:#9e2a54" /></g></g><g
       id="g22"><path
         class="st6"
         d="m 222.5,98 c 0,3.1 -1.1,5.8 -3.3,8 -2.2,2.2 -4.8,3.3 -8,3.3 l -2.2,0 c -1.5,0 -2.2,0.8 -2.2,2.2 l 0,9 c 0,1.3 -0.4,2.3 -1.3,3.2 -0.9,0.9 -1.9,1.3 -3.2,1.3 l -2.3,0 c -1.3,0 -2.3,-0.4 -3.2,-1.3 -0.9,-0.9 -1.3,-1.9 -1.3,-3.2 l 0,-51.7 c 0,-3.1 1.1,-5.8 3.3,-8 2.2,-2.2 4.8,-3.3 8,-3.3 l 4.5,0 c 3.1,0 5.8,1.1 8,3.3 2.2,2.2 3.3,4.8 3.3,8 L 222.5,98 Z m -11.3,-2.3 0,-24.7 c 0,-1.5 -0.8,-2.2 -2.2,-2.2 -1.5,0 -2.2,0.7 -2.2,2.2 l 0,24.7 c 0,1.5 0.8,2.2 2.2,2.2 1.5,0.1 2.2,-0.7 2.2,-2.2 z"
         id="path24"
         inkscape:connector-curvature="0"
         style="fill:#ffffff" /><path
         class="st6"
         d="m 253.9,98 c 0,3.1 -1.1,5.8 -3.3,8 -2.2,2.2 -4.8,3.3 -8,3.3 l -2.2,0 c -1.5,0 -2.2,0.8 -2.2,2.3 l 0,9 c 0,1.3 -0.4,2.3 -1.3,3.2 -0.9,0.9 -1.9,1.3 -3.2,1.3 l -2.2,0 c -1.3,0 -2.3,-0.4 -3.2,-1.3 -0.9,-0.9 -1.3,-1.9 -1.3,-3.2 l 0,-51.7 c 0,-3.1 1.1,-5.8 3.3,-8 2.2,-2.2 4.8,-3.3 8,-3.3 l 4.5,0 c 3.1,0 5.8,1.1 8,3.3 2.2,2.2 3.3,4.8 3.3,8 L 253.9,98 Z m -11.2,-2.3 0,-24.7 c 0,-1.5 -0.8,-2.2 -2.2,-2.2 -1.5,0 -2.3,0.7 -2.3,2.2 l 0,24.7 c 0,1.5 0.8,2.2 2.2,2.2 1.6,0.1 2.3,-0.7 2.3,-2.2 z"
         id="path26"
         inkscape:connector-curvature="0"
         style="fill:#ffffff" /></g></g><g
     id="g28"
     transform="translate(-133.8,-28.8)"><g
       id="g30"><path
         class="st7"
         d="m 145.5,183 c 8.7,0 13.4,4.7 13.4,13.5 l 0,4.3 c 0,8.8 -4.7,13.5 -13.4,13.5 l -3.6,0 0,22.1 -8.1,0 0,-53.4 11.7,0 z m -3.6,23.8 3.3,0 c 3.9,0 5.6,-2.1 5.6,-6.6 l 0,-3.2 c 0,-4.5 -1.8,-6.6 -5.6,-6.6 l -3.3,0 0,16.4 z"
         id="path32"
         inkscape:connector-curvature="0"
         style="fill:#686868" /><path
         class="st7"
         d="m 175.9,213.8 -3.7,0 0,22.6 -8.1,0 0,-53.4 11.7,0 c 8.7,0 13.4,4.7 13.4,13.5 l 0,3.8 c 0,5.6 -2,9.6 -5.7,11.8 l 7.4,24.3 -8.5,0 -6.5,-22.6 z m -3.7,-7.4 3.3,0 c 3.9,0 5.6,-2.1 5.6,-6.6 l 0,-2.7 c 0,-4.5 -1.8,-6.6 -5.6,-6.6 l -3.3,0 0,15.9 z"
         id="path34"
         inkscape:connector-curvature="0"
         style="fill:#686868" /><path
         class="st7"
         d="m 204.8,190.5 0,15.1 11.8,0 0,7.5 -11.8,0 0,15.9 14.7,0 0,7.5 -22.7,0 0,-53.5 22.7,0 0,7.5 -14.7,0 z"
         id="path36"
         inkscape:connector-curvature="0"
         style="fill:#686868" /><path
         class="st7"
         d="m 247.8,194.2 0,1.4 -7.8,0.8 0,-2 c 0,-3.1 -1.5,-4.7 -4.1,-4.7 -2.7,0 -4.1,1.6 -4.1,4.7 l 0,0.7 c 0,3.1 1.4,5.8 6.8,10.4 7.4,6.3 10.1,10.7 10.1,17.1 l 0,2.7 c 0,7.6 -4.5,12 -12.5,12 -8,0 -12.5,-4.3 -12.5,-12 l 0,-3.6 7.8,-0.8 0,3.8 c 0,3.4 1.5,5 4.6,5 3.1,0 4.6,-1.7 4.6,-5 l 0,-1.8 c 0,-3.4 -1.6,-6 -7,-10.6 -7.4,-6.3 -9.9,-10.7 -9.9,-16.9 l 0,-1.1 c 0,-7.6 4.4,-12 12.1,-12 7.7,0 11.9,4.3 11.9,11.9 z"
         id="path38"
         inkscape:connector-curvature="0"
         style="fill:#686868" /><path
         class="st7"
         d="m 278.3,224.5 c 0,8.4 -4.8,12.7 -12.6,12.7 -7.6,0 -12.4,-4.3 -12.4,-12.7 l 0,-41.5 7.8,0 0,41.2 c 0,3.9 1.8,5.3 4.6,5.3 2.8,0 4.6,-1.5 4.6,-5.3 l 0,-41.2 8.1,0 0,41.5 z"
         id="path40"
         inkscape:connector-curvature="0"
         style="fill:#686868" /><path
         class="st7"
         d="m 298.2,183 c 8.7,0 13.4,4.7 13.4,13.5 l 0,4.3 c 0,8.8 -4.7,13.5 -13.4,13.5 l -3.6,0 0,22.1 -8.1,0 0,-53.4 11.7,0 z m -3.5,23.8 3.3,0 c 3.9,0 5.6,-2.1 5.6,-6.6 l 0,-3.2 c 0,-4.5 -1.8,-6.6 -5.6,-6.6 l -3.3,0 0,16.4 z"
         id="path42"
         inkscape:connector-curvature="0"
         style="fill:#686868" /><path
         class="st7"
         d="m 342.3,224.5 c 0,8.4 -4.8,12.7 -12.6,12.7 -7.6,0 -12.4,-4.3 -12.4,-12.7 l 0,-41.5 7.8,0 0,41.2 c 0,3.9 1.8,5.3 4.6,5.3 2.8,0 4.6,-1.5 4.6,-5.3 l 0,-41.2 8.1,0 0,41.5 z"
         id="path44"
         inkscape:connector-curvature="0"
         style="fill:#686868" /><path
         class="st7"
         d="m 358.7,190.5 0,15.1 11.8,0 0,7.5 -11.8,0 0,15.9 14.7,0 0,7.5 -22.7,0 0,-53.5 22.7,0 0,7.5 -14.7,0 z"
         id="path46"
         inkscape:connector-curvature="0"
         style="fill:#686868" /><path
         class="st7"
         d="m 401.6,194.2 0,1.4 -7.8,0.8 0,-2 c 0,-3.1 -1.4,-4.7 -4.1,-4.7 -2.7,0 -4.1,1.6 -4.1,4.7 l 0,0.7 c 0,3.1 1.4,5.8 6.8,10.4 7.4,6.3 10.1,10.7 10.1,17.1 l 0,2.7 c 0,7.6 -4.5,12 -12.5,12 -8,0 -12.5,-4.3 -12.5,-12 l 0,-3.6 7.8,-0.8 0,3.8 c 0,3.4 1.5,5 4.6,5 3.1,0 4.6,-1.7 4.6,-5 l 0,-1.8 c 0,-3.4 -1.6,-6 -7,-10.6 -7.4,-6.3 -9.9,-10.7 -9.9,-16.9 l 0,-1.1 c 0,-7.6 4.3,-12 12.1,-12 7.6,0 11.9,4.3 11.9,11.9 z"
         id="path48"
         inkscape:connector-curvature="0"
         style="fill:#686868" /><path
         class="st7"
         d="m 420.5,190.6 0,45.8 -8.1,0 0,-45.8 -8.6,0 0,-7.6 25.3,0 0,7.6 -8.6,0 z"
         id="path50"
         inkscape:connector-curvature="0"
         style="fill:#686868" /><path
         class="st7"
         d="m 459.3,195.8 0,27.9 c 0,8.4 -5,13.5 -13,13.5 -8.1,0 -13,-5.1 -13,-13.5 l 0,-27.9 c 0,-8.4 5,-13.5 13,-13.5 8,0 13,5.1 13,13.5 z m -18.1,0 0,27.8 c 0,4 1.8,6.1 5,6.1 3.2,0 5,-2.1 5,-6.1 l 0,-27.8 c 0,-4 -1.8,-6.1 -5,-6.1 -3.2,0 -5,2.2 -5,6.1 z"
         id="path52"
         inkscape:connector-curvature="0"
         style="fill:#686868" /></g><g
       id="g54"><path
         class="st7"
         d="m 145.2,262.7 c 8.4,0 12.9,4.5 12.9,13 l 0,4.1 c 0,8.4 -4.5,13 -12.9,13 l -3.4,0 0,21.2 -7.8,0 0,-51.4 11.2,0 z m -3.4,22.9 3.2,0 c 3.7,0 5.4,-2 5.4,-6.3 l 0,-3.1 c 0,-4.3 -1.7,-6.3 -5.4,-6.3 l -3.2,0 0,15.7 z"
         id="path56"
         inkscape:connector-curvature="0"
         style="fill:#686868" /><path
         class="st7"
         d="m 178.5,314 -1.7,-11.7 -8.6,0 -1.7,11.7 -7.8,0 8.9,-51.4 9.9,0 8.9,51.4 -7.9,0 z m -9.3,-18.7 6.5,0 -3.2,-21.6 -0.2,0 -3.1,21.6 z"
         id="path58"
         inkscape:connector-curvature="0"
         style="fill:#686868" /><path
         class="st7"
         d="m 202.6,292.3 -3.6,0 0,21.7 -7.8,0 0,-51.4 11.2,0 c 8.4,0 12.9,4.5 12.9,13 l 0,3.7 c 0,5.4 -1.9,9.2 -5.5,11.3 l 7.2,23.4 -8.2,0 -6.2,-21.7 z m -3.6,-7.2 3.2,0 c 3.7,0 5.4,-2 5.4,-6.3 l 0,-2.6 c 0,-4.3 -1.7,-6.3 -5.4,-6.3 l -3.2,0 0,15.2 z"
         id="path60"
         inkscape:connector-curvature="0"
         style="fill:#686868" /><path
         class="st7"
         d="m 234.7,270 0,44 -7.8,0 0,-44 -8.3,0 0,-7.3 24.4,0 0,7.3 -8.3,0 z"
         id="path62"
         inkscape:connector-curvature="0"
         style="fill:#686868" /><path
         class="st7"
         d="m 247.9,314 0,-51.4 7.8,0 0,51.4 -7.8,0 z"
         id="path64"
         inkscape:connector-curvature="0"
         style="fill:#686868" /><path
         class="st7"
         d="m 287.3,274.3 0,4.6 -7.5,0.4 0,-4.2 c 0,-4.1 -1.5,-5.9 -4.4,-5.9 -2.9,0 -4.4,1.8 -4.4,5.2 l 0,28 c 0,3.4 1.5,5.2 4.4,5.2 2.9,0 4.4,-1.8 4.4,-5.9 l 0,-5.7 7.5,0.4 0,6.2 c 0,7.8 -4.5,12.3 -12.1,12.3 -7.6,0 -12,-4.5 -12,-12.3 l 0,-28.2 c 0,-7.8 4.4,-12.3 12,-12.3 7.6,-0.2 12.1,4.4 12.1,12.2 z"
         id="path66"
         inkscape:connector-curvature="0"
         style="fill:#686868" /><path
         class="st7"
         d="m 293.9,314 0,-51.4 7.8,0 0,51.4 -7.8,0 z"
         id="path68"
         inkscape:connector-curvature="0"
         style="fill:#686868" /><path
         class="st7"
         d="m 321.3,262.7 c 8.4,0 12.9,4.5 12.9,13 l 0,4.1 c 0,8.4 -4.5,13 -12.9,13 l -3.4,0 0,21.2 -7.9,0 0,-51.4 11.3,0 z m -3.5,22.9 3.2,0 c 3.7,0 5.4,-2 5.4,-6.3 l 0,-3.1 c 0,-4.3 -1.7,-6.3 -5.4,-6.3 l -3.2,0 0,15.7 z"
         id="path70"
         inkscape:connector-curvature="0"
         style="fill:#686868" /><path
         class="st7"
         d="m 354.5,314 -1.7,-11.7 -8.6,0 -1.7,11.7 -7.8,0 8.9,-51.4 9.9,0 8.9,51.4 -7.9,0 z m -9.2,-18.7 6.5,0 -3.2,-21.6 -0.2,0 -3.1,21.6 z"
         id="path72"
         inkscape:connector-curvature="0"
         style="fill:#686868" /><path
         class="st7"
         d="m 378.1,270 0,44 -7.8,0 0,-44 -8.3,0 0,-7.3 24.4,0 0,7.3 -8.3,0 z"
         id="path74"
         inkscape:connector-curvature="0"
         style="fill:#686868" /><path
         class="st7"
         d="m 391.3,314 0,-51.4 7.8,0 0,51.4 -7.8,0 z"
         id="path76"
         inkscape:connector-curvature="0"
         style="fill:#686868" /><path
         class="st7"
         d="m 413.3,314 -8.7,-51.4 7.9,0 5.8,39.2 0.1,0 5.7,-39.2 7.8,0 -8.7,51.4 -9.9,0 z"
         id="path78"
         inkscape:connector-curvature="0"
         style="fill:#686868" /><path
         class="st7"
         d="m 461.5,274.9 0,26.9 c 0,8.1 -4.8,13 -12.5,13 -7.8,0 -12.5,-4.9 -12.5,-13 l 0,-26.9 c 0,-8.1 4.8,-13 12.5,-13 7.7,0 12.5,4.9 12.5,13 z m -17.3,0.1 0,26.7 c 0,3.8 1.7,5.9 4.8,5.9 3.1,0 4.8,-2.1 4.8,-5.9 l 0,-26.7 c 0,-3.8 -1.7,-5.9 -4.8,-5.9 -3.1,0 -4.8,2.1 -4.8,5.9 z"
         id="path80"
         inkscape:connector-curvature="0"
         style="fill:#686868" /></g><line
       class="st8"
       x1="183"
       y1="249.8"
       x2="411.20001"
       y2="249.8"
       id="line82"
       style="fill:#868686;stroke:#868686;stroke-width:0.9673;stroke-miterlimit:10" /></g></svg>