<?xml version="1.0" encoding="UTF-8" standalone="no"?>
<!-- Generator: Adobe Illustrator 21.1.0, SVG Export Plug-In . SVG Version: 6.00 Build 0)  -->

<svg
   xmlns:dc="http://purl.org/dc/elements/1.1/"
   xmlns:cc="http://creativecommons.org/ns#"
   xmlns:rdf="http://www.w3.org/1999/02/22-rdf-syntax-ns#"
   xmlns:svg="http://www.w3.org/2000/svg"
   xmlns="http://www.w3.org/2000/svg"
   xmlns:sodipodi="http://sodipodi.sourceforge.net/DTD/sodipodi-0.dtd"
   xmlns:inkscape="http://www.inkscape.org/namespaces/inkscape"
   version="1.1"
   id="Capa_1"
   x="0px"
   y="0px"
   viewBox="0 0 446.72574 124.79033"
   xml:space="preserve"
   inkscape:version="0.91 r13725"
   sodipodi:docname="pp-sl-logo-horizontal.svg"
   width="446.72574"
   height="124.79034"><metadata
     id="metadata185"><rdf:RDF><cc:Work
         rdf:about=""><dc:format>image/svg+xml</dc:format><dc:type
           rdf:resource="http://purl.org/dc/dcmitype/StillImage" /><dc:title></dc:title></cc:Work></rdf:RDF></metadata><defs
     id="defs183" /><sodipodi:namedview
     pagecolor="#ffffff"
     bordercolor="#666666"
     borderopacity="1"
     objecttolerance="10"
     gridtolerance="10"
     guidetolerance="10"
     inkscape:pageopacity="0"
     inkscape:pageshadow="2"
     inkscape:window-width="1366"
     inkscape:window-height="747"
     id="namedview181"
     showgrid="false"
     fit-margin-top="0"
     fit-margin-left="0"
     fit-margin-right="0"
     fit-margin-bottom="0"
     inkscape:zoom="1.5857199"
     inkscape:cx="245.85806"
     inkscape:cy="53.486127"
     inkscape:window-x="0"
     inkscape:window-y="21"
     inkscape:window-maximized="1"
     inkscape:current-layer="Capa_1" /><style
     type="text/css"
     id="style3">
	.st0{fill:#F3A195;}
	.st1{fill:#E9DEBE;}
	.st2{fill:#DDEDDF;}
	.st3{fill:#BAD7C1;}
	.st4{fill:#E5415C;}
	.st5{fill:#9E2A54;}
	.st6{fill:#FFFFFF;}
	.st7{fill:#686868;}
	.st8{fill:#868686;stroke:#868686;stroke-width:0.9673;stroke-miterlimit:10;}
	.st9{fill:#4C4846;}
	.st10{fill:#E5415C;stroke:#E5415C;stroke-width:2.2132;stroke-miterlimit:10;}
	.st11{font-family:'NellaSueDemo';}
	.st12{font-size:129.0912px;}
</style><g
     id="g5"
     transform="translate(-148.8,-28.754834)"><g
       id="XMLID_1_"><g
         id="g8"><path
           class="st0"
           d="m 446.5,91.2 c 0,6 -0.8,11.8 -2.4,17.3 -1.6,5.5 -3.9,10.7 -6.8,15.4 l -90.7,-95 37.6,0 c 34.4,0 62.3,27.9 62.3,62.3 z"
           id="path10"
           inkscape:connector-curvature="0"
           style="fill:#f3a195" /><path
           class="st1"
           d="m 346.6,28.9 90.7,95 c -11,17.8 -30.6,29.6 -53.1,29.6 l -37.3,0 -0.3,-124.6 z"
           id="path12"
           inkscape:connector-curvature="0"
           style="fill:#e9debe" /><polygon
           class="st2"
           points="298.7,96.2 242,28.9 346.6,28.9 "
           id="polygon14"
           style="fill:#ddeddf" /><polygon
           class="st3"
           points="346.9,153.5 298.7,96.2 346.6,28.9 "
           id="polygon16"
           style="fill:#bad7c1" /><polygon
           class="st4"
           points="298.7,153.5 298.7,96.2 298.7,96.2 346.9,153.5 "
           id="polygon18"
           style="fill:#e5415c" /><path
           class="st5"
           d="m 298.7,96.2 0,0 0,57.3 -87.6,0 c -34.4,0 -62.3,-27.9 -62.3,-62.3 0,-17.2 7,-32.8 18.3,-44.1 11.3,-11.3 26.9,-18.3 44.1,-18.3 l 30.8,0 56.7,67.4 z"
           id="path20"
           inkscape:connector-curvature="0"
           style="fill:#9e2a54" /></g></g><g
       id="g22"><path
         class="st6"
         d="m 222.5,98 c 0,3.1 -1.1,5.8 -3.3,8 -2.2,2.2 -4.8,3.3 -8,3.3 l -2.2,0 c -1.5,0 -2.2,0.8 -2.2,2.2 l 0,9 c 0,1.3 -0.4,2.3 -1.3,3.2 -0.9,0.9 -1.9,1.3 -3.2,1.3 l -2.3,0 c -1.3,0 -2.3,-0.4 -3.2,-1.3 -0.9,-0.9 -1.3,-1.9 -1.3,-3.2 l 0,-51.7 c 0,-3.1 1.1,-5.8 3.3,-8 2.2,-2.2 4.8,-3.3 8,-3.3 l 4.5,0 c 3.1,0 5.8,1.1 8,3.3 2.2,2.2 3.3,4.8 3.3,8 L 222.5,98 Z m -11.3,-2.3 0,-24.7 c 0,-1.5 -0.8,-2.2 -2.2,-2.2 -1.5,0 -2.2,0.7 -2.2,2.2 l 0,24.7 c 0,1.5 0.8,2.2 2.2,2.2 1.5,0.1 2.2,-0.7 2.2,-2.2 z"
         id="path24"
         inkscape:connector-curvature="0"
         style="fill:#ffffff" /><path
         class="st6"
         d="m 253.9,98 c 0,3.1 -1.1,5.8 -3.3,8 -2.2,2.2 -4.8,3.3 -8,3.3 l -2.2,0 c -1.5,0 -2.2,0.8 -2.2,2.3 l 0,9 c 0,1.3 -0.4,2.3 -1.3,3.2 -0.9,0.9 -1.9,1.3 -3.2,1.3 l -2.2,0 c -1.3,0 -2.3,-0.4 -3.2,-1.3 -0.9,-0.9 -1.3,-1.9 -1.3,-3.2 l 0,-51.7 c 0,-3.1 1.1,-5.8 3.3,-8 2.2,-2.2 4.8,-3.3 8,-3.3 l 4.5,0 c 3.1,0 5.8,1.1 8,3.3 2.2,2.2 3.3,4.8 3.3,8 L 253.9,98 Z m -11.2,-2.3 0,-24.7 c 0,-1.5 -0.8,-2.2 -2.2,-2.2 -1.5,0 -2.3,0.7 -2.3,2.2 l 0,24.7 c 0,1.5 0.8,2.2 2.2,2.2 1.6,0.1 2.3,-0.7 2.3,-2.2 z"
         id="path26"
         inkscape:connector-curvature="0"
         style="fill:#ffffff" /></g></g><g
     id="g3703"
     transform="matrix(1.0101467,0,0,1.0101467,4.513065,-1.9217993)"><path
       d="m 370.8202,59.254702 -45.07027,0 c -6.78307,0 -12.28194,-5.498867 -12.28194,-12.281936 l 0,-32.788343 c 0,-6.783064 5.49887,-12.2819315 12.28194,-12.2819315 l 32.78834,0 c 6.78307,0 12.28193,5.4988675 12.28193,12.2819315 l 0,45.070279 z"
       id="XMLID_209_"
       inkscape:connector-curvature="0"
       style="fill:#007199" /><path
       d="m 425.48881,59.254702 -45.07149,0 0,-45.070279 c 0,-6.783064 5.49885,-12.2819315 12.28193,-12.2819315 l 32.78956,0 c 6.78307,0 12.28194,5.4988675 12.28194,12.2819315 l 0,32.788343 c 0,6.783069 -5.49887,12.281936 -12.28194,12.281936 z"
       id="XMLID_208_"
       inkscape:connector-curvature="0"
       style="fill:#e30613" /><path
       d="m 358.53827,125.43934 -32.78834,0 c -6.78307,0 -12.28194,-5.49886 -12.28194,-12.28193 l 0,-32.788589 c 0,-6.783068 5.49887,-12.281935 12.28194,-12.281935 l 45.07027,0 0,45.070524 c 0,6.78307 -5.49886,12.28193 -12.28193,12.28193 z"
       id="XMLID_207_"
       inkscape:connector-curvature="0"
       style="fill:#f39200" /><path
       d="m 425.48881,125.43934 -32.78956,0 c -6.78308,0 -12.28193,-5.49886 -12.28193,-12.28193 l 0,-45.070524 45.07149,0 c 6.78307,0 12.28194,5.498867 12.28194,12.281935 l 0,32.788589 c 0,6.78307 -5.49887,12.28193 -12.28194,12.28193 z"
       id="XMLID_206_"
       inkscape:connector-curvature="0"
       style="fill:#afca0b" /><g
       transform="matrix(0.24563868,0,0,0.24563868,302.81071,-3.8456987)"
       id="XMLID_202_"
       style="opacity:0.31000001"><polygon
         points="119.769,215.985 104.2,183.289 225.624,183.289 210.051,215.985 "
         id="XMLID_205_" /><path
         d="m 148.853,152.374 c 14.608,0 27.82,7.195 37.358,18.803 l 0,-103.627 c -1.534,-0.132 -3.077,-0.223 -4.637,-0.223 -35.284,0 -63.884,34.405 -63.884,76.846 0,6.518 0.681,12.846 1.951,18.894 8.358,-6.75 18.403,-10.693 29.212,-10.693 z"
         id="XMLID_204_"
         inkscape:connector-curvature="0" /><rect
         height="113.28"
         width="5.355"
         y="67.327003"
         x="189.243"
         id="XMLID_203_" /></g><path
       d="m 431.01372,40.319644 c -5.01913,-1.467201 -8.58704,-5.202382 -8.58704,-9.579908 0,-1.609177 0.48342,-3.131157 1.34267,-4.487082 l -0.15206,-0.09309 c -2.86463,-0.192581 -5.33699,-1.803727 -6.71625,-4.136559 0,0 -0.88061,-1.890681 -0.98992,-2.549482 -0.0275,-0.129697 -0.0509,-0.261607 -0.072,-0.393023 -0.73176,-3.698828 -2.94767,-6.388081 -5.57035,-6.388081 -2.62244,0 -4.83761,2.689253 -5.56937,6.388081 -0.0212,0.13166 -0.0448,0.263326 -0.0719,0.393023 -0.1093,0.658801 -0.98992,2.549482 -0.98992,2.549482 -1.37925,2.332587 -3.85186,3.943978 -6.71724,4.136559 l -0.15106,0.09309 c 0.85948,1.35568 1.34266,2.877905 1.34266,4.487082 0,4.379735 -3.56888,8.112707 -8.58703,9.579908 l -0.17539,0.152051 0,8.736877 41.83939,0 0,-8.736877 -0.17515,-0.152051 z m -16.73192,0.768115 -8.02453,0 0,-12.230846 c 0,-2.217134 1.7966,-4.01275 4.01177,-4.01275 l 0,0 c 2.21614,0 4.01276,1.795616 4.01276,4.01275 l 0,12.230846 z"
       id="XMLID_199_"
       inkscape:connector-curvature="0"
       style="opacity:0.31000001" /><g
       transform="matrix(0.24563868,0,0,0.24563868,302.81071,-3.8456987)"
       id="XMLID_195_"
       style="opacity:0.31000001"><path
         d="m 151.456,351.996 c 0,10.692 5.322,20.14 13.456,25.848 8.131,-5.709 13.453,-15.156 13.453,-25.848 0,-10.693 -5.322,-20.14 -13.453,-25.849 -8.135,5.709 -13.456,15.156 -13.456,25.849 z"
         id="XMLID_198_"
         inkscape:connector-curvature="0" /><path
         d="m 193.257,378.356 c -10.977,0.973 -21.319,7.095 -27.243,17.359 -0.396,0.684 -0.759,1.37 -1.102,2.062 -0.342,-0.693 -0.709,-1.378 -1.101,-2.062 -5.928,-10.264 -16.27,-16.386 -27.243,-17.359 -4.642,9.991 -4.513,22.012 1.411,32.276 5.808,10.057 15.861,16.13 26.591,17.293 0.013,0.016 0.021,0.041 0.033,0.066 0.103,-0.008 0.206,-0.025 0.309,-0.033 0.104,0.008 0.207,0.025 0.31,0.033 0.012,-0.025 0.02,-0.05 0.029,-0.066 10.73,-1.163 20.783,-7.236 26.591,-17.293 5.928,-10.264 6.055,-22.284 1.415,-32.276 z"
         id="XMLID_197_"
         inkscape:connector-curvature="0" /><path
         d="m 204.069,427.48 c -15.16,1.345 -29.45,9.794 -37.635,23.976 -0.544,0.941 -1.052,1.89 -1.522,2.855 -0.474,-0.965 -0.977,-1.914 -1.522,-2.855 -8.189,-14.183 -22.475,-22.631 -37.635,-23.976 -6.415,13.795 -6.238,30.395 1.951,44.578 8.024,13.902 21.91,22.293 36.736,23.893 0.012,0.025 0.025,0.058 0.041,0.091 0.14,-0.017 0.285,-0.033 0.428,-0.05 0.144,0.017 0.285,0.033 0.429,0.05 0.013,-0.033 0.029,-0.066 0.041,-0.091 14.822,-1.6 28.708,-9.991 36.736,-23.893 8.19,-14.183 8.363,-30.783 1.952,-44.578 z"
         id="XMLID_196_"
         inkscape:connector-curvature="0" /></g><path
       d="m 427.24807,91.468493 c 0,-3.295243 -3.08448,-6.191319 -7.74695,-7.86535 -0.65758,-4.110027 -4.55807,-7.269676 -9.28391,-7.269676 -4.72707,0 -8.62634,3.159649 -9.28514,7.269676 -4.66123,1.674031 -7.74573,4.570107 -7.74573,7.86535 0,3.050099 2.64479,5.759735 6.73837,7.4743 l 8.4593,10.189827 0,8.93339 3.66615,0 0,-8.93339 8.45931,-10.189827 c 4.09406,-1.714565 6.7386,-4.424201 6.7386,-7.4743 z m -23.09568,8.767337 c 1.33873,0.28175 2.75631,0.47237 4.23162,0.55956 l 0,4.5377 -4.23162,-5.09726 z m 7.89803,5.097 0,-4.53768 c 1.47529,-0.0872 2.89287,-0.27757 4.23062,-0.55957 l -4.23062,5.09725 z"
       id="XMLID_191_"
       inkscape:connector-curvature="0"
       style="opacity:0.31000001" /><polygon
       transform="matrix(0.24563868,0,0,0.24563868,302.81071,-3.8456987)"
       points="114.984,214.476 99.415,181.779 220.839,181.779 205.27,214.476 "
       id="XMLID_190_"
       style="fill:#ffffff" /><path
       d="m 338.20013,33.212335 c 3.58731,0 6.83391,1.76737 9.17559,4.618744 l 0,-25.454801 c -0.37682,-0.03241 -0.75584,-0.05478 -1.13904,-0.05478 -8.66711,0 -15.69237,8.451202 -15.69237,18.874142 0,1.60328 0.16727,3.15744 0.48022,4.643062 2.05329,-1.657569 4.51975,-2.626369 7.1756,-2.626369 z"
       id="XMLID_163_"
       inkscape:connector-curvature="0"
       style="fill:#ffffff" /><rect
       height="27.825949"
       width="1.3153952"
       y="12.321504"
       x="348.12054"
       id="XMLID_129_"
       style="fill:#ffffff" /><path
       d="m 429.83833,39.948976 c -5.01814,-1.467201 -8.58703,-5.202382 -8.58703,-9.579909 0,-1.611145 0.48341,-3.133366 1.34265,-4.489046 l -0.15105,-0.09113 c -2.86562,-0.192581 -5.33823,-1.803727 -6.71724,-4.136559 0,0 -0.88061,-1.890679 -0.99017,-2.549482 -0.0273,-0.129697 -0.0506,-0.261608 -0.0717,-0.393268 -0.73175,-3.698583 -2.94668,-6.388081 -5.56936,-6.388081 -2.62367,0 -4.83883,2.689253 -5.57034,6.388081 -0.0213,0.13166 -0.0448,0.263571 -0.072,0.393268 -0.1093,0.658803 -0.98991,2.549482 -0.98991,2.549482 -1.37926,2.332587 -3.85186,3.943978 -6.71625,4.136559 l -0.15206,0.09113 c 0.85949,1.35568 1.34267,2.877901 1.34267,4.489046 0,4.377527 -3.56814,8.112708 -8.58703,9.579909 l -0.1754,0.150087 0,8.73884 41.83939,0 0,-8.73884 -0.17513,-0.150087 z m -16.73192,0.767864 -8.02452,0 0,-12.232805 c 0,-2.21517 1.7966,-4.012754 4.01275,-4.012754 l 0,0 c 2.21517,0 4.01177,1.797584 4.01177,4.012754 l 0,12.232805 z"
       id="XMLID_126_"
       inkscape:connector-curvature="0"
       style="fill:#ffffff" /><path
       d="m 338.83976,82.247217 c 0,2.626614 1.30705,4.946917 3.30434,6.349271 1.99827,-1.402599 3.30457,-3.722903 3.30457,-6.349271 0,-2.626613 -1.3063,-4.947162 -3.30457,-6.349511 -1.99753,1.402593 -3.30434,3.722898 -3.30434,6.349511 z"
       id="XMLID_125_"
       inkscape:connector-curvature="0"
       style="fill:#ffffff" /><path
       d="m 349.10647,88.722501 c -2.69538,0.239004 -5.23676,1.742807 -6.69192,4.264038 -0.0963,0.166054 -0.18644,0.336527 -0.2707,0.506509 -0.084,-0.170227 -0.17416,-0.340455 -0.27045,-0.506509 -1.45614,-2.521231 -3.99653,-4.025034 -6.69193,-4.264038 -1.14026,2.454177 -1.10857,5.405029 0.3466,7.926269 1.42765,2.472603 3.89607,3.96411 6.53178,4.24783 0.003,0.006 0.005,0.0121 0.008,0.0162 0.0253,-0.002 0.0507,-0.004 0.076,-0.008 0.0253,0.003 0.0508,0.006 0.0761,0.008 0.003,-0.004 0.004,-0.0105 0.008,-0.0162 2.6357,-0.28372 5.10388,-1.77548 6.53177,-4.24783 1.45541,-2.52124 1.4866,-5.472092 0.34659,-7.926269 z"
       id="XMLID_124_"
       inkscape:connector-curvature="0"
       style="fill:#ffffff" /><path
       d="m 351.76258,100.78704 c -3.72389,0.33235 -7.23407,2.40776 -9.24462,5.89164 -0.13362,0.23091 -0.25742,0.46401 -0.37386,0.70131 -0.11643,-0.2373 -0.24,-0.47015 -0.37387,-0.70131 -2.01055,-3.48388 -5.52073,-5.55904 -9.24461,-5.89164 -1.57478,3.39056 -1.53229,7.46841 0.47925,10.95206 1.97099,3.41486 5.38292,5.47601 9.02378,5.86707 0.003,0.008 0.006,0.0162 0.0105,0.0245 0.0354,-0.004 0.07,-0.008 0.10513,-0.0122 0.0354,0.003 0.0701,0.008 0.10539,0.0122 0.003,-0.008 0.007,-0.0164 0.0105,-0.0245 3.64087,-0.39106 7.05279,-2.45221 9.02355,-5.86707 2.01178,-3.4839 2.05452,-7.5615 0.47974,-10.95206 z"
       id="XMLID_123_"
       inkscape:connector-curvature="0"
       style="fill:#ffffff" /><path
       d="m 426.0727,91.09561 c 0,-3.293272 -3.08448,-6.189355 -7.74573,-7.863381 -0.65881,-4.110027 -4.55906,-7.271643 -9.28514,-7.271643 -4.72633,0 -8.62634,3.161616 -9.28515,7.271643 -4.66124,1.674026 -7.74596,4.570109 -7.74596,7.863381 0,3.052067 2.64503,5.761953 6.7386,7.476508 l 8.45931,10.189842 0,8.93142 3.66615,0 0,-8.93142 8.45931,-10.189842 c 4.09381,-1.714808 6.73861,-4.424441 6.73861,-7.476508 z m -23.09569,8.769305 c 1.33849,0.281745 2.75631,0.472125 4.23162,0.559315 l 0,4.53794 -4.23162,-5.097255 z m 7.89801,5.097015 0,-4.53794 c 1.47532,-0.0871 2.89289,-0.27757 4.23163,-0.559317 l -4.23163,5.097257 z"
       id="XMLID_119_"
       inkscape:connector-curvature="0"
       style="fill:#ffffff" /></g></svg>