<?xml version="1.0" encoding="UTF-8" standalone="no"?>
<!-- Generator: Adobe Illustrator 19.0.0, SVG Export Plug-In . SVG Version: 6.00 Build 0)  -->

<svg
   xmlns:dc="http://purl.org/dc/elements/1.1/"
   xmlns:cc="http://creativecommons.org/ns#"
   xmlns:rdf="http://www.w3.org/1999/02/22-rdf-syntax-ns#"
   xmlns:svg="http://www.w3.org/2000/svg"
   xmlns="http://www.w3.org/2000/svg"
   xmlns:sodipodi="http://sodipodi.sourceforge.net/DTD/sodipodi-0.dtd"
   xmlns:inkscape="http://www.inkscape.org/namespaces/inkscape"
   version="1.1"
   id="Layer_1"
   x="0px"
   y="0px"
   viewBox="0 0 297 297"
   style="enable-background:new 0 0 297 297;"
   xml:space="preserve"
   width="512px"
   height="512px"
   inkscape:version="0.91 r13725"
   sodipodi:docname="login-dark.svg"><metadata
     id="metadata47"><rdf:RDF><cc:Work
         rdf:about=""><dc:format>image/svg+xml</dc:format><dc:type
           rdf:resource="http://purl.org/dc/dcmitype/StillImage" /><dc:title></dc:title></cc:Work></rdf:RDF></metadata><defs
     id="defs45" /><sodipodi:namedview
     pagecolor="#ffffff"
     bordercolor="#666666"
     borderopacity="1"
     objecttolerance="10"
     gridtolerance="10"
     guidetolerance="10"
     inkscape:pageopacity="0"
     inkscape:pageshadow="2"
     inkscape:window-width="1366"
     inkscape:window-height="747"
     id="namedview43"
     showgrid="false"
     inkscape:zoom="0.63409131"
     inkscape:cx="346.6526"
     inkscape:cy="101.17518"
     inkscape:window-x="0"
     inkscape:window-y="21"
     inkscape:window-maximized="1"
     inkscape:current-layer="Layer_1" /><g
     id="g3"
     transform="matrix(-1,0,0,1,296.99975,0)"
     style="fill:#ffffff"><g
       id="g5"
       style="fill:#ffffff"><g
         id="g7"
         style="fill:#ffffff"><path
           d="m 142.53734,6.5 c 30.147,0 58.95,9.335 83.294,26.995 2.789,2.023 3.547,5.853 1.739,8.787 l -22.863,37.092 c -0.962,1.559 -2.53,2.649 -4.328,3.004 -1.796,0.354 -3.661,-0.054 -5.145,-1.129 -14.23,-10.323 -31.069,-15.78 -48.698,-15.78 -45.783,0 -83.029872,37.247 -83.029872,83.03 0,45.783 37.246872,83.03 83.029872,83.03 17.629,0 34.468,-5.456 48.698,-15.78 1.484,-1.076 3.349,-1.486 5.145,-1.129 1.798,0.355 3.366,1.444 4.328,3.004 l 22.863,37.093 c 1.808,2.934 1.05,6.763 -1.739,8.787 -24.344,17.661 -53.147,26.996 -83.294,26.996 -78.298876,0 -141.99976768,-63.701 -141.99976768,-142 0,-78.299 63.70089168,-142 141.99976768,-142 z"
           id="path9"
           inkscape:connector-curvature="0"
           style="fill:#1d1d24;fill-opacity:1" /><path
           d="m 192.42769,202.5479 c 1.147,-2.142 1.021,-4.74 -0.326,-6.76 l -15.463,-23.195 93.566,0 c 12.849,0 23.302,-10.453 23.302,-23.302 0,-12.849 -10.453,-23.302 -23.302,-23.302 l -93.566,0 15.463,-23.195 c 1.348,-2.02 1.473,-4.617995 0.326,-6.759995 -1.146,-2.141 -3.377,-3.478 -5.806,-3.478 l -44.576,0 c -2.201,0 -4.258,1.1 -5.479,2.933 l -33.434,50.148995 c -1.475,2.212 -1.475,5.093 0,7.306 l 33.433,50.149 c 1.221,1.832 3.278,2.933 5.479,2.933 l 44.577,0 c 2.43,0 4.661,-1.337 5.806,-3.478 z"
           id="path11"
           inkscape:connector-curvature="0"
           style="fill:#1d1d24;fill-opacity:1" /></g></g></g><g
     id="g13" /><g
     id="g15" /><g
     id="g17" /><g
     id="g19" /><g
     id="g21" /><g
     id="g23" /><g
     id="g25" /><g
     id="g27" /><g
     id="g29" /><g
     id="g31" /><g
     id="g33" /><g
     id="g35" /><g
     id="g37" /><g
     id="g39" /><g
     id="g41" /></svg>
