<?xml version="1.0" encoding="UTF-8"?>
<!-- Generator: Adobe Illustrator 17.0.0, SVG Export Plug-In . SVG Version: 6.00 Build 0)  -->
<!DOCTYPE svg PUBLIC "-//W3C//DTD SVG 1.1//EN" "http://www.w3.org/Graphics/SVG/1.1/DTD/svg11.dtd">
<svg version="1.1" id="Capa_1" xmlns="http://www.w3.org/2000/svg" xmlns:xlink="http://www.w3.org/1999/xlink" x="0px" y="0px" width="1349.519px" height="347.666px" viewBox="79.969 98.887 1349.519 347.666" enable-background="new 79.969 98.887 1349.519 347.666" xml:space="preserve">
<rect x="94.539" y="0" fill="none" width="1320" height="544.5"/>
<g id="XMLID_186_">
	<path id="XMLID_301_" fill="#4A4A49" d="M533.02,182.617l-2.252-32.901c-0.167-1.761-0.291-3.523-0.375-5.294   c-0.083-1.762-0.208-3.825-0.38-6.176c-0.417,1.933-0.933,3.825-1.563,5.675c-0.625,1.84-1.219,3.659-1.814,5.42l-10.001,33.146   h-14.264l-9.011-32.14c-0.412-1.517-0.938-3.486-1.558-5.925c-0.625-2.434-1.199-4.998-1.689-7.687   c-0.089,2.351-0.188,4.68-0.307,6.999c-0.131,2.309-0.282,4.514-0.438,6.614l-2.137,32.27h-16.88l7.259-67.563h20.883l8.51,31.264   c0.667,2.178,1.183,4.091,1.553,5.728c0.386,1.642,0.782,3.554,1.199,5.733c0.417-2.095,0.855-4.153,1.313-6.171   c0.459-2.022,0.98-3.992,1.553-5.92l8.891-30.634h21.018l6.879,67.563L533.02,182.617L533.02,182.617z M618.333,159.926   L618.333,159.926c0,2.517-0.125,4.639-0.375,6.363c-0.25,1.725-0.604,3.215-1.063,4.477c-0.448,1.256-1.042,2.376-1.746,3.341   c-0.714,0.964-1.527,1.913-2.444,2.835c-1.835,1.767-4.482,3.362-7.942,4.79c-3.461,1.428-7.818,2.137-13.076,2.137   c-5.582,0-10.444-0.73-14.572-2.194c-4.122-1.48-7.312-3.596-9.573-6.374c-1.413-1.928-2.376-4.008-2.872-6.238   c-0.505-2.22-0.75-4.935-0.75-8.13v-45.877h17.015v43.991c0,2.011,0.058,3.611,0.182,4.784c0.125,1.183,0.521,2.189,1.188,3.033   c1.751,2.434,4.67,3.653,8.755,3.653c1.673,0,3.174-0.276,4.503-0.818c1.339-0.548,2.47-1.199,3.382-1.954   c0.667-0.594,1.23-1.532,1.688-2.841c0.454-1.303,0.688-3.715,0.688-7.244v-42.604h17.01v44.87H618.333z M673.127,156.653   L673.127,156.653c-0.25-3.111-0.458-6.092-0.63-8.948c-0.167-2.866-0.25-5.508-0.25-7.948l-0.24-24.827h15.504v67.687l-17.135-0.13   l-12.513-27.6c-1.413-3.2-2.768-6.259-4.065-9.198c-1.293-2.95-2.398-5.639-3.32-8.078c0.089,1.35,0.156,2.882,0.198,4.607   c0.036,1.719,0.078,3.471,0.115,5.232c0.042,1.762,0.094,3.487,0.135,5.165c0.031,1.678,0.057,3.07,0.057,4.164l0.375,25.839   h-15.765v-67.687h18.267l13.018,26.089c1.413,2.944,2.559,5.566,3.435,7.88C671.188,151.212,672.121,153.797,673.127,156.653   L673.127,156.653z M706.518,182.617L706.518,182.617v-67.563h17.39v67.563H706.518L706.518,182.617z M792.841,177.066   L792.841,177.066c-2.923,2.267-6.014,3.951-9.261,5.04c-3.258,1.095-7.046,1.642-11.382,1.642c-4.837,0-9.152-0.568-12.951-1.704   c-3.794-1.131-7.275-3.002-10.444-5.602c-6.916-6.473-10.381-15.082-10.381-25.844c0-4.539,0.417-8.594,1.246-12.164   c0.839-3.57,2.22-6.906,4.133-10.011c2.929-4.8,6.9-8.495,11.945-11.095c5.05-2.611,10.574-3.914,16.578-3.914   c3.664,0,7.249,0.526,10.756,1.574c3.502,1.058,6.212,2.298,8.136,3.727l-7.51,10.834c-3.664-2.267-7.338-3.398-11.012-3.398   c-2.001,0-4.044,0.375-6.129,1.131c-2.085,0.756-3.664,1.762-4.753,3.023c-1.657,1.684-2.856,3.888-3.565,6.624   c-0.709,2.725-1.058,6.024-1.058,9.886c0,4.873,0.24,8.745,0.74,11.601c0.511,2.856,1.345,5.165,2.512,6.932   c1.417,1.933,3.174,3.424,5.253,4.471c2.085,1.053,4.581,1.584,7.5,1.584c2.178,0,4.19-0.297,6.066-0.886   c1.882-0.594,3.904-1.642,6.071-3.153L792.841,177.066L792.841,177.066z M804.473,182.617L804.473,182.617v-67.563h17.391v67.563   H804.473L804.473,182.617z M873.777,136.104L873.777,136.104c0-2.439-0.714-4.513-2.132-6.238c-1.412-1.725-3.882-2.585-7.39-2.585   h-7.62v18.408h7.51c3.419,0,5.878-0.678,7.364-2.022C873.026,142.321,873.777,139.799,873.777,136.104L873.777,136.104z    M891.782,136.104L891.782,136.104c0,2.439-0.328,4.784-1.001,7.056c-0.662,2.267-1.652,4.347-2.939,6.238   c-1.287,1.892-2.835,3.533-4.633,4.919c-1.787,1.381-3.809,2.366-6.061,2.96c-1.251,0.334-2.356,0.594-3.315,0.761   c-0.964,0.167-1.96,0.297-3.002,0.375c-1.037,0.089-2.142,0.146-3.315,0.188c-1.178,0.042-2.548,0.057-4.127,0.057h-6.755v23.958   h-16.749v-67.943h18.996c3.512,0,6.426,0.089,8.756,0.256c2.35,0.167,4.31,0.396,5.884,0.693c1.579,0.292,2.94,0.651,4.076,1.068   c1.115,0.427,2.173,0.881,3.179,1.391c3.586,1.678,6.316,4.096,8.203,7.244C890.844,128.479,891.782,132.075,891.782,136.104   L891.782,136.104z M935.684,155.767L935.684,155.767c-0.49-1.766-1.016-3.742-1.558-5.92c-0.536-2.189-1.079-4.42-1.615-6.687   c-0.552-2.272-1.053-4.497-1.506-6.681c-0.458-2.184-0.85-4.117-1.188-5.79c-0.334,1.673-0.75,3.586-1.25,5.733   c-0.501,2.142-1.043,4.347-1.621,6.614c-0.599,2.267-1.183,4.519-1.761,6.744s-1.115,4.221-1.621,5.988h12.12V155.767z    M944.575,182.617L944.575,182.617l-5.128-14.368h-19.898l-4.743,14.368h-17.641l24.76-67.943h17.016l23.274,67.943H944.575   L944.575,182.617z M1011.741,182.617L1011.741,182.617h-39.269v-67.563h16.886l0.13,53.945h25.755L1011.741,182.617   L1011.741,182.617z M1028.757,182.617L1028.757,182.617v-67.563h17.396v67.563H1028.757L1028.757,182.617z M1100.572,150.848   L1100.572,150.848c0-7.39-0.896-13.107-2.705-17.136c-1.788-4.039-5.269-6.051-10.439-6.051h-6.129v41.843h8.005   c1.501,0,2.934-0.291,4.32-0.881c1.366-0.589,2.564-1.574,3.57-2.966c1.001-1.386,1.809-3.272,2.433-5.67   C1100.244,157.591,1100.572,154.553,1100.572,150.848L1100.572,150.848z M1119.198,149.466L1119.198,149.466   c0,4.956-0.662,9.344-1.996,13.169c-1.329,3.82-3.143,7.124-5.441,9.892c-2.304,2.772-5.05,4.961-8.261,6.556   c-3.21,1.595-6.691,2.647-10.438,3.153c-1.423,0.167-3.023,0.276-4.816,0.313c-1.798,0.047-3.992,0.068-6.566,0.068h-17.396   v-67.312h14.764c1.079,0,2.267,0,3.565,0c1.287,0,2.585,0.021,3.882,0.068c1.287,0.036,2.486,0.078,3.554,0.12   c1.089,0.046,2.012,0.109,2.757,0.187c8.26,0.927,14.723,4.227,19.392,9.897C1116.868,131.252,1119.198,139.215,1119.198,149.466   L1119.198,149.466z M1163.105,155.767L1163.105,155.767c-0.501-1.766-1.017-3.742-1.558-5.92c-0.537-2.189-1.079-4.42-1.626-6.687   c-0.542-2.272-1.042-4.497-1.506-6.681c-0.448-2.184-0.84-4.117-1.178-5.79c-0.333,1.673-0.751,3.586-1.261,5.733   c-0.49,2.142-1.032,4.347-1.621,6.614s-1.162,4.519-1.751,6.744c-0.578,2.225-1.125,4.221-1.621,5.988h12.122V155.767z    M1171.985,182.617L1171.985,182.617l-5.123-14.368h-19.893l-4.753,14.368h-17.63l24.76-67.943h17.015l23.27,67.943H1171.985   L1171.985,182.617z M1235.035,150.848L1235.035,150.848c0-7.39-0.886-13.107-2.684-17.136c-1.793-4.039-5.28-6.051-10.439-6.051   h-6.139v41.843h8c1.506,0,2.95-0.291,4.326-0.881c1.381-0.589,2.569-1.574,3.565-2.966c0.995-1.386,1.813-3.272,2.439-5.67   C1234.722,157.591,1235.035,154.553,1235.035,150.848L1235.035,150.848z M1253.676,149.466L1253.676,149.466   c0,4.956-0.672,9.344-1.996,13.169c-1.344,3.82-3.158,7.124-5.451,9.892c-2.293,2.772-5.034,4.961-8.255,6.556   c-3.21,1.595-6.681,2.647-10.439,3.153c-1.412,0.167-3.028,0.276-4.826,0.313c-1.782,0.047-3.971,0.068-6.556,0.068h-17.396   v-67.312h14.764c1.084,0,2.272,0,3.565,0s2.585,0.021,3.878,0.068c1.287,0.036,2.48,0.078,3.564,0.12   c1.084,0.046,2.001,0.109,2.752,0.187c8.255,0.927,14.723,4.227,19.392,9.897C1251.347,131.252,1253.676,139.215,1253.676,149.466   L1253.676,149.466z M1335.857,150.848L1335.857,150.848c0-7.39-0.902-13.107-2.689-17.136c-1.793-4.039-5.274-6.051-10.444-6.051   h-6.134v41.843h8.01c1.496,0,2.929-0.291,4.315-0.881c1.37-0.589,2.559-1.574,3.565-2.966c1.001-1.386,1.813-3.272,2.439-5.67   C1335.544,157.591,1335.857,154.553,1335.857,150.848L1335.857,150.848z M1354.494,149.466L1354.494,149.466   c0,4.956-0.662,9.344-2.007,13.169c-1.329,3.82-3.148,7.124-5.441,9.892c-2.282,2.772-5.039,4.961-8.245,6.556   c-3.221,1.595-6.702,2.647-10.454,3.153c-1.417,0.167-3.023,0.276-4.815,0.313c-1.788,0.047-3.976,0.068-6.561,0.068h-17.386   v-67.312h14.749c1.089,0,2.277,0,3.575,0c1.293,0,2.585,0.021,3.878,0.068c1.292,0.036,2.48,0.078,3.564,0.12   c1.079,0.046,1.996,0.109,2.752,0.187c8.25,0.927,14.718,4.227,19.382,9.897C1352.164,131.252,1354.494,139.215,1354.494,149.466   L1354.494,149.466z M1368.632,182.617L1368.632,182.617v-67.818h42.656l-2.376,13.112h-23.644v12.607h19.762v13.232h-19.392v15.124   h26.402v13.743L1368.632,182.617L1368.632,182.617z"/>
	<path id="XMLID_286_" fill="#4A4A49" d="M549.113,269.472c0,5.039-1.032,9.584-3.127,13.638c-2.1,4.034-5.092,7.505-9,10.376   c-3.904,2.872-8.589,5.102-14.056,6.686c-5.483,1.579-11.538,2.387-18.173,2.387c-5.712,0-11.439-0.652-17.203-1.939   c-5.759-1.293-11.497-3.294-17.203-5.988l7.692-17.953c4.883,2.121,9.453,3.815,13.696,5.107c4.258,1.287,9.01,1.923,14.243,1.923   c11.069,0,16.594-3.101,16.594-9.328c0-2.574-0.97-4.748-2.882-6.504c-1.917-1.761-5.029-3.101-9.339-4.044l-11.882-2.809   c-10.132-2.705-16.948-7.171-20.429-13.378c-2.57-4.466-3.846-9.339-3.846-14.618c0-4.331,0.922-8.354,2.788-12.054   c1.866-3.695,4.456-6.859,7.775-9.501c3.32-2.637,7.338-4.727,12.05-6.243c4.727-1.527,9.86-2.298,15.462-2.298   c6.4,0,12.888,0.881,19.465,2.642c6.592,1.762,12.085,4.112,16.515,7.041l-11.007,16.374c-8.849-4.7-17.005-7.041-24.447-7.041   c-3.727,0-6.755,0.761-9.094,2.282c-2.325,1.532-3.482,3.638-3.482,6.332c0,2.35,0.631,4.112,1.918,5.284   c1.282,1.178,3.903,2.231,7.849,3.168l12.586,2.992c8.265,2.001,14.759,5.248,19.47,9.771   C546.768,256.292,549.113,262.186,549.113,269.472L549.113,269.472z M611.819,262.953L611.819,262.953   c-0.683-2.465-1.407-5.222-2.168-8.276c-0.761-3.049-1.517-6.16-2.267-9.328c-0.761-3.169-1.46-6.275-2.09-9.324   c-0.646-3.054-1.204-5.753-1.673-8.088c-0.454,2.335-1.053,5.003-1.741,8c-0.703,2.991-1.464,6.071-2.272,9.235   c-0.823,3.168-1.631,6.306-2.455,9.417c-0.813,3.117-1.564,5.9-2.262,8.365L611.819,262.953L611.819,262.953z M624.233,300.439   L624.233,300.439l-7.166-20.069h-27.762l-6.639,20.069h-24.63l34.589-94.866h23.754l32.489,94.866H624.233L624.233,300.439z    M714.892,264.187L714.892,264.187c-0.365-4.346-0.641-8.51-0.876-12.502c-0.234-3.987-0.349-7.677-0.349-11.091l-0.354-34.667   h21.664v94.511l-23.931-0.177l-17.469-38.545c-1.976-4.456-3.867-8.739-5.675-12.841c-1.814-4.112-3.346-7.864-4.633-11.267   c0.115,1.876,0.214,4.018,0.271,6.426c0.047,2.403,0.104,4.841,0.177,7.301c0.052,2.46,0.115,4.868,0.172,7.213   c0.058,2.345,0.078,4.284,0.078,5.816l0.532,36.074h-22.008v-94.511h25.489l18.167,36.429c1.991,4.112,3.586,7.781,4.805,11.001   C712.183,256.584,713.491,260.196,714.892,264.187L714.892,264.187z M846.473,300.439L846.473,300.439h-54.851V206.1h23.577   l0.187,75.327h35.976L846.473,300.439L846.473,300.439z M927.523,252.217L927.523,252.217c0-9.621-1.339-17.131-4.013-22.53   c-2.7-5.399-7.635-8.099-14.853-8.099c-6.994,0-11.971,2.788-14.931,8.365c-2.976,5.576-4.461,13.753-4.461,24.546   c0,5.988,0.407,10.95,1.219,14.884c0.823,3.914,2.012,7.067,3.58,9.417c1.584,2.345,3.586,4.002,6.04,5.014   c2.434,0.995,5.285,1.491,8.552,1.491c3.023,0,5.733-0.558,8.114-1.673c2.392-1.121,4.372-2.96,5.941-5.55   c1.568-2.575,2.772-5.983,3.586-10.205C927.106,263.667,927.523,258.434,927.523,252.217L927.523,252.217z M954.248,252.217   L954.248,252.217c0,7.39-0.928,14.139-2.799,20.241c-1.866,6.098-4.623,11.315-8.296,15.655   c-3.659,4.352-8.297,7.718-13.878,10.121c-5.587,2.408-12.07,3.612-19.403,3.612c-7.447,0-14.081-1.178-19.908-3.523   c-5.811-2.335-10.715-5.654-14.666-9.944c-3.966-4.273-6.968-9.349-9.005-15.223c-2.038-5.868-3.049-12.32-3.049-19.361   c0-15.598,4.076-27.658,12.221-36.163c8.156-8.51,19.324-12.763,33.546-12.763c6.618,0,12.711,1.006,18.235,2.991   c5.535,2.001,10.319,4.961,14.337,8.891c4.013,3.935,7.129,8.859,9.334,14.78C953.143,237.463,954.248,244.352,954.248,252.217   L954.248,252.217z M1020.262,234.44L1020.262,234.44c0-3.752-1.126-6.571-3.393-8.443c-2.267-1.882-6.624-2.819-13.018-2.819   h-8.042v22.347h7.687c6.41,0,10.814-0.907,13.195-2.726C1019.074,240.981,1020.262,238.198,1020.262,234.44L1020.262,234.44z    M1023.759,300.439L1023.759,300.439c-1.052-1.517-1.975-2.908-2.799-4.133c-0.807-1.24-1.595-2.439-2.356-3.612   c-0.761-1.172-1.532-2.413-2.345-3.7c-0.834-1.277-1.694-2.757-2.632-4.388c-2.788-4.81-5.092-8.667-6.9-11.538   c-1.798-2.872-3.257-5.102-4.372-6.686c-1.089-1.579-2.001-2.642-2.71-3.164c-0.683-0.521-1.391-0.792-2.09-0.792l-1.569,0.167   v37.846h-22.873V205.75h36.335c5.118,0,10.069,0.553,14.832,1.673c4.784,1.121,8.75,3.195,11.877,6.254   c3.038,3.038,5.19,6.301,6.473,9.761c1.276,3.455,1.913,7.124,1.913,11.001c0,3.284-0.521,6.42-1.558,9.412   c-1.053,2.991-2.496,5.665-4.294,8.015c-1.798,2.345-3.836,4.31-6.103,5.894c-2.267,1.584-4.638,2.606-7.082,3.075   c1.042,1.183,2.355,2.877,3.929,5.097c1.579,2.236,3.267,4.7,5.076,7.39c1.798,2.72,3.596,5.524,5.41,8.463   c1.808,2.934,3.481,5.649,5.066,8.177c1.568,2.527,2.934,4.722,4.112,6.608c1.157,1.876,1.913,3.164,2.267,3.867h-27.607V300.439z    M1066.019,300.439L1066.019,300.439V205.75h59.573l-3.32,18.308h-33.015v17.6h27.605v18.485h-27.084v21.117h36.861v19.178   L1066.019,300.439L1066.019,300.439z M1199.471,264.187L1199.471,264.187c-0.338-4.346-0.63-8.51-0.87-12.502   c-0.229-3.987-0.344-7.677-0.344-11.091l-0.354-34.667h21.669v94.511l-23.936-0.177l-17.474-38.545   c-1.975-4.456-3.862-8.739-5.665-12.841c-1.808-4.112-3.356-7.864-4.633-11.267c0.099,1.876,0.203,4.018,0.266,6.426   c0.052,2.403,0.115,4.841,0.167,7.301c0.063,2.46,0.125,4.868,0.177,7.213c0.063,2.345,0.099,4.284,0.099,5.816l0.505,36.074   h-21.998v-94.511h25.495l18.162,36.429c1.986,4.112,3.58,7.781,4.811,11.001C1196.776,256.584,1198.08,260.196,1199.471,264.187   L1199.471,264.187z M1303.572,300.439L1303.572,300.439h-64.79v-15.833l36.319-54.043c1.866-2.575,3.559-4.8,5.065-6.681   c-1.276,0.109-2.647,0.177-4.086,0.177c-1.459,0-3.356,0-5.675,0h-29.7l5.587-18.308h62.356v15.666l-36.152,54.559   c-0.938,1.293-1.762,2.491-2.459,3.612c-0.693,1.11-1.444,2.079-2.267,2.897c1.292-0.114,2.663-0.177,4.117-0.177   c1.443,0,3.278,0,5.482,0h33.031L1303.572,300.439L1303.572,300.439z M1385.319,252.217L1385.319,252.217   c0-9.621-1.329-17.131-4.018-22.53c-2.668-5.399-7.619-8.099-14.843-8.099c-6.988,0-11.95,2.788-14.942,8.365   c-2.965,5.576-4.445,13.753-4.445,24.546c0,5.988,0.407,10.95,1.23,14.884c0.808,3.914,2.001,7.067,3.569,9.417   c1.584,2.345,3.57,4.002,6.03,5.014c2.444,0.995,5.306,1.491,8.557,1.491c3.044,0,5.738-0.558,8.12-1.673   c2.392-1.121,4.367-2.96,5.952-5.55c1.558-2.575,2.752-5.983,3.575-10.205C1384.929,263.667,1385.319,258.434,1385.319,252.217   L1385.319,252.217z M1412.039,252.217L1412.039,252.217c0,7.39-0.912,14.139-2.773,20.241c-1.876,6.098-4.649,11.315-8.323,15.655   c-3.643,4.352-8.266,7.718-13.878,10.121c-5.598,2.408-12.044,3.612-19.387,3.612c-7.447,0-14.082-1.178-19.908-3.523   c-5.826-2.335-10.715-5.654-14.666-9.944c-3.976-4.273-6.967-9.349-9.005-15.223c-2.037-5.868-3.054-12.32-3.054-19.361   c0-15.598,4.08-27.658,12.236-36.163c8.14-8.51,19.324-12.763,33.536-12.763c6.619,0,12.711,1.006,18.246,2.991   c5.524,2.001,10.308,4.961,14.321,8.891c4.002,3.935,7.135,8.859,9.334,14.78C1410.95,237.463,1412.039,244.352,1412.039,252.217   L1412.039,252.217z"/>
	<g id="XMLID_266_">
		<line id="XMLID_284_" fill="none" stroke="#4A4A49" x1="470.352" y1="328.149" x2="1412.039" y2="328.149"/>
		<line id="XMLID_282_" fill="none" stroke="#4A4A49" x1="470.352" y1="431.087" x2="1412.039" y2="431.087"/>
	</g>
	<g id="XMLID_1051_">
		<path id="XMLID_1052_" fill="#575756" d="M524.103,383.245h21.05v24.703h-4.878l-1.157-6.545    c-3.017,3.528-7.89,7.702-17.579,7.702c-18.355,0-24.192-13.221-24.192-23.295c0-17.709,12.127-24.833,23.999-24.833    c9.433,0,20.148,2.955,23.035,15.592h-7.187c-2.121-6.353-6.869-9.688-15.53-9.688c-12.127,0-17.516,8.599-17.516,18.35    c0,12.961,8.276,17.969,17.839,17.969c9.944,0,16.427-5.905,17.13-14.056h-15.015v-5.899H524.103z"/>
		<path id="XMLID_1054_" fill="#575756" d="M567.635,362.133h36.835v5.904h-30.034v13.279h29.132v5.904h-29.132v14.822h30.675v5.904    h-37.476V362.133z"/>
		<path id="XMLID_1056_" fill="#575756" d="M628.501,392.871c0.13,8.214,7.833,10.33,14.759,10.33    c7.255,0,12.388-2.762,12.388-7.765c0-4.169-3.273-5.905-8.537-6.801l-10.397-1.73c-5.451-0.902-13.602-3.086-13.602-12.003    c0-8.343,6.608-13.925,18.355-13.925c9.173,0,18.861,3.34,19.507,14.373h-6.806c-0.573-3.59-2.627-8.469-13.602-8.469    c-5.003,0-10.652,2.116-10.652,7.51c0,2.819,1.86,5.066,7.51,6.03l11.231,1.923c3.59,0.641,13.795,2.376,13.795,11.742    c0,11.679-10.459,15.019-19.699,15.019c-10.334,0-21.049-3.596-21.049-16.234H628.501z"/>
		<path id="XMLID_1058_" fill="#575756" d="M693.666,368.038h-17.323v-5.904h41.452v5.904h-17.323v39.91h-6.806V368.038z"/>
		<path id="XMLID_1060_" fill="#575756" d="M736.182,362.133h6.801v45.814h-6.801V362.133z"/>
		<path id="XMLID_1062_" fill="#575756" d="M789.235,360.976c18.412,0,25.474,12.32,25.474,24.061    c0,11.747-7.061,24.067-25.474,24.067c-18.418,0-25.474-12.32-25.474-24.067C763.761,373.296,770.817,360.976,789.235,360.976z     M789.235,366.881c-10.46,0-18.673,6.03-18.673,18.157c0,12.133,8.214,18.163,18.673,18.163s18.673-6.03,18.673-18.163    C807.908,372.911,799.694,366.881,789.235,366.881z M790.903,350.131h8.02l-8.406,8.985h-5.133L790.903,350.131z"/>
		<path id="XMLID_1066_" fill="#575756" d="M842.075,371.498h-0.13v36.45h-6.801v-45.814h7.896l29.45,36.444h0.131v-36.444h6.801    v45.814h-7.896L842.075,371.498z"/>
		<path id="XMLID_1068_" fill="#575756" d="M936.601,362.133h23.228c13.732,0,20.023,8.984,20.023,22.263    c0,12.774-5.582,23.551-19.637,23.551h-23.613v-45.814H936.601z M959.897,402.043c11.163,0,13.154-9.365,13.154-17.516    c0-8.083-2.632-16.489-14.436-16.489h-15.213v34.005H959.897z"/>
		<path id="XMLID_1071_" fill="#575756" d="M1000.479,362.133h36.835v5.904h-30.034v13.279h29.132v5.904h-29.132v14.822h30.675    v5.904h-37.476L1000.479,362.133L1000.479,362.133z"/>
		<path id="XMLID_1073_" fill="#575756" d="M1105.158,368.038h-17.328v-5.904h41.453v5.904h-17.323v39.91h-6.801L1105.158,368.038    L1105.158,368.038z"/>
		<path id="XMLID_1075_" fill="#575756" d="M1170.062,360.976c18.418,0,25.474,12.32,25.474,24.061    c0,11.747-7.056,24.067-25.474,24.067s-25.474-12.32-25.474-24.067C1144.588,373.296,1151.645,360.976,1170.062,360.976z     M1170.062,366.881c-10.46,0-18.673,6.03-18.673,18.157c0,12.133,8.213,18.163,18.673,18.163c10.459,0,18.673-6.03,18.673-18.163    C1188.735,372.911,1180.522,366.881,1170.062,366.881z"/>
		<path id="XMLID_1078_" fill="#575756" d="M1215.716,362.133h23.228c13.733,0,20.023,8.984,20.023,22.263    c0,12.774-5.587,23.551-19.637,23.551h-23.613L1215.716,362.133L1215.716,362.133z M1239.006,402.043    c11.168,0,13.16-9.365,13.16-17.516c0-8.083-2.632-16.489-14.441-16.489h-15.207v34.005H1239.006z"/>
		<path id="XMLID_1081_" fill="#575756" d="M1302.566,360.976c18.418,0,25.474,12.32,25.474,24.061    c0,11.747-7.056,24.067-25.474,24.067s-25.474-12.32-25.474-24.067C1277.092,373.296,1284.148,360.976,1302.566,360.976z     M1302.566,366.881c-10.46,0-18.673,6.03-18.673,18.157c0,12.133,8.213,18.163,18.673,18.163c10.459,0,18.673-6.03,18.673-18.163    C1321.238,372.911,1313.025,366.881,1302.566,366.881z"/>
		<path id="XMLID_1084_" fill="#575756" d="M1351.106,392.871c0.13,8.214,7.828,10.33,14.759,10.33    c7.249,0,12.382-2.762,12.382-7.765c0-4.169-3.273-5.905-8.531-6.801l-10.397-1.73c-5.451-0.902-13.602-3.086-13.602-12.003    c0-8.343,6.608-13.925,18.35-13.925c9.177,0,18.866,3.34,19.507,14.373h-6.801c-0.578-3.59-2.632-8.469-13.603-8.469    c-5.008,0-10.652,2.116-10.652,7.51c0,2.819,1.861,5.066,7.51,6.03l11.226,1.923c3.596,0.641,13.795,2.376,13.795,11.742    c0,11.679-10.459,15.019-19.694,15.019c-10.334,0-21.049-3.596-21.049-16.234H1351.106z"/>
	</g>
	<g id="XMLID_187_">
		<path id="XMLID_264_" fill="#007199" d="M244.521,260.894H127.292c-16.708,0-30.253-13.544-30.253-30.253v-86.975    c0-16.708,13.545-30.253,30.253-30.253h86.975c16.708,0,30.253,13.545,30.253,30.253L244.521,260.894L244.521,260.894z"/>
		<path id="XMLID_263_" fill="#E30613" d="M386.431,260.894H269.203V143.666c0-16.708,13.545-30.253,30.253-30.253h86.976    c16.708,0,30.253,13.545,30.253,30.253v86.975C416.683,247.349,403.139,260.894,386.431,260.894z"/>
		<path id="XMLID_262_" fill="#F39200" d="M214.267,431.087h-86.975c-16.708,0-30.253-13.545-30.253-30.253v-86.975    c0-16.708,13.545-30.253,30.253-30.253H244.52v117.228C244.521,417.542,230.976,431.087,214.267,431.087z"/>
		<path id="XMLID_261_" fill="#AFCA0B" d="M386.431,431.087h-86.976c-16.708,0-30.253-13.545-30.253-30.253V283.606H386.43    c16.708,0,30.253,13.545,30.253,30.253v86.975C416.683,417.542,403.139,431.087,386.431,431.087z"/>
		<g id="XMLID_257_" opacity="0.31">
			<polygon id="XMLID_260_" points="202.318,235.06 145.287,235.06 135.454,214.407 212.151,214.407    "/>
			<path id="XMLID_259_" d="M163.658,194.879c9.23,0,17.573,4.545,23.598,11.877V141.3c-0.969-0.083-1.944-0.141-2.929-0.141     c-22.285,0-40.353,21.732-40.353,48.54c0,4.117,0.433,8.114,1.235,11.935C150.489,197.37,156.831,194.879,163.658,194.879z"/>
			<rect id="XMLID_258_" x="189.174" y="141.159" width="3.382" height="71.554"/>
		</g>
		<path id="XMLID_254_" opacity="0.31" enable-background="new    " d="M399.308,212.202c-12.904-3.773-22.081-13.378-22.081-24.635    c0-4.138,1.246-8.052,3.455-11.538l-0.391-0.24c-7.369-0.495-13.727-4.639-17.271-10.637c0,0-2.267-4.862-2.548-6.556    c-0.068-0.334-0.13-0.672-0.183-1.011c-1.881-9.511-7.577-16.427-14.326-16.427c-6.744,0-12.44,6.916-14.321,16.427    c-0.052,0.338-0.115,0.677-0.182,1.011c-0.281,1.694-2.549,6.556-2.549,6.556c-3.544,5.998-9.901,10.142-17.271,10.637    l-0.391,0.24c2.209,3.486,3.455,7.4,3.455,11.538c0,11.262-9.177,20.862-22.081,24.635l-0.453,0.391v22.467h107.592v-22.467    L399.308,212.202z M356.282,214.178h-20.633v-31.451c0-5.702,4.618-10.319,10.314-10.319l0,0c5.701,0,10.319,4.617,10.319,10.319    V214.178z"/>
		<g id="XMLID_250_" opacity="0.31">
			<path id="XMLID_253_" d="M165.305,320.973c0,6.754,3.362,12.721,8.5,16.327c5.133-3.606,8.495-9.573,8.495-16.327     c0-6.755-3.362-12.721-8.495-16.328C168.667,308.251,165.305,314.218,165.305,320.973z"/>
			<path id="XMLID_252_" d="M191.707,337.623c-6.931,0.615-13.467,4.482-17.208,10.965c-0.25,0.432-0.48,0.865-0.693,1.303     c-0.219-0.438-0.448-0.87-0.699-1.303c-3.741-6.483-10.277-10.35-17.208-10.965c-2.929,6.311-2.851,13.904,0.891,20.387     c3.669,6.353,10.022,10.189,16.797,10.923c0.01,0.01,0.015,0.026,0.021,0.042c0.068-0.005,0.13-0.016,0.198-0.021     c0.062,0.005,0.13,0.015,0.193,0.021c0.011-0.016,0.016-0.031,0.021-0.042c6.775-0.735,13.128-4.571,16.797-10.923     C194.558,351.527,194.641,343.935,191.707,337.623z"/>
			<path id="XMLID_251_" d="M198.539,368.653c-9.579,0.85-18.606,6.186-23.775,15.145c-0.344,0.594-0.662,1.194-0.959,1.803     c-0.302-0.609-0.62-1.209-0.964-1.803c-5.17-8.959-14.196-14.295-23.77-15.145c-4.054,8.714-3.94,19.2,1.23,28.158     c5.071,8.781,13.842,14.082,23.207,15.092c0.005,0.016,0.016,0.037,0.026,0.058c0.089-0.011,0.177-0.021,0.271-0.031     c0.089,0.011,0.177,0.021,0.271,0.031c0.005-0.021,0.015-0.042,0.026-0.058c9.36-1.011,18.136-6.311,23.201-15.092     C202.479,387.852,202.588,377.366,198.539,368.653z"/>
		</g>
		<path id="XMLID_245_" opacity="0.31" enable-background="new    " d="M389.625,343.731c0-8.474-7.932-15.921-19.918-20.226    c-1.694-10.569-11.721-18.694-23.874-18.694c-12.153,0-22.185,8.125-23.879,18.694c-11.987,4.305-19.918,11.752-19.918,20.226    c0,7.843,6.801,14.811,17.329,19.22l21.753,26.203v22.973h9.428v-22.973l21.753-26.203    C382.824,358.542,389.625,351.574,389.625,343.731z M330.235,366.276c3.445,0.725,7.088,1.215,10.882,1.439v11.668    L330.235,366.276z M350.544,379.383v-11.668c3.794-0.224,7.442-0.714,10.881-1.439L350.544,379.383z"/>
		<polygon id="XMLID_244_" fill="#FFFFFF" points="199.295,234.107 142.265,234.107 132.431,213.453 209.129,213.453   "/>
		<path id="XMLID_242_" fill="#FFFFFF" d="M160.641,193.926c9.224,0,17.568,4.545,23.593,11.877v-65.457    c-0.969-0.083-1.944-0.141-2.929-0.141c-22.285,0-40.353,21.732-40.353,48.535c0,4.123,0.433,8.12,1.235,11.94    C147.466,196.417,153.814,193.926,160.641,193.926z"/>
		<rect id="XMLID_241_" x="186.151" y="140.205" fill="#FFFFFF" width="3.382" height="71.554"/>
		<path id="XMLID_238_" fill="#FFFFFF" d="M396.285,211.249c-12.903-3.773-22.081-13.378-22.081-24.635    c0-4.143,1.245-8.057,3.455-11.544l-0.391-0.234c-7.369-0.495-13.727-4.639-17.271-10.637c0,0-2.267-4.862-2.548-6.556    c-0.068-0.334-0.13-0.672-0.182-1.011c-1.881-9.511-7.577-16.427-14.321-16.427c-6.743,0-12.445,6.916-14.326,16.427    c-0.052,0.339-0.115,0.678-0.182,1.011c-0.282,1.694-2.549,6.556-2.549,6.556c-3.543,5.998-9.902,10.142-17.271,10.637    l-0.391,0.234c2.209,3.486,3.455,7.4,3.455,11.544c0,11.257-9.177,20.862-22.081,24.635l-0.453,0.386v22.472H396.74v-22.472    L396.285,211.249z M353.259,213.224h-20.632v-31.457c0-5.696,4.618-10.319,10.319-10.319l0,0c5.696,0,10.314,4.623,10.314,10.319    v31.457H353.259z"/>
		<path id="XMLID_237_" fill="#FFFFFF" d="M162.282,320.019c0,6.754,3.362,12.721,8.5,16.327c5.139-3.606,8.495-9.573,8.495-16.327    c0-6.755-3.356-12.721-8.495-16.328C165.644,307.298,162.282,313.264,162.282,320.019z"/>
		<path id="XMLID_235_" fill="#FFFFFF" d="M188.684,336.67c-6.931,0.615-13.462,4.482-17.208,10.965    c-0.245,0.427-0.48,0.865-0.693,1.303c-0.219-0.438-0.448-0.876-0.699-1.303c-3.742-6.483-10.277-10.35-17.208-10.965    c-2.929,6.311-2.851,13.899,0.891,20.382c3.674,6.358,10.022,10.194,16.797,10.923c0.01,0.015,0.015,0.031,0.021,0.042    c0.068-0.005,0.13-0.011,0.198-0.021c0.062,0.01,0.13,0.015,0.193,0.021c0.011-0.011,0.015-0.026,0.021-0.042    c6.78-0.729,13.128-4.565,16.797-10.923C191.535,350.569,191.618,342.981,188.684,336.67z"/>
		<path id="XMLID_234_" fill="#FFFFFF" d="M195.517,367.694c-9.579,0.855-18.6,6.192-23.775,15.15    c-0.344,0.594-0.662,1.193-0.959,1.803c-0.303-0.61-0.62-1.209-0.964-1.803c-5.17-8.959-14.196-14.295-23.77-15.15    c-4.049,8.719-3.94,19.205,1.23,28.163c5.071,8.781,13.842,14.082,23.207,15.087c0.005,0.021,0.016,0.042,0.026,0.063    c0.089-0.011,0.177-0.021,0.271-0.031c0.089,0.01,0.177,0.021,0.271,0.031c0.01-0.021,0.015-0.042,0.026-0.063    c9.36-1.005,18.136-6.306,23.201-15.087C199.456,386.898,199.566,376.413,195.517,367.694z"/>
		<path id="XMLID_188_" fill="#FFFFFF" d="M386.603,342.772c0-8.469-7.932-15.916-19.918-20.22    c-1.694-10.569-11.721-18.699-23.874-18.699s-22.185,8.13-23.874,18.699c-11.992,4.305-19.924,11.752-19.924,20.22    c0,7.849,6.801,14.817,17.329,19.226l21.752,26.203v22.967h9.428v-22.967l21.753-26.203    C379.802,357.589,386.603,350.621,386.603,342.772z M327.212,365.323c3.445,0.725,7.088,1.214,10.881,1.438v11.669    L327.212,365.323z M347.521,378.43v-11.669c3.794-0.224,7.442-0.714,10.881-1.438L347.521,378.43z"/>
	</g>
</g>
</svg>