<?xml version="1.0" encoding="utf-8"?>
<!-- Generator: Adobe Illustrator 17.0.0, SVG Export Plug-In . SVG Version: 6.00 Build 0)  -->
<!DOCTYPE svg PUBLIC "-//W3C//DTD SVG 1.1//EN" "http://www.w3.org/Graphics/SVG/1.1/DTD/svg11.dtd">
<svg version="1.1" id="Layer_1" xmlns="http://www.w3.org/2000/svg" xmlns:xlink="http://www.w3.org/1999/xlink" x="0px" y="0px"
	 width="2377.335px" height="655.471px" viewBox="82.731 1793.511 2377.335 655.471"
	 enable-background="new 82.731 1793.511 2377.335 655.471" xml:space="preserve">
<g>
	<path fill="#FFFFFF" d="M631.964,2315.501l-212.841,122.821c-24.783,14.214-57.584,14.214-82.367,0l-212.841-122.821
		c-24.783-14.214-41.183-42.641-41.183-71.433v-245.642c0-28.427,16.4-57.219,41.183-71.433l212.841-122.821
		c24.783-14.214,57.584-14.214,82.367,0l212.841,122.821c24.783,14.214,41.183,42.641,41.183,71.433v245.642
		C672.783,2272.495,656.382,2300.923,631.964,2315.501"/>
	<g>
		<g>
			<path fill="#58585B" d="M913.687,1993.323c0-11.662-0.364-20.774-0.729-27.334c-0.365-6.56-1.458-12.391-2.916-17.858
				c-1.822-5.467-4.009-10.205-7.289-13.849c-8.383-9.111-19.681-13.849-34.623-13.849h-37.174v148.333h37.174
				c14.578,0,26.241-4.738,34.623-13.849c4.738-5.102,8.018-12.391,9.111-21.503
				C912.958,2024.302,913.687,2011.182,913.687,1993.323 M944.301,1993.323v10.205c0,10.934-0.364,20.774-1.093,28.792
				c-0.729,8.382-2.916,16.401-5.831,24.418c-2.916,8.018-7.654,14.943-13.485,21.138c-12.756,12.756-30.25,19.316-52.481,19.316
				h-71.433v-204.094h71.069c22.232,0,39.725,6.56,52.481,19.316c5.831,6.196,10.569,12.756,13.485,20.409
				c2.916,7.654,5.102,15.307,5.831,22.961c0.729,8.018,1.093,17.129,1.093,27.698v9.84H944.301z"/>
			<polygon fill="#58585B" points="1103.203,2096.829 973.457,2096.829 973.457,1892.734 1103.203,1892.734 1103.203,1920.433 
				1004.436,1920.433 1004.436,1979.839 1088.625,1979.839 1088.625,2007.537 1004.436,2007.537 1004.436,2069.13 1103.203,2069.13 
							"/>
			<polygon fill="#58585B" points="1316.409,2096.829 1285.43,2096.829 1285.43,1960.158 1238.78,2060.019 1215.819,2060.019 
				1168.076,1960.158 1168.076,2096.829 1137.097,2096.829 1137.097,1892.734 1168.076,1892.734 1227.482,2019.564 
				1285.43,1892.734 1316.409,1892.734 			"/>
			<path fill="#58585B" d="M1460.368,1994.781c0-20.409-0.729-34.623-2.187-43.006c-1.458-8.382-4.738-14.943-9.84-20.409
				c-3.645-4.009-8.018-6.925-13.485-9.111c-5.467-2.187-10.934-3.28-16.765-3.28s-11.298,1.093-16.765,3.28
				c-5.467,2.187-9.84,5.467-13.485,9.111c-4.738,5.467-8.018,12.391-9.84,20.409c-1.458,8.382-2.187,22.596-2.187,42.641
				c0,10.934,0.364,19.316,0.364,25.876c0.365,6.56,1.093,12.027,1.822,17.129c1.093,4.738,2.187,8.747,3.28,11.298
				c1.458,2.916,3.28,5.831,6.196,9.112c3.645,4.009,8.382,6.925,13.485,9.111c5.467,2.187,10.934,3.28,16.765,3.28
				c12.391,0,22.232-4.374,30.25-12.756c3.28-3.645,5.831-7.654,7.654-12.391s2.916-10.934,3.645-18.952
				C1460.368,2018.471,1460.368,2007.902,1460.368,1994.781 M1491.347,1994.781c0,16.036-0.365,28.427-0.729,37.174
				c-0.729,8.382-2.187,16.401-5.102,24.054c-2.916,7.654-7.289,14.578-13.485,20.774c-14.578,14.578-32.436,21.867-53.575,21.867
				s-38.997-7.289-53.21-21.503c-6.196-6.56-10.934-13.485-13.485-20.774c-2.916-7.289-4.374-15.307-5.102-24.054
				c-0.729-8.747-1.093-21.138-1.093-37.174c0-12.391,0-22.232,0.365-29.521s1.093-13.849,2.187-20.045
				c1.093-6.196,2.916-11.662,5.831-17.129c2.551-5.467,6.56-10.569,11.298-15.307c14.214-14.578,32.072-21.867,53.21-21.867
				s38.997,7.289,53.575,21.867c6.196,6.56,10.569,13.485,13.485,20.774c2.916,7.289,4.374,15.307,5.102,24.054
				C1490.982,1965.99,1491.347,1978.381,1491.347,1994.781"/>
			<path fill="#58585B" d="M1666.649,2035.6c-1.458,10.205-4.738,18.952-9.111,26.97s-9.476,14.578-15.672,19.68
				c-6.196,5.467-13.485,9.112-21.503,12.027c-8.018,2.551-16.765,4.009-25.876,4.009c-6.925,0-13.849-0.729-20.045-2.551
				c-6.196-1.822-12.391-4.009-17.858-7.654c-5.831-3.28-10.934-7.289-15.307-11.662c-6.196-6.56-10.934-13.485-13.485-20.774
				c-2.916-7.289-4.374-15.307-5.102-24.054c-0.729-8.747-1.093-21.138-1.093-37.174c0-12.391,0.365-22.232,0.365-29.521
				c0.365-7.289,1.093-13.849,2.187-20.045c1.093-6.196,2.916-11.663,5.831-17.129c2.551-5.467,6.56-10.569,11.298-15.307
				c6.925-6.925,14.943-12.391,24.054-16.036s18.587-5.467,29.156-5.467c18.952,0,34.988,5.467,47.744,16.4
				s21.138,26.241,24.418,46.65h-31.343c-2.551-10.569-7.289-19.316-14.214-25.512c-6.925-6.196-16.036-9.476-26.605-9.476
				c-5.831,0-11.663,1.093-16.765,3.28c-5.102,2.187-9.476,5.102-13.12,9.111c-2.551,2.916-4.738,5.831-6.196,9.111
				c-1.458,2.916-2.551,6.925-3.645,12.027c-1.093,5.102-1.458,10.569-1.822,16.765c-0.365,6.196-0.365,14.943-0.365,25.876
				c0,10.934,0,19.316,0.365,25.512c0.364,6.196,1.093,12.027,1.822,16.765c1.093,5.102,2.187,9.111,3.645,12.027
				c1.458,2.916,3.645,6.196,6.196,9.111c3.645,4.009,8.018,6.925,13.12,9.112c5.102,2.187,10.934,3.28,16.765,3.28
				c7.289,0,13.849-1.458,19.316-4.374c5.467-2.916,10.205-6.925,13.849-12.391c3.645-5.467,6.196-11.298,8.018-18.223h30.978
				V2035.6z"/>
			<path fill="#58585B" d="M1810.244,1952.505c0-9.84-3.28-17.858-9.476-23.69c-6.196-5.831-14.578-8.747-25.147-8.747h-45.557
				v63.779h45.557c10.569,0,18.587-2.916,25.147-8.382C1807.329,1969.998,1810.244,1962.345,1810.244,1952.505 M1847.419,2096.829
				h-36.081l-42.641-86.011h-38.632v86.011h-30.979v-204.094h78.722c12.391,0,23.325,2.551,33.165,7.654
				c9.476,5.102,17.129,12.027,22.232,21.138c5.102,9.111,7.654,19.316,7.654,30.979c0,13.849-3.645,25.876-11.298,34.988
				c-7.289,9.476-17.129,15.672-29.156,18.952L1847.419,2096.829z"/>
			<path fill="#58585B" d="M1980.08,2029.405l-30.614-90.749l-31.707,90.749H1980.08z M2035.477,2096.829h-32.801l-13.849-41.183
				h-80.18l-13.849,41.183h-32.801l74.349-204.094h24.783L2035.477,2096.829z"/>
			<path fill="#58585B" d="M2194.015,2035.6c-1.822,10.205-4.738,18.952-9.111,26.97s-9.476,14.578-16.036,19.68
				c-6.196,5.467-13.485,9.112-21.503,12.027c-8.018,2.551-16.765,4.009-25.876,4.009c-6.925,0-13.849-0.729-20.045-2.551
				c-6.196-1.822-12.391-4.009-18.223-7.654c-5.831-3.28-10.934-7.289-15.307-11.662c-6.196-6.56-10.934-13.485-13.485-20.774
				c-2.916-7.289-4.374-15.307-5.102-24.054c-0.729-8.747-1.094-21.138-1.094-37.174c0-12.391,0-22.232,0.365-29.521
				c0.364-7.289,1.093-13.849,2.187-20.045c1.094-6.196,2.916-11.663,5.831-17.129c2.551-5.467,6.56-10.569,11.298-15.307
				c6.925-6.925,14.943-12.391,24.054-16.036s18.587-5.467,29.156-5.467c18.952,0,34.987,5.467,47.743,16.4
				c12.756,10.934,21.138,26.241,24.418,46.65h-31.343c-2.551-10.569-7.289-19.316-14.214-25.512
				c-6.925-6.196-16.036-9.476-26.605-9.476c-5.831,0-11.663,1.093-16.765,3.28c-5.103,2.187-9.476,5.102-13.12,9.111
				c-2.551,2.916-4.738,5.831-6.196,9.111c-1.458,2.916-2.551,6.925-3.645,12.027c-1.093,5.102-1.458,10.569-1.822,16.765
				c-0.364,6.196-0.364,14.943-0.364,25.876c0,10.934,0,19.316,0.364,25.512c0.365,6.196,1.094,12.027,1.822,16.765
				c1.094,5.102,2.187,9.111,3.645,12.027c1.458,2.916,3.645,6.196,6.196,9.111c3.645,4.009,8.018,6.925,13.12,9.112
				c5.103,2.187,10.934,3.28,16.765,3.28c7.289,0,13.849-1.458,19.316-4.374c5.467-2.916,10.205-6.925,13.849-12.391
				s6.196-11.298,8.018-18.223h31.708V2035.6z"/>
			<rect x="2226.816" y="1892.734" fill="#58585B" width="30.979" height="204.094"/>
			<path fill="#58585B" d="M2404.669,2029.405l-30.614-90.749l-31.707,90.749H2404.669z M2460.066,2096.829h-32.801l-13.849-41.183
				h-80.18l-13.849,41.183h-32.801l74.349-204.094h24.783L2460.066,2096.829z"/>
			<polygon fill="#58585B" points="929.723,2353.404 799.977,2353.404 799.977,2149.31 929.723,2149.31 929.723,2177.009 
				830.956,2177.009 830.956,2236.415 915.145,2236.415 915.145,2264.113 830.956,2264.113 830.956,2325.341 929.723,2325.341 			
				"/>
			<polygon fill="#58585B" points="1116.323,2353.404 1088.26,2353.404 994.596,2209.809 994.596,2353.404 963.617,2353.404 
				963.617,2149.31 992.045,2149.31 1085.709,2292.541 1085.709,2149.31 1116.323,2149.31 			"/>
			<path fill="#58585B" d="M1348.845,2209.081c0-9.84-3.28-17.858-9.476-23.69c-6.196-5.831-14.578-8.747-25.147-8.747h-45.557
				v64.144h45.557c10.205,0,18.587-2.916,25.147-8.383C1345.565,2226.574,1348.845,2218.921,1348.845,2209.081 M1385.655,2353.404
				h-35.716l-42.641-86.011h-38.268v86.011h-30.979V2149.31h78.722c12.391,0,23.325,2.551,33.165,7.654
				c9.476,5.103,17.129,12.027,22.232,21.138c5.102,9.111,7.654,19.316,7.654,30.979c0,13.849-3.645,25.876-11.298,34.988
				c-7.654,9.476-17.129,15.671-29.156,19.316L1385.655,2353.404z"/>
			<polygon fill="#58585B" points="1546.015,2353.404 1416.269,2353.404 1416.269,2149.31 1546.015,2149.31 1546.015,2177.009 
				1447.248,2177.009 1447.248,2236.415 1531.437,2236.415 1531.437,2264.113 1447.248,2264.113 1447.248,2325.341 
				1546.015,2325.341 			"/>
			<path fill="#58585B" d="M1693.619,2249.899c0-11.663-0.365-20.774-0.729-27.334c-0.365-6.56-1.458-12.391-2.916-17.858
				s-4.009-10.205-7.289-13.849c-8.382-9.111-19.681-13.849-34.623-13.849h-37.174v148.333h37.174
				c14.578,0,26.241-4.373,34.623-13.849c4.738-5.467,8.018-12.392,9.111-21.503
				C1692.89,2280.878,1693.619,2267.393,1693.619,2249.899 M1724.233,2249.899v10.205c0,10.934-0.365,20.774-1.093,28.792
				c-0.729,8.382-2.916,16.4-5.831,24.054c-2.916,8.018-7.654,14.943-13.485,21.138c-12.756,12.756-30.25,19.316-52.481,19.316
				h-71.433V2149.31h71.433c22.232,0,39.726,6.56,52.481,19.316c6.196,6.196,10.569,12.756,13.485,20.409
				c2.916,7.654,5.102,15.307,5.831,22.961c0.729,7.654,1.093,17.129,1.093,27.698V2249.899z"/>
		</g>
	</g>
	<g>
		<path fill="#F4CD45" d="M223.775,2057.103c0-14.943,8.747-29.885,21.503-37.174l55.397-32.072l-61.957-107.514l-100.225,57.948
			c-23.325,13.12-38.997,40.09-38.997,67.06v115.897h124.279L223.775,2057.103L223.775,2057.103z"/>
		<path fill="#53C1B4" d="M356.436,1955.785c12.756-7.289,29.885-7.289,43.006,0l55.397,32.072l61.957-107.514l-100.225-57.948
			c-23.325-13.485-54.304-13.485-77.629,0l-100.225,57.948l61.957,107.514L356.436,1955.785z"/>
		<path fill="#3CA2DA" d="M510.236,2019.929c12.756,7.289,21.503,22.232,21.503,37.174v64.144h124.279V2005.35
			c0-26.97-15.672-53.939-38.632-67.06l-100.225-57.948l-61.957,107.514L510.236,2019.929z"/>
		<path fill="#F27057" d="M245.278,2222.565c-12.756-7.289-21.503-22.232-21.503-37.174v-64.144H99.496v115.896
			c0,26.97,15.672,53.575,38.632,67.06l100.225,57.948l61.957-107.514L245.278,2222.565z"/>
		<path fill="#EA1B3B" d="M399.077,2286.345c-12.756,7.289-29.885,7.289-43.006,0l-55.397-32.072l-61.957,107.514l100.225,57.948
			c23.325,13.485,54.304,13.485,77.629,0l100.225-57.948l-61.957-107.514L399.077,2286.345z"/>
		<path fill="#77549E" d="M531.739,2121.247v64.144c0,14.943-8.747,29.885-21.503,37.174l-55.397,32.072l61.957,107.514
			l100.225-57.948c23.325-13.485,38.632-40.455,38.632-67.06v-115.896H531.739z"/>
	</g>
	<rect x="82.731" y="2113.958" fill="#FFFFFF" width="590.416" height="14.214"/>
	
		<rect x="82.592" y="2113.833" transform="matrix(-0.5004 0.8658 -0.8658 -0.5004 2403.1531 2855.155)" fill="#FFFFFF" width="590.419" height="14.214"/>
	
		<rect x="370.696" y="1826.045" transform="matrix(-0.8661 0.4998 -0.4998 -0.8661 1765.2627 3769.6831)" fill="#FFFFFF" width="14.213" height="590.395"/>
</g>
</svg>
