<?xml version="1.0" encoding="UTF-8" standalone="no"?>
<!-- Generator: Adobe Illustrator 17.0.0, SVG Export Plug-In . SVG Version: 6.00 Build 0)  -->

<svg
   xmlns:dc="http://purl.org/dc/elements/1.1/"
   xmlns:cc="http://creativecommons.org/ns#"
   xmlns:rdf="http://www.w3.org/1999/02/22-rdf-syntax-ns#"
   xmlns:svg="http://www.w3.org/2000/svg"
   xmlns="http://www.w3.org/2000/svg"
   xmlns:sodipodi="http://sodipodi.sourceforge.net/DTD/sodipodi-0.dtd"
   xmlns:inkscape="http://www.inkscape.org/namespaces/inkscape"
   version="1.1"
   x="0px"
   y="0px"
   width="3266"
   height="900"
   viewBox="0 0 3266 900"
   enable-background="new 0 0 900 900"
   xml:space="preserve"
   id="svg2"
   inkscape:version="0.91 r13725"
   sodipodi:docname="logo-v-circle-footer.svg"><metadata
     id="metadata42"><rdf:RDF><cc:Work
         rdf:about=""><dc:format>image/svg+xml</dc:format><dc:type
           rdf:resource="http://purl.org/dc/dcmitype/StillImage" /><dc:title></dc:title></cc:Work></rdf:RDF></metadata><defs
     id="defs40" /><sodipodi:namedview
     pagecolor="#ffffff"
     bordercolor="#666666"
     borderopacity="1"
     objecttolerance="10"
     gridtolerance="10"
     guidetolerance="10"
     inkscape:pageopacity="0"
     inkscape:pageshadow="2"
     inkscape:window-width="1600"
     inkscape:window-height="879"
     id="namedview38"
     showgrid="false"
     fit-margin-top="0"
     fit-margin-left="0"
     fit-margin-right="0"
     fit-margin-bottom="0"
     inkscape:zoom="0.26222222"
     inkscape:cx="1390.0424"
     inkscape:cy="140.94412"
     inkscape:window-x="0"
     inkscape:window-y="21"
     inkscape:window-maximized="1"
     inkscape:current-layer="svg2" /><g
     id="Layer_1"
     display="none"
     style="display:none"><g
       display="inline"
       id="g5"
       style="display:inline"><rect
         width="900.354"
         height="900"
         id="rect7"
         x="0"
         y="0"
         style="fill:#5d6fb0" /></g></g><g
     id="Layer_4"
     transform="translate(1183,0)"><circle
       cx="450"
       cy="450"
       r="450"
       id="circle10"
       style="fill:#ffffff" /></g><g
     id="Layer_6"
     transform="translate(1183,0)"><g
       id="g13"><path
         d="M 52.816,238.299 C 19.113,301.398 0,373.466 0,450 0,655.841 138.206,829.402 326.886,882.951 L 52.816,238.299 Z"
         id="path15"
         inkscape:connector-curvature="0"
         style="fill:#5d6fb0" /><path
         d="m 234.781,237.852 c -12.019,28.238 -18.68,59.307 -18.68,91.928 0,101.793 64.776,188.45 155.353,221.035 l 79.483,182.018 79.49,-182.008 C 621.014,518.25 685.801,431.58 685.801,329.78 c 0,-32.622 -6.665,-63.691 -18.69,-91.928 L 728.75,96.715 C 652.099,36.153 555.273,0 450,0 345.374,0 249.09,35.708 172.664,95.6 l 62.117,142.252 z m 216.161,-36.263 c 70.801,0 128.203,57.39 128.203,128.192 0,70.798 -57.401,128.191 -128.203,128.191 -70.787,0 -128.188,-57.393 -128.188,-128.191 0,-70.802 57.401,-128.192 128.188,-128.192 z"
         id="path17"
         inkscape:connector-curvature="0"
         style="fill:#5d6fb0" /><path
         d="M 575.273,882.324 C 762.846,828.067 900,655.054 900,450 900,374.264 881.29,302.899 848.241,240.273 L 575.273,882.324 Z"
         id="path19"
         inkscape:connector-curvature="0"
         style="fill:#5d6fb0" /></g></g><g
     id="Layer_2"
     display="none"
     style="display:none"><circle
       cx="450.354"
       cy="450"
       r="450"
       id="circle22"
       style="fill:#5d6fb0" /></g><g
     id="Layer_3"
     display="none"
     style="display:none"><g
       display="inline"
       id="g25"
       style="display:inline"><path
         d="m 449.996,343.944 c 40.236,0 72.857,32.615 72.857,72.851 0,40.234 -32.621,72.85 -72.857,72.85 -40.228,0 -72.849,-32.616 -72.849,-72.85 0,-40.236 32.621,-72.851 72.849,-72.851"
         id="path27"
         inkscape:connector-curvature="0"
         style="clip-rule:evenodd;fill:#ffffff;fill-rule:evenodd" /><path
         d="m 149,189 101.523,0.065 76.629,175.488 c -6.83,16.047 -10.616,33.704 -10.616,52.242 0,57.848 36.812,107.095 88.286,125.613 l 45.17,103.44 45.173,-103.434 c 51.48,-18.512 88.298,-67.766 88.298,-125.618 0,-18.539 -3.788,-36.195 -10.621,-52.242 L 649.483,189.066 751,189 495.06,791 404.937,791 149,189 Z"
         id="path29"
         inkscape:connector-curvature="0"
         style="fill:#ffffff" /></g></g><g
     id="Layer_5"
     display="none"
     style="display:none"><g
       display="inline"
       id="g32"
       style="display:inline"><path
         d="m 449.994,235.556 c 59.351,0 107.47,48.109 107.47,107.461 0,59.349 -48.119,107.46 -107.47,107.46 -59.339,0 -107.458,-48.112 -107.458,-107.46 0,-59.352 48.118,-107.461 107.458,-107.461"
         id="path34"
         inkscape:connector-curvature="0"
         style="clip-rule:evenodd;fill:#5d6fb0;fill-rule:evenodd" /><path
         d="M 6,7 155.755,7.096 268.79,265.955 c -10.075,23.671 -15.659,49.716 -15.659,77.062 0,85.331 54.301,157.974 130.23,185.289 l 66.629,152.582 66.635,-152.574 c 75.937,-27.307 130.247,-99.961 130.247,-185.297 0,-27.346 -5.587,-53.391 -15.667,-77.062 L 744.256,7.096 893.999,7 516.466,895 383.528,895 6,7 Z"
         id="path36"
         inkscape:connector-curvature="0"
         style="fill:#5d6fb0" /></g></g></svg>