<svg xmlns="http://www.w3.org/2000/svg" viewBox="0 0 1808.44 1080.94"><defs><style>.cls-1{fill:#c3005f;}.cls-2{fill:#5fb0bc;}.cls-3{fill:#7fb03e;}.cls-4{fill:#c10d19;}.cls-5{fill:#0070b6;}.cls-6{fill:#fff;}.cls-7{fill:#4b4b4a;}.cls-8{fill:#16a88e;}</style></defs><title>Recurso 1</title><g id="Capa_2" data-name="Capa 2"><g id="Capa_1-2" data-name="Capa 1"><path class="cls-1" d="M1570.91,971.18a109.76,109.76,0,0,1-109.75,109.76H827.44A109.76,109.76,0,0,1,717.69,971.18h0A109.76,109.76,0,0,1,827.44,861.42h633.72a109.75,109.75,0,0,1,109.75,109.76Z"/><path class="cls-2" d="M1447.52,41a41,41,0,0,1-41,41h-87.82a41,41,0,0,1-41-41h0a41,41,0,0,1,41-41h87.82a41,41,0,0,1,41,41Z"/><path class="cls-2" d="M1184.09,41a41,41,0,0,1-41,41h-4.88a41,41,0,0,1-41-41h0a41,41,0,0,1,41-41h4.88a41,41,0,0,1,41,41Z"/><path class="cls-2" d="M1371.15,41a41,41,0,0,1-41,41h-87.82a41,41,0,0,1-41-41h0a41,41,0,0,1,41-41h87.82a41,41,0,0,1,41,41Z"/><path class="cls-3" d="M1499.59,63.22a32.92,32.92,0,0,1-32.93,32.93h-70.55a32.92,32.92,0,0,1-32.92-32.93h0a32.92,32.92,0,0,1,32.92-32.92h70.55a32.93,32.93,0,0,1,32.93,32.92Z"/><path class="cls-4" d="M1743.51,260.53A159.47,159.47,0,0,1,1584,420H1242.3a159.47,159.47,0,0,1-159.47-159.48h0A159.48,159.48,0,0,1,1242.3,101.08H1584a159.48,159.48,0,0,1,159.48,159.45Z"/><path class="cls-4" d="M1170.69,207a50.53,50.53,0,0,1-50.53,50.52H1011.88A50.52,50.52,0,0,1,961.36,207h0a50.52,50.52,0,0,1,50.52-50.54h108.28A50.54,50.54,0,0,1,1170.69,207Z"/><path class="cls-3" d="M1003.35,770.25a159.47,159.47,0,0,1,159.49-159.48h341.71A159.45,159.45,0,0,1,1664,770.25h0A159.47,159.47,0,0,1,1504.55,929.7H1162.84a159.48,159.48,0,0,1-159.49-159.45Z"/><path class="cls-3" d="M911.63,674.8c0-119.6,96.95-216.49,216.49-216.49H1592c119.54,0,216.46,96.91,216.46,216.49h0c0,119.51-96.92,216.43-216.46,216.43H1128.12c-119.54,0-216.49-96.92-216.49-216.43Z"/><path class="cls-2" d="M619.59,461.78A135.32,135.32,0,0,1,754.9,326.49h289.94a135.31,135.31,0,0,1,135.3,135.31h0a135.32,135.32,0,0,1-135.3,135.33H754.9A135.34,135.34,0,0,1,619.59,461.78Z"/><path class="cls-3" d="M760.89,593.14A101.48,101.48,0,0,1,862.37,491.68h217.45a101.48,101.48,0,0,1,101.47,101.47h0a101.48,101.48,0,0,1-101.47,101.5H862.37A101.49,101.49,0,0,1,760.89,593.14Z"/><path class="cls-2" d="M1166.53,452.27A129.79,129.79,0,0,1,1296.32,322.5h278.12a129.79,129.79,0,0,1,129.78,129.78h0A129.79,129.79,0,0,1,1574.44,582.1H1296.32a129.81,129.81,0,0,1-129.79-129.83Z"/><rect class="cls-1" x="943.69" y="785.47" width="566.98" height="90.01"/><rect class="cls-3" x="943.69" y="500.45" width="566.98" height="60.01"/><rect class="cls-4" x="943.69" y="554.33" width="566.98" height="53.2"/><rect class="cls-5" x="943.69" y="606.05" width="566.98" height="99.75"/><rect class="cls-2" x="943.69" y="691.06" width="566.98" height="99.76"/><path class="cls-6" d="M831.1,213.44V984.06h810.42V213.44Zm395.32,376a13.57,13.57,0,0,1-13.54,13.6H1093.43v28.47h103.18a13.57,13.57,0,0,1,13.53,13.65v55.73a13.57,13.57,0,0,1-13.53,13.63H1093.43v103a13.49,13.49,0,0,1-13.5,13.51h-79.44A13.5,13.5,0,0,1,987,817.58V526.08a13.56,13.56,0,0,1,13.53-13.61h212.4a13.58,13.58,0,0,1,13.54,13.61Zm263.89-3.82a13.53,13.53,0,0,1-13.48,13.62H1354v32.27h107.47a13.59,13.59,0,0,1,13.49,13.65v55.73a13.59,13.59,0,0,1-13.49,13.63H1354V744.1h122.86a13.55,13.55,0,0,1,13.48,13.64v59.55a13.51,13.51,0,0,1-13.48,13.59h-214.3A13.47,13.47,0,0,1,1249,817.4V527.27a13.42,13.42,0,0,1,4.3-9.83v0s.13-.13.36-.33a13.55,13.55,0,0,1,3.6-2.24,26,26,0,0,1,8.82-2.22,11.26,11.26,0,0,1,1.88-.15h208.83a13.53,13.53,0,0,1,13.48,13.61Z"/><path class="cls-7" d="M1057.18,428.94a34.77,34.77,0,0,0-8.94-6,88.73,88.73,0,0,0-9.68-3.94c-3.19-1.11-6.33-2.15-9.39-3.11a53.17,53.17,0,0,1-7.64-3.07,14.76,14.76,0,0,1-4.69-3.57,6.45,6.45,0,0,1-1.36-4.3,11.4,11.4,0,0,1,.79-4.29,8.18,8.18,0,0,1,2.32-3.1,11.8,11.8,0,0,1,4.2-2.21,24.76,24.76,0,0,1,13.45.13,34.23,34.23,0,0,1,5.51,2.39q2.51,1.41,4.35,2.55c3.59,2.22,7,2.1,9.61.48a9,9,0,0,0,3.14-3.65l5-9.67a3.37,3.37,0,0,0-.67-4,44.55,44.55,0,0,0-15.14-9.24c-11-4.1-25.4-4.45-35.67-.35a38.11,38.11,0,0,0-12.37,7.78A33.63,33.63,0,0,0,989.54,406,35.81,35.81,0,0,0,992,420a28.68,28.68,0,0,0,6.52,9.69,33.83,33.83,0,0,0,9,6.17,88.11,88.11,0,0,0,9.69,3.82c3.18,1,6.33,2,9.38,2.84a39.81,39.81,0,0,1,7.49,2.89,14.28,14.28,0,0,1,4.67,3.72,7.7,7.7,0,0,1,1.45,5c0,4.2-1.19,7.25-3.65,9.37s-6.35,3.33-11.31,3.33a24.31,24.31,0,0,1-8.57-1.34,38.32,38.32,0,0,1-6.49-3.16c-1.93-1.24-3.64-2.35-5-3.37-3.7-2.61-7.48-2.77-10.47-1a11.44,11.44,0,0,0-3.12,2.91l-5.95,9.83a3.36,3.36,0,0,0,.48,4.08,47.43,47.43,0,0,0,7.82,6.4,54.34,54.34,0,0,0,9.35,4.87,58.47,58.47,0,0,0,10.36,3.12,57.11,57.11,0,0,0,11,1.09,47.62,47.62,0,0,0,17.42-3,38.27,38.27,0,0,0,13.11-8.34,35.76,35.76,0,0,0,8.24-12.51,41.72,41.72,0,0,0,2.78-15.19,32,32,0,0,0-2.45-13A28.58,28.58,0,0,0,1057.18,428.94Z"/><path class="cls-7" d="M1140.73,374.39a3.29,3.29,0,0,0-3.11-2.14h-20.92a3.43,3.43,0,0,0-3.18,2.14l-43.18,110a3.38,3.38,0,0,0,3.1,4.6h15.92a9.89,9.89,0,0,0,6.49-2.17,10.75,10.75,0,0,0,3.45-4.66l7.42-20.25h40.81L1155,482.2a11.2,11.2,0,0,0,3.57,4.76,10.19,10.19,0,0,0,6.43,2h15.94a3.36,3.36,0,0,0,2.72-5.39Zm-26.28,66.31,11.68-31.81c.33-.87.7-1.82,1-2.84.36.94.66,1.81,1,2.62l11.74,32Z"/><path class="cls-7" d="M1288.65,372.25h-18a3.37,3.37,0,0,0-3.38,3.39V442l-51.19-65.21a20.33,20.33,0,0,0-1.85-2.09,10,10,0,0,0-2.3-1.59,8.41,8.41,0,0,0-2.6-.73,19.53,19.53,0,0,0-2.71-.16h-10.75a3.38,3.38,0,0,0-3.38,3.39v110a3.36,3.36,0,0,0,3.38,3.36h18a3.35,3.35,0,0,0,3.36-3.36V419.21l51,65a12.36,12.36,0,0,0,4.35,3.74,12.5,12.5,0,0,0,5.46,1.08h10.58a3.38,3.38,0,0,0,3.4-3.36v-110A3.4,3.4,0,0,0,1288.65,372.25Z"/><path class="cls-7" d="M1394.79,392.44V375.63a3.36,3.36,0,0,0-3.33-3.39h-86.82a3.39,3.39,0,0,0-3.4,3.39v16.81a3.38,3.38,0,0,0,3.4,3.37h29.86v89.81a3.36,3.36,0,0,0,3.4,3.36h20.45a3.37,3.37,0,0,0,3.38-3.36V395.81h29.73A3.35,3.35,0,0,0,1394.79,392.44Z"/><path class="cls-7" d="M1490,483.59l-42.88-109.2a3.35,3.35,0,0,0-3.13-2.14H1423.1a3.37,3.37,0,0,0-3.16,2.14l-43.2,110a3.42,3.42,0,0,0,.36,3.14,3.36,3.36,0,0,0,2.81,1.46h15.86a10.13,10.13,0,0,0,6.53-2.17,10.7,10.7,0,0,0,3.44-4.66l7.4-20.25H1454l7.42,20.29A10.94,10.94,0,0,0,1465,487a10.19,10.19,0,0,0,6.46,2h16a3.37,3.37,0,0,0,3.36-3.36A3.29,3.29,0,0,0,1490,483.59Zm-69.19-42.89,11.7-31.81c.36-.87.69-1.82,1-2.84.34.94.64,1.81.94,2.62l11.71,32Z"/><rect class="cls-8" y="216" width="768.02" height="768"/><path class="cls-6" d="M198.19,454c-9.25,0-16-2.8-23.92-10l-5.08-4.6-14.36,17,4.81,4.31c11.23,10,23.75,14.92,38.19,14.92,20.54,0,34.87-12.4,34.87-30.15,0-8.29-3-15-8.89-20.08-5.19-4.42-12.58-7.57-23.3-9.91-17.2-3.68-17.2-6.73-17.2-9.7,0-4,4.51-6.83,11-6.83,7.15,0,13.39,2.36,19.68,7.47l5.32,4.36,13.45-17.85-5-4c-10-8-20.27-11.63-33.23-11.63-9.14,0-17.59,2.81-23.74,7.91a27.45,27.45,0,0,0-10.05,21.41c0,20.53,16.65,26.93,33,30.48C210,440.5,210,443.52,210,446.43c0,5.57-6.35,7.54-11.79,7.54"/><polygon class="cls-6" points="183.71 647.69 206.42 647.69 206.42 573.62 234.19 573.62 234.19 551.71 155.93 551.71 155.93 573.62 183.71 573.62 183.71 647.69"/><polygon class="cls-6" points="187.82 724.97 165.22 724.97 165.22 820.93 234.35 820.93 234.35 799.04 187.82 799.04 187.82 724.97"/><polygon class="cls-6" points="616.54 378.46 616.54 432.22 574.28 378.46 555.68 378.46 555.68 474.44 578.04 474.44 578.04 419.13 621.61 474.44 638.89 474.44 638.89 378.46 616.54 378.46"/><path class="cls-6" d="M626,770.31a26.1,26.1,0,0,0,6.64-18c0-16.34-13.49-27.31-33.57-27.31H557.26v96h43.41c22.22,0,36.63-11.51,36.63-29.31A24.66,24.66,0,0,0,626,770.31m-27.77-23.68c4.21,0,7.61.82,9.59,2.32a5.29,5.29,0,0,1,2.14,4.62c0,3.44-1.53,5-2.66,5.79-2.12,1.59-5.61,2.46-9.78,2.46H579.74v-15.2Zm-18.53,36.74h19.5c7.21,0,10.93,1.43,12.75,2.65a5.35,5.35,0,0,1,2.59,5c0,7.2-8.58,8.26-13.68,8.26H579.74Z"/><path class="cls-6" d="M374.29,452.58H410.7l9.68,21.86H445l-43.7-96.56H384l-43.67,96.56h24.13Zm9.6-21.66,8.67-19.28,8.58,19.28Z"/><polygon class="cls-6" points="384.03 551.13 340.35 647.69 364.48 647.69 376.05 621.92 379.73 613.49 392.56 584.88 405.29 613.48 408.97 621.89 420.4 647.69 445.04 647.69 401.33 551.13 384.03 551.13"/><polygon class="cls-6" points="384.02 724.38 357.37 783.29 381.27 783.29 392.56 758.13 403.77 783.29 427.99 783.29 401.33 724.38 384.02 724.38"/></g></g></svg>