<?xml version="1.0" encoding="UTF-8" standalone="no"?>
<!-- Created with Inkscape (http://www.inkscape.org/) -->

<svg
   xmlns:dc="http://purl.org/dc/elements/1.1/"
   xmlns:cc="http://creativecommons.org/ns#"
   xmlns:rdf="http://www.w3.org/1999/02/22-rdf-syntax-ns#"
   xmlns:svg="http://www.w3.org/2000/svg"
   xmlns="http://www.w3.org/2000/svg"
   xmlns:sodipodi="http://sodipodi.sourceforge.net/DTD/sodipodi-0.dtd"
   xmlns:inkscape="http://www.inkscape.org/namespaces/inkscape"
   id="svg2"
   version="1.1"
   inkscape:version="0.91 r13725"
   xml:space="preserve"
   width="106.46437"
   height="106.464"
   viewBox="0 0 106.46437 106.46399"
   sodipodi:docname="logo-v-white.svg"><metadata
     id="metadata8"><rdf:RDF><cc:Work
         rdf:about=""><dc:format>image/svg+xml</dc:format><dc:type
           rdf:resource="http://purl.org/dc/dcmitype/StillImage" /><dc:title></dc:title></cc:Work></rdf:RDF></metadata><defs
     id="defs6" /><sodipodi:namedview
     pagecolor="#ffffff"
     bordercolor="#666666"
     borderopacity="1"
     objecttolerance="10"
     gridtolerance="10"
     guidetolerance="10"
     inkscape:pageopacity="0"
     inkscape:pageshadow="2"
     inkscape:window-width="1600"
     inkscape:window-height="879"
     id="namedview4"
     showgrid="false"
     inkscape:zoom="0.74320345"
     inkscape:cx="-9.6930679"
     inkscape:cy="126.68889"
     inkscape:window-x="0"
     inkscape:window-y="21"
     inkscape:window-maximized="1"
     inkscape:current-layer="layer3"
     fit-margin-top="0"
     fit-margin-left="0"
     fit-margin-right="0"
     fit-margin-bottom="0" /><g
     inkscape:groupmode="layer"
     id="layer3"
     inkscape:label="virtuágora final 1"
     transform="translate(-386.23713,-447.74117)"
     style="display:inline"><path
       d="m 386.23713,447.74117 17.95425,0.0113 13.55287,31.03475 c -1.20825,2.8375 -1.87762,5.96025 -1.87762,9.23887 0,10.2305 6.5105,18.94 15.61325,22.21475 l 7.98837,18.293 7.98875,-18.29238 c 9.10375,-3.27399 15.615,-11.98412 15.615,-22.21537 0,-3.279 -0.669,-6.40138 -1.87762,-9.23925 l 13.5535,-31.03437 17.95362,-0.0113 -45.26325,106.464 -15.93862,0 -45.2625,-106.464 z"
       style="fill:#ffffff;fill-opacity:1;fill-rule:nonzero;stroke:none"
       id="path118"
       inkscape:connector-curvature="0" /><path
       d="m 439.86725,476.25143 c 7.05075,0 12.76725,5.716 12.76725,12.76687 0,7.05075 -5.7165,12.76725 -12.76725,12.76725 -7.05088,0 -12.76688,-5.7165 -12.76688,-12.76725 0,-7.05087 5.716,-12.76687 12.76688,-12.76687"
       style="fill:#ffffff;fill-opacity:1;fill-rule:evenodd;stroke:none"
       id="path120"
       inkscape:connector-curvature="0" /></g></svg>