<?xml version="1.0" encoding="utf-8"?>
<!-- Generator: Adobe Illustrator 17.0.0, SVG Export Plug-In . SVG Version: 6.00 Build 0)  -->
<!DOCTYPE svg PUBLIC "-//W3C//DTD SVG 1.1//EN" "http://www.w3.org/Graphics/SVG/1.1/DTD/svg11.dtd">
<svg version="1.1" xmlns="http://www.w3.org/2000/svg" xmlns:xlink="http://www.w3.org/1999/xlink" x="0px" y="0px" width="900px"
	 height="900px" viewBox="0 0 900 900" enable-background="new 0 0 900 900" xml:space="preserve">
<g id="Layer_1" display="none">
	<g display="inline">
		<rect fill="#5D6FB0" width="900.354" height="900"/>
	</g>
</g>
<g id="Layer_4">
	<circle fill="#FFFFFF" cx="450" cy="450" r="450"/>
</g>
<g id="Layer_6">
	<g>
		<path fill="#5D6FB0" d="M52.816,238.299C19.113,301.398,0,373.466,0,450c0,205.841,138.206,379.402,326.886,432.951
			L52.816,238.299z"/>
		<path fill="#5D6FB0" d="M234.781,237.852c-12.019,28.238-18.68,59.307-18.68,91.928c0,101.793,64.776,188.45,155.353,221.035
			l79.483,182.018l79.49-182.008C621.014,518.25,685.801,431.58,685.801,329.78c0-32.622-6.665-63.691-18.69-91.928L728.75,96.715
			C652.099,36.153,555.273,0,450,0C345.374,0,249.09,35.708,172.664,95.6L234.781,237.852z M450.942,201.589
			c70.801,0,128.203,57.39,128.203,128.192c0,70.798-57.401,128.191-128.203,128.191c-70.787,0-128.188-57.393-128.188-128.191
			C322.754,258.979,380.155,201.589,450.942,201.589z"/>
		<path fill="#5D6FB0" d="M575.273,882.324C762.846,828.067,900,655.054,900,450c0-75.736-18.71-147.101-51.759-209.727
			L575.273,882.324z"/>
	</g>
</g>
<g id="Layer_2" display="none">
	<circle fill="#5D6FB0" cx="450.354" cy="450" r="450"/>
</g>
<g id="Layer_3" display="none">
	<g display="inline">
		<path fill-rule="evenodd" clip-rule="evenodd" fill="#FFFFFF" d="M449.996,343.944c40.236,0,72.857,32.615,72.857,72.851
			c0,40.234-32.621,72.85-72.857,72.85c-40.228,0-72.849-32.616-72.849-72.85C377.147,376.559,409.768,343.944,449.996,343.944"/>
		<path fill="#FFFFFF" d="M149,189l101.523,0.065l76.629,175.488c-6.83,16.047-10.616,33.704-10.616,52.242
			c0,57.848,36.812,107.095,88.286,125.613l45.17,103.44l45.173-103.434c51.48-18.512,88.298-67.766,88.298-125.618
			c0-18.539-3.788-36.195-10.621-52.242l76.641-175.488L751,189L495.06,791h-90.123L149,189z"/>
	</g>
</g>
<g id="Layer_5" display="none">
	<g display="inline">
		<path fill-rule="evenodd" clip-rule="evenodd" fill="#5D6FB0" d="M449.994,235.556c59.351,0,107.47,48.109,107.47,107.461
			c0,59.349-48.119,107.46-107.47,107.46c-59.339,0-107.458-48.112-107.458-107.46C342.536,283.665,390.654,235.556,449.994,235.556
			"/>
		<path fill="#5D6FB0" d="M6,7l149.755,0.096L268.79,265.955c-10.075,23.671-15.659,49.716-15.659,77.062
			c0,85.331,54.301,157.974,130.23,185.289l66.629,152.582l66.635-152.574c75.937-27.307,130.247-99.961,130.247-185.297
			c0-27.346-5.587-53.391-15.667-77.062L744.256,7.096L893.999,7L516.466,895H383.528L6,7z"/>
	</g>
</g>
</svg>
