<?xml version="1.0" encoding="UTF-8" standalone="no"?>
<!-- Generator: Adobe Illustrator 17.0.0, SVG Export Plug-In . SVG Version: 6.00 Build 0)  -->

<svg
   xmlns:dc="http://purl.org/dc/elements/1.1/"
   xmlns:cc="http://creativecommons.org/ns#"
   xmlns:rdf="http://www.w3.org/1999/02/22-rdf-syntax-ns#"
   xmlns:svg="http://www.w3.org/2000/svg"
   xmlns="http://www.w3.org/2000/svg"
   xmlns:sodipodi="http://sodipodi.sourceforge.net/DTD/sodipodi-0.dtd"
   xmlns:inkscape="http://www.inkscape.org/namespaces/inkscape"
   version="1.1"
   x="0px"
   y="0px"
   width="3266"
   height="900"
   viewBox="0 0 3266 900"
   enable-background="new 0 0 900 900"
   xml:space="preserve"
   id="svg2"
   inkscape:version="0.92.3 (2405546, 2018-03-11)"
   sodipodi:docname="logo-sl-footer.svg"><metadata
     id="metadata42"><rdf:RDF><cc:Work
         rdf:about=""><dc:format>image/svg+xml</dc:format><dc:type
           rdf:resource="http://purl.org/dc/dcmitype/StillImage" /><dc:title></dc:title></cc:Work></rdf:RDF></metadata><defs
     id="defs40" /><sodipodi:namedview
     pagecolor="#ffffff"
     bordercolor="#666666"
     borderopacity="1"
     objecttolerance="10"
     gridtolerance="10"
     guidetolerance="10"
     inkscape:pageopacity="0"
     inkscape:pageshadow="2"
     inkscape:window-width="1920"
     inkscape:window-height="1052"
     id="namedview38"
     showgrid="false"
     fit-margin-top="0"
     fit-margin-left="0"
     fit-margin-right="0"
     fit-margin-bottom="0"
     inkscape:zoom="0.26222222"
     inkscape:cx="768.43223"
     inkscape:cy="140.94412"
     inkscape:window-x="0"
     inkscape:window-y="0"
     inkscape:window-maximized="1"
     inkscape:current-layer="svg2" /><g
     id="Layer_1"
     display="none"
     style="display:none"><g
       display="inline"
       id="g5"
       style="display:inline"><rect
         width="900.354"
         height="900"
         id="rect7"
         x="0"
         y="0"
         style="fill:#5d6fb0" /></g></g><g
     id="Layer_4"
     transform="translate(1183,0)"><circle
       cx="450"
       cy="450"
       r="450"
       id="circle10"
       style="fill:#ffffff" /></g><g
     id="Layer_2"
     display="none"
     style="display:none"><circle
       cx="450.354"
       cy="450"
       r="450"
       id="circle22"
       style="fill:#5d6fb0" /></g><g
     id="Layer_3"
     display="none"
     style="display:none"><g
       display="inline"
       id="g25"
       style="display:inline"><path
         d="m 449.996,343.944 c 40.236,0 72.857,32.615 72.857,72.851 0,40.234 -32.621,72.85 -72.857,72.85 -40.228,0 -72.849,-32.616 -72.849,-72.85 0,-40.236 32.621,-72.851 72.849,-72.851"
         id="path27"
         inkscape:connector-curvature="0"
         style="clip-rule:evenodd;fill:#ffffff;fill-rule:evenodd" /><path
         d="m 149,189 101.523,0.065 76.629,175.488 c -6.83,16.047 -10.616,33.704 -10.616,52.242 0,57.848 36.812,107.095 88.286,125.613 l 45.17,103.44 45.173,-103.434 c 51.48,-18.512 88.298,-67.766 88.298,-125.618 0,-18.539 -3.788,-36.195 -10.621,-52.242 L 649.483,189.066 751,189 495.06,791 404.937,791 149,189 Z"
         id="path29"
         inkscape:connector-curvature="0"
         style="fill:#ffffff" /></g></g><g
     id="Layer_5"
     display="none"
     style="display:none"><g
       display="inline"
       id="g32"
       style="display:inline"><path
         d="m 449.994,235.556 c 59.351,0 107.47,48.109 107.47,107.461 0,59.349 -48.119,107.46 -107.47,107.46 -59.339,0 -107.458,-48.112 -107.458,-107.46 0,-59.352 48.118,-107.461 107.458,-107.461"
         id="path34"
         inkscape:connector-curvature="0"
         style="clip-rule:evenodd;fill:#5d6fb0;fill-rule:evenodd" /><path
         d="M 6,7 155.755,7.096 268.79,265.955 c -10.075,23.671 -15.659,49.716 -15.659,77.062 0,85.331 54.301,157.974 130.23,185.289 l 66.629,152.582 66.635,-152.574 c 75.937,-27.307 130.247,-99.961 130.247,-185.297 0,-27.346 -5.587,-53.391 -15.667,-77.062 L 744.256,7.096 893.999,7 516.466,895 383.528,895 6,7 Z"
         id="path36"
         inkscape:connector-curvature="0"
         style="fill:#5d6fb0" /></g></g><path
     inkscape:connector-curvature="0"
     style="fill:#007199;stroke-width:1.68320131"
     id="XMLID_209_"
     d="M 1594.0462,423.4309 H 1285.209 c -46.4799,0 -84.1601,-37.68015 -84.1601,-84.16007 V 114.59375 c 0,-46.47992 37.6802,-84.16007 84.1601,-84.16007 h 224.677 c 46.48,0 84.1602,37.68015 84.1602,84.16007 z" /><path
     inkscape:connector-curvature="0"
     style="fill:#e30613;stroke-width:1.68320131"
     id="XMLID_208_"
     d="M 1968.6543,423.4309 H 1659.8088 V 114.59375 c 0,-46.47992 37.6801,-84.16007 84.16,-84.16007 h 224.6855 c 46.4799,0 84.1601,37.68015 84.1601,84.16007 v 224.67708 c 0,46.47992 -37.6802,84.16007 -84.1601,84.16007 z" /><path
     inkscape:connector-curvature="0"
     style="fill:#f39200;stroke-width:1.68320131"
     id="XMLID_207_"
     d="m 1509.886,876.951 h -224.677 c -46.4799,0 -84.1601,-37.68006 -84.1601,-84.16003 V 568.11213 c 0,-46.47987 37.6802,-84.16012 84.1601,-84.16012 h 308.8372 v 308.83896 c 0,46.47997 -37.6802,84.16003 -84.1602,84.16003 z" /><path
     inkscape:connector-curvature="0"
     style="fill:#afca0b;stroke-width:1.68320131"
     id="XMLID_206_"
     d="m 1968.6543,876.951 h -224.6855 c -46.4799,0 -84.16,-37.68006 -84.16,-84.16003 V 483.95201 h 308.8455 c 46.4799,0 84.1601,37.68025 84.1601,84.16012 v 224.67884 c 0,46.47997 -37.6802,84.16003 -84.1601,84.16003 z" /><g
     transform="matrix(1.6832012,0,0,1.6832012,1128.0215,-8.954905)"
     style="opacity:0.31000001"
     id="XMLID_202_"><polygon
       id="XMLID_205_"
       points="210.051,215.985 119.769,215.985 104.2,183.289 225.624,183.289 " /><path
       inkscape:connector-curvature="0"
       id="XMLID_204_"
       d="m 148.853,152.374 c 14.608,0 27.82,7.195 37.358,18.803 V 67.55 c -1.534,-0.132 -3.077,-0.223 -4.637,-0.223 -35.284,0 -63.884,34.405 -63.884,76.846 0,6.518 0.681,12.846 1.951,18.894 8.358,-6.75 18.403,-10.693 29.212,-10.693 z" /><rect
       id="XMLID_203_"
       x="189.243"
       y="67.327003"
       width="5.355"
       height="113.28" /></g><path
     inkscape:connector-curvature="0"
     style="opacity:0.31000001;stroke-width:1.68320131"
     id="XMLID_199_"
     d="m 2006.5128,293.68132 c -34.3929,-10.05377 -58.8413,-35.64853 -58.8413,-65.64486 0,-11.02665 3.3125,-21.45576 9.2003,-30.74703 l -1.0418,-0.63794 c -19.6296,-1.31963 -36.5709,-12.35974 -46.0221,-28.34511 0,0 -6.0342,-12.95559 -6.7833,-17.46994 -0.1885,-0.88873 -0.3484,-1.79261 -0.4932,-2.69313 -5.0142,-25.34563 -20.1984,-43.77333 -38.1699,-43.77333 -17.9698,0 -33.149,18.4277 -38.1633,43.77333 -0.1447,0.90221 -0.3063,1.8044 -0.4931,2.69313 -0.7491,4.51435 -6.7833,17.46994 -6.7833,17.46994 -9.4512,15.98369 -26.3943,27.02548 -46.0289,28.34511 l -1.0351,0.63794 c 5.8896,9.28959 9.2003,19.72038 9.2003,30.74703 0,30.01149 -24.4551,55.59109 -58.8413,65.64486 l -1.2018,1.0419 v 59.8681 h 286.698 v -59.8681 z m -114.6528,5.26336 h -54.9869 v -83.80995 c 0,-15.19258 12.3109,-27.49678 27.4901,-27.49678 v 0 c 15.1858,0 27.4968,12.3042 27.4968,27.49678 z" /><g
     transform="matrix(1.6832012,0,0,1.6832012,1128.0215,-8.954905)"
     style="opacity:0.31000001"
     id="XMLID_195_"><path
       inkscape:connector-curvature="0"
       id="XMLID_198_"
       d="m 151.456,351.996 c 0,10.692 5.322,20.14 13.456,25.848 8.131,-5.709 13.453,-15.156 13.453,-25.848 0,-10.693 -5.322,-20.14 -13.453,-25.849 -8.135,5.709 -13.456,15.156 -13.456,25.849 z" /><path
       inkscape:connector-curvature="0"
       id="XMLID_197_"
       d="m 193.257,378.356 c -10.977,0.973 -21.319,7.095 -27.243,17.359 -0.396,0.684 -0.759,1.37 -1.102,2.062 -0.342,-0.693 -0.709,-1.378 -1.101,-2.062 -5.928,-10.264 -16.27,-16.386 -27.243,-17.359 -4.642,9.991 -4.513,22.012 1.411,32.276 5.808,10.057 15.861,16.13 26.591,17.293 0.013,0.016 0.021,0.041 0.033,0.066 0.103,-0.008 0.206,-0.025 0.309,-0.033 0.104,0.008 0.207,0.025 0.31,0.033 0.012,-0.025 0.02,-0.05 0.029,-0.066 10.73,-1.163 20.783,-7.236 26.591,-17.293 5.928,-10.264 6.055,-22.284 1.415,-32.276 z" /><path
       inkscape:connector-curvature="0"
       id="XMLID_196_"
       d="m 204.069,427.48 c -15.16,1.345 -29.45,9.794 -37.635,23.976 -0.544,0.941 -1.052,1.89 -1.522,2.855 -0.474,-0.965 -0.977,-1.914 -1.522,-2.855 -8.189,-14.183 -22.475,-22.631 -37.635,-23.976 -6.415,13.795 -6.238,30.395 1.951,44.578 8.024,13.902 21.91,22.293 36.736,23.893 0.012,0.025 0.025,0.058 0.041,0.091 0.14,-0.017 0.285,-0.033 0.428,-0.05 0.144,0.017 0.285,0.033 0.429,0.05 0.013,-0.033 0.029,-0.066 0.041,-0.091 14.822,-1.6 28.708,-9.991 36.736,-23.893 8.19,-14.183 8.363,-30.783 1.952,-44.578 z" /></g><path
     inkscape:connector-curvature="0"
     style="opacity:0.31000001;stroke-width:1.68320131"
     id="XMLID_191_"
     d="m 1980.7093,644.17099 c 0,-22.58006 -21.1359,-42.42514 -53.0848,-53.89601 -4.5059,-28.16349 -31.2334,-49.8144 -63.6165,-49.8144 -32.3916,0 -59.1106,21.65091 -63.625,49.8144 -31.9404,11.47087 -53.0764,31.31595 -53.0764,53.89601 0,20.90038 18.1231,39.46779 46.1735,51.21647 l 57.9662,69.82418 v 61.21473 h 25.1218 v -61.21473 l 57.9659,-69.82418 c 28.054,-11.74868 46.1753,-30.31609 46.1753,-51.21647 z m -158.2595,60.07684 c 9.1734,1.9306 18.8872,3.23674 28.9965,3.83442 v 31.09368 z m 54.1199,34.92642 v -31.09377 c 10.1094,-0.5975 19.8231,-1.90205 28.9897,-3.83433 z" /><polygon
     transform="matrix(1.6832012,0,0,1.6832012,1128.0215,-8.954905)"
     style="fill:#ffffff"
     id="XMLID_190_"
     points="205.27,214.476 114.984,214.476 99.415,181.779 220.839,181.779 " /><path
     inkscape:connector-curvature="0"
     style="fill:#ffffff;stroke-width:1.68320131"
     id="XMLID_163_"
     d="m 1370.522,244.97957 c 24.5815,0 46.8284,12.11063 62.8743,31.64923 V 102.2037 c -2.582,-0.22218 -5.1791,-0.37535 -7.8049,-0.37535 -59.3901,0 -107.5297,57.91054 -107.5297,129.33214 0,10.98625 1.1463,21.63587 3.2907,31.81587 14.0699,-11.35825 30.9709,-17.99679 49.1696,-17.99679 z" /><rect
     style="fill:#ffffff;stroke-width:1.68320131"
     id="XMLID_129_"
     x="1438.4996"
     y="101.82829"
     width="9.0135431"
     height="190.67303" /><path
     inkscape:connector-curvature="0"
     style="fill:#ffffff;stroke-width:1.68320131"
     id="XMLID_126_"
     d="m 1998.4587,291.14136 c -34.3861,-10.05376 -58.8414,-35.64852 -58.8414,-65.64485 0,-11.04012 3.3126,-21.47091 9.2004,-30.76051 l -1.0352,-0.62445 c -19.6362,-1.31963 -36.5793,-12.35975 -46.0287,-28.34512 0,0 -6.0343,-12.95559 -6.785,-17.46993 -0.1868,-0.88874 -0.3467,-1.79263 -0.4915,-2.69482 -5.0143,-25.34396 -20.1916,-43.77333 -38.1632,-43.77333 -17.9782,0 -33.1574,18.42768 -38.17,43.77333 -0.1464,0.90219 -0.3063,1.80608 -0.4932,2.69482 -0.7489,4.51434 -6.7831,17.46993 -6.7831,17.46993 -9.4513,15.98368 -26.3945,27.02549 -46.0222,28.34512 l -1.042,0.62445 c 5.8896,9.2896 9.2005,19.72039 9.2005,30.76051 0,29.99633 -24.4502,55.59109 -58.8414,65.64485 l -1.2017,1.02844 v 59.88157 h 286.6978 V 292.1698 Z m -114.6529,5.26169 h -54.9868 v -83.82342 c 0,-15.17911 12.311,-27.49679 27.4968,-27.49679 v 0 c 15.1791,0 27.49,12.31768 27.49,27.49679 z" /><path
     inkscape:connector-curvature="0"
     style="fill:#ffffff;stroke-width:1.68320131"
     id="XMLID_125_"
     d="m 1374.9051,580.98358 c 0,17.99855 8.9563,33.89808 22.6424,43.5075 13.6929,-9.6111 22.6442,-25.51063 22.6442,-43.5075 0,-17.99847 -8.9513,-33.89967 -22.6442,-43.509 -13.6878,9.61101 -22.6424,25.51053 -22.6424,43.509 z" /><path
     inkscape:connector-curvature="0"
     style="fill:#ffffff;stroke-width:1.68320131"
     id="XMLID_124_"
     d="m 1445.2562,625.35443 c -18.4698,1.63778 -35.8842,11.9424 -45.8555,29.21879 -0.6598,1.13779 -1.2775,2.30601 -1.8549,3.47077 -0.5756,-1.16644 -1.1934,-2.33298 -1.8532,-3.47077 -9.9779,-17.27639 -27.3856,-27.58101 -45.8554,-29.21879 -7.8134,16.81691 -7.5964,37.03721 2.3749,54.3136 9.7828,16.94316 26.6974,27.16352 44.7581,29.10765 0.022,0.0401 0.035,0.083 0.056,0.11104 0.1733,-0.0168 0.3467,-0.0289 0.5201,-0.056 0.1734,0.0271 0.3484,0.042 0.5218,0.056 0.021,-0.0289 0.034,-0.069 0.056,-0.11104 18.0607,-1.94413 34.9735,-12.16626 44.758,-29.10765 9.9729,-17.27639 10.1867,-37.49669 2.375,-54.3136 z" /><path
     inkscape:connector-curvature="0"
     style="fill:#ffffff;stroke-width:1.68320131"
     id="XMLID_123_"
     d="m 1463.4566,708.02496 c -25.5173,2.27736 -49.5702,16.49879 -63.3472,40.37155 -0.9157,1.58225 -1.764,3.17962 -2.5619,4.80555 -0.7978,-1.62593 -1.6445,-3.22171 -2.5618,-4.80555 -13.777,-23.87276 -37.83,-38.09251 -63.3473,-40.37155 -10.791,23.23317 -10.4998,51.17596 3.2839,75.04713 13.506,23.39993 36.8857,37.52375 61.8341,40.2033 0.02,0.056 0.042,0.11114 0.069,0.16844 0.2425,-0.0289 0.4798,-0.0569 0.7205,-0.0849 0.2424,0.0271 0.4797,0.056 0.7221,0.0849 0.022,-0.0569 0.048,-0.11282 0.069,-0.16844 24.9484,-2.67955 48.3281,-16.80337 61.8324,-40.2033 13.7854,-23.87275 14.0783,-51.81396 3.2873,-75.04713 z" /><path
     inkscape:connector-curvature="0"
     style="fill:#ffffff;stroke-width:1.68320131"
     id="XMLID_119_"
     d="m 1972.6553,641.61592 c 0,-22.56671 -21.136,-42.4116 -53.0765,-53.88266 -4.5143,-28.1633 -31.2401,-49.82784 -63.6248,-49.82784 -32.3866,0 -59.1108,21.66454 -63.6251,49.82784 -31.9405,11.47106 -53.0781,31.31595 -53.0781,53.88266 0,20.91373 18.1247,39.48291 46.1753,51.23159 l 57.966,69.82427 v 61.20111 h 25.1219 v -61.20111 l 57.966,-69.82427 c 28.0521,-11.75045 46.1753,-30.31786 46.1753,-51.23159 z m -158.2597,60.09029 c 9.1718,1.93069 18.8872,3.23505 28.9965,3.83264 v 31.09545 z m 54.12,34.92641 v -31.09545 c 10.1093,-0.59759 19.8231,-1.90204 28.9965,-3.83264 z" /></svg>