<?xml version="1.0" encoding="UTF-8" standalone="no"?>
<!-- Generator: Adobe Illustrator 17.0.0, SVG Export Plug-In . SVG Version: 6.00 Build 0)  -->

<svg
   xmlns:dc="http://purl.org/dc/elements/1.1/"
   xmlns:cc="http://creativecommons.org/ns#"
   xmlns:rdf="http://www.w3.org/1999/02/22-rdf-syntax-ns#"
   xmlns:svg="http://www.w3.org/2000/svg"
   xmlns="http://www.w3.org/2000/svg"
   xmlns:sodipodi="http://sodipodi.sourceforge.net/DTD/sodipodi-0.dtd"
   xmlns:inkscape="http://www.inkscape.org/namespaces/inkscape"
   version="1.1"
   id="Capa_1"
   x="0px"
   y="0px"
   width="1349.519px"
   height="347.666px"
   viewBox="79.969 98.887 1349.519 347.666"
   enable-background="new 79.969 98.887 1349.519 347.666"
   xml:space="preserve"
   sodipodi:docname="logo-sl-white.svg"
   inkscape:version="0.92.3 (2405546, 2018-03-11)"><metadata
   id="metadata53"><rdf:RDF><cc:Work
       rdf:about=""><dc:format>image/svg+xml</dc:format><dc:type
         rdf:resource="http://purl.org/dc/dcmitype/StillImage" /><dc:title></dc:title></cc:Work></rdf:RDF></metadata><defs
   id="defs51">
	
	
	
	
	
</defs><sodipodi:namedview
   pagecolor="#ffffff"
   bordercolor="#666666"
   borderopacity="1"
   objecttolerance="10"
   gridtolerance="10"
   guidetolerance="10"
   inkscape:pageopacity="0"
   inkscape:pageshadow="2"
   inkscape:window-width="1920"
   inkscape:window-height="1052"
   id="namedview49"
   showgrid="false"
   inkscape:zoom="0.71679024"
   inkscape:cx="951.24023"
   inkscape:cy="1.8001968"
   inkscape:window-x="0"
   inkscape:window-y="0"
   inkscape:window-maximized="1"
   inkscape:current-layer="Capa_1" />
<rect
   x="94.539"
   y="0"
   fill="none"
   width="1320"
   height="544.5"
   id="rect2" />
<path
   style="fill:#ffffff"
   inkscape:connector-curvature="0"
   d="m 533.02,182.617 -2.252,-32.901 c -0.167,-1.761 -0.291,-3.523 -0.375,-5.294 -0.083,-1.762 -0.208,-3.825 -0.38,-6.176 -0.417,1.933 -0.933,3.825 -1.563,5.675 -0.625,1.84 -1.219,3.659 -1.814,5.42 l -10.001,33.146 h -14.264 l -9.011,-32.14 c -0.412,-1.517 -0.938,-3.486 -1.558,-5.925 -0.625,-2.434 -1.199,-4.998 -1.689,-7.687 -0.089,2.351 -0.188,4.68 -0.307,6.999 -0.131,2.309 -0.282,4.514 -0.438,6.614 l -2.137,32.27 h -16.88 l 7.259,-67.563 h 20.883 l 8.51,31.264 c 0.667,2.178 1.183,4.091 1.553,5.728 0.386,1.642 0.782,3.554 1.199,5.733 0.417,-2.095 0.855,-4.153 1.313,-6.171 0.459,-2.022 0.98,-3.992 1.553,-5.92 l 8.891,-30.634 h 21.018 l 6.879,67.563 z m 85.313,-22.691 v 0 c 0,2.517 -0.125,4.639 -0.375,6.363 -0.25,1.725 -0.604,3.215 -1.063,4.477 -0.448,1.256 -1.042,2.376 -1.746,3.341 -0.714,0.964 -1.527,1.913 -2.444,2.835 -1.835,1.767 -4.482,3.362 -7.942,4.79 -3.461,1.428 -7.818,2.137 -13.076,2.137 -5.582,0 -10.444,-0.73 -14.572,-2.194 -4.122,-1.48 -7.312,-3.596 -9.573,-6.374 -1.413,-1.928 -2.376,-4.008 -2.872,-6.238 -0.505,-2.22 -0.75,-4.935 -0.75,-8.13 v -45.877 h 17.015 v 43.991 c 0,2.011 0.058,3.611 0.182,4.784 0.125,1.183 0.521,2.189 1.188,3.033 1.751,2.434 4.67,3.653 8.755,3.653 1.673,0 3.174,-0.276 4.503,-0.818 1.339,-0.548 2.47,-1.199 3.382,-1.954 0.667,-0.594 1.23,-1.532 1.688,-2.841 0.454,-1.303 0.688,-3.715 0.688,-7.244 v -42.604 h 17.01 v 44.87 z m 54.794,-3.273 v 0 c -0.25,-3.111 -0.458,-6.092 -0.63,-8.948 -0.167,-2.866 -0.25,-5.508 -0.25,-7.948 l -0.24,-24.827 h 15.504 v 67.687 l -17.135,-0.13 -12.513,-27.6 c -1.413,-3.2 -2.768,-6.259 -4.065,-9.198 -1.293,-2.95 -2.398,-5.639 -3.32,-8.078 0.089,1.35 0.156,2.882 0.198,4.607 0.036,1.719 0.078,3.471 0.115,5.232 0.042,1.762 0.094,3.487 0.135,5.165 0.031,1.678 0.057,3.07 0.057,4.164 l 0.375,25.839 h -15.765 v -67.687 h 18.267 l 13.018,26.089 c 1.413,2.944 2.559,5.566 3.435,7.88 0.875,2.312 1.808,4.897 2.814,7.753 z m 33.391,25.964 v 0 -67.563 h 17.39 v 67.563 z m 86.323,-5.551 v 0 c -2.923,2.267 -6.014,3.951 -9.261,5.04 -3.258,1.095 -7.046,1.642 -11.382,1.642 -4.837,0 -9.152,-0.568 -12.951,-1.704 -3.794,-1.131 -7.275,-3.002 -10.444,-5.602 -6.916,-6.473 -10.381,-15.082 -10.381,-25.844 0,-4.539 0.417,-8.594 1.246,-12.164 0.839,-3.57 2.22,-6.906 4.133,-10.011 2.929,-4.8 6.9,-8.495 11.945,-11.095 5.05,-2.611 10.574,-3.914 16.578,-3.914 3.664,0 7.249,0.526 10.756,1.574 3.502,1.058 6.212,2.298 8.136,3.727 l -7.51,10.834 c -3.664,-2.267 -7.338,-3.398 -11.012,-3.398 -2.001,0 -4.044,0.375 -6.129,1.131 -2.085,0.756 -3.664,1.762 -4.753,3.023 -1.657,1.684 -2.856,3.888 -3.565,6.624 -0.709,2.725 -1.058,6.024 -1.058,9.886 0,4.873 0.24,8.745 0.74,11.601 0.511,2.856 1.345,5.165 2.512,6.932 1.417,1.933 3.174,3.424 5.253,4.471 2.085,1.053 4.581,1.584 7.5,1.584 2.178,0 4.19,-0.297 6.066,-0.886 1.882,-0.594 3.904,-1.642 6.071,-3.153 z m 11.632,5.551 v 0 -67.563 h 17.391 v 67.563 z m 69.304,-46.513 v 0 c 0,-2.439 -0.714,-4.513 -2.132,-6.238 -1.412,-1.725 -3.882,-2.585 -7.39,-2.585 h -7.62 v 18.408 h 7.51 c 3.419,0 5.878,-0.678 7.364,-2.022 1.517,-1.346 2.268,-3.868 2.268,-7.563 z m 18.005,0 v 0 c 0,2.439 -0.328,4.784 -1.001,7.056 -0.662,2.267 -1.652,4.347 -2.939,6.238 -1.287,1.892 -2.835,3.533 -4.633,4.919 -1.787,1.381 -3.809,2.366 -6.061,2.96 -1.251,0.334 -2.356,0.594 -3.315,0.761 -0.964,0.167 -1.96,0.297 -3.002,0.375 -1.037,0.089 -2.142,0.146 -3.315,0.188 -1.178,0.042 -2.548,0.057 -4.127,0.057 h -6.755 v 23.958 h -16.749 v -67.943 h 18.996 c 3.512,0 6.426,0.089 8.756,0.256 2.35,0.167 4.31,0.396 5.884,0.693 1.579,0.292 2.94,0.651 4.076,1.068 1.115,0.427 2.173,0.881 3.179,1.391 3.586,1.678 6.316,4.096 8.203,7.244 1.865,3.154 2.803,6.75 2.803,10.779 z m 43.902,19.663 v 0 c -0.49,-1.766 -1.016,-3.742 -1.558,-5.92 -0.536,-2.189 -1.079,-4.42 -1.615,-6.687 -0.552,-2.272 -1.053,-4.497 -1.506,-6.681 -0.458,-2.184 -0.85,-4.117 -1.188,-5.79 -0.334,1.673 -0.75,3.586 -1.25,5.733 -0.501,2.142 -1.043,4.347 -1.621,6.614 -0.599,2.267 -1.183,4.519 -1.761,6.744 -0.578,2.225 -1.115,4.221 -1.621,5.988 h 12.12 z m 8.891,26.85 v 0 l -5.128,-14.368 h -19.898 l -4.743,14.368 h -17.641 l 24.76,-67.943 h 17.016 l 23.274,67.943 z m 67.166,0 v 0 h -39.269 v -67.563 h 16.886 l 0.13,53.945 h 25.755 z m 17.016,0 v 0 -67.563 h 17.396 v 67.563 z m 71.815,-31.769 v 0 c 0,-7.39 -0.896,-13.107 -2.705,-17.136 -1.788,-4.039 -5.269,-6.051 -10.439,-6.051 h -6.129 v 41.843 h 8.005 c 1.501,0 2.934,-0.291 4.32,-0.881 1.366,-0.589 2.564,-1.574 3.57,-2.966 1.001,-1.386 1.809,-3.272 2.433,-5.67 0.617,-2.396 0.945,-5.434 0.945,-9.139 z m 18.626,-1.382 v 0 c 0,4.956 -0.662,9.344 -1.996,13.169 -1.329,3.82 -3.143,7.124 -5.441,9.892 -2.304,2.772 -5.05,4.961 -8.261,6.556 -3.21,1.595 -6.691,2.647 -10.438,3.153 -1.423,0.167 -3.023,0.276 -4.816,0.313 -1.798,0.047 -3.992,0.068 -6.566,0.068 h -17.396 v -67.312 h 14.764 c 1.079,0 2.267,0 3.565,0 1.287,0 2.585,0.021 3.882,0.068 1.287,0.036 2.486,0.078 3.554,0.12 1.089,0.046 2.012,0.109 2.757,0.187 8.26,0.927 14.723,4.227 19.392,9.897 4.67,5.675 7,13.638 7,23.889 z m 43.907,6.301 v 0 c -0.501,-1.766 -1.017,-3.742 -1.558,-5.92 -0.537,-2.189 -1.079,-4.42 -1.626,-6.687 -0.542,-2.272 -1.042,-4.497 -1.506,-6.681 -0.448,-2.184 -0.84,-4.117 -1.178,-5.79 -0.333,1.673 -0.751,3.586 -1.261,5.733 -0.49,2.142 -1.032,4.347 -1.621,6.614 -0.589,2.267 -1.162,4.519 -1.751,6.744 -0.578,2.225 -1.125,4.221 -1.621,5.988 h 12.122 z m 8.88,26.85 v 0 l -5.123,-14.368 h -19.893 l -4.753,14.368 h -17.63 l 24.76,-67.943 h 17.015 l 23.27,67.943 z m 63.05,-31.769 v 0 c 0,-7.39 -0.886,-13.107 -2.684,-17.136 -1.793,-4.039 -5.28,-6.051 -10.439,-6.051 h -6.139 v 41.843 h 8 c 1.506,0 2.95,-0.291 4.326,-0.881 1.381,-0.589 2.569,-1.574 3.565,-2.966 0.995,-1.386 1.813,-3.272 2.439,-5.67 0.619,-2.396 0.932,-5.434 0.932,-9.139 z m 18.641,-1.382 v 0 c 0,4.956 -0.672,9.344 -1.996,13.169 -1.344,3.82 -3.158,7.124 -5.451,9.892 -2.293,2.772 -5.034,4.961 -8.255,6.556 -3.21,1.595 -6.681,2.647 -10.439,3.153 -1.412,0.167 -3.028,0.276 -4.826,0.313 -1.782,0.047 -3.971,0.068 -6.556,0.068 h -17.396 v -67.312 h 14.764 c 1.084,0 2.272,0 3.565,0 1.293,0 2.585,0.021 3.878,0.068 1.287,0.036 2.48,0.078 3.564,0.12 1.084,0.046 2.001,0.109 2.752,0.187 8.255,0.927 14.723,4.227 19.392,9.897 4.675,5.675 7.004,13.638 7.004,23.889 z m 82.181,1.382 v 0 c 0,-7.39 -0.902,-13.107 -2.689,-17.136 -1.793,-4.039 -5.274,-6.051 -10.444,-6.051 h -6.134 v 41.843 h 8.01 c 1.496,0 2.929,-0.291 4.315,-0.881 1.37,-0.589 2.559,-1.574 3.565,-2.966 1.001,-1.386 1.813,-3.272 2.439,-5.67 0.625,-2.396 0.938,-5.434 0.938,-9.139 z m 18.637,-1.382 v 0 c 0,4.956 -0.662,9.344 -2.007,13.169 -1.329,3.82 -3.148,7.124 -5.441,9.892 -2.282,2.772 -5.039,4.961 -8.245,6.556 -3.221,1.595 -6.702,2.647 -10.454,3.153 -1.417,0.167 -3.023,0.276 -4.815,0.313 -1.788,0.047 -3.976,0.068 -6.561,0.068 h -17.386 v -67.312 h 14.749 c 1.089,0 2.277,0 3.575,0 1.293,0 2.585,0.021 3.878,0.068 1.292,0.036 2.48,0.078 3.564,0.12 1.079,0.046 1.996,0.109 2.752,0.187 8.25,0.927 14.718,4.227 19.382,9.897 4.679,5.675 7.009,13.638 7.009,23.889 z m 14.138,33.151 v 0 -67.818 h 42.656 l -2.376,13.112 h -23.644 v 12.607 h 19.762 v 13.232 h -19.392 v 15.124 h 26.402 v 13.743 z"
   id="XMLID_301_" /><path
   style="fill:#ffffff"
   inkscape:connector-curvature="0"
   d="m 549.113,269.472 c 0,5.039 -1.032,9.584 -3.127,13.638 -2.1,4.034 -5.092,7.505 -9,10.376 -3.904,2.872 -8.589,5.102 -14.056,6.686 -5.483,1.579 -11.538,2.387 -18.173,2.387 -5.712,0 -11.439,-0.652 -17.203,-1.939 -5.759,-1.293 -11.497,-3.294 -17.203,-5.988 l 7.692,-17.953 c 4.883,2.121 9.453,3.815 13.696,5.107 4.258,1.287 9.01,1.923 14.243,1.923 11.069,0 16.594,-3.101 16.594,-9.328 0,-2.574 -0.97,-4.748 -2.882,-6.504 -1.917,-1.761 -5.029,-3.101 -9.339,-4.044 l -11.882,-2.809 c -10.132,-2.705 -16.948,-7.171 -20.429,-13.378 -2.57,-4.466 -3.846,-9.339 -3.846,-14.618 0,-4.331 0.922,-8.354 2.788,-12.054 1.866,-3.695 4.456,-6.859 7.775,-9.501 3.32,-2.637 7.338,-4.727 12.05,-6.243 4.727,-1.527 9.86,-2.298 15.462,-2.298 6.4,0 12.888,0.881 19.465,2.642 6.592,1.762 12.085,4.112 16.515,7.041 l -11.007,16.374 c -8.849,-4.7 -17.005,-7.041 -24.447,-7.041 -3.727,0 -6.755,0.761 -9.094,2.282 -2.325,1.532 -3.482,3.638 -3.482,6.332 0,2.35 0.631,4.112 1.918,5.284 1.282,1.178 3.903,2.231 7.849,3.168 l 12.586,2.992 c 8.265,2.001 14.759,5.248 19.47,9.771 4.722,4.515 7.067,10.409 7.067,17.695 z m 62.706,-6.519 v 0 c -0.683,-2.465 -1.407,-5.222 -2.168,-8.276 -0.761,-3.049 -1.517,-6.16 -2.267,-9.328 -0.761,-3.169 -1.46,-6.275 -2.09,-9.324 -0.646,-3.054 -1.204,-5.753 -1.673,-8.088 -0.454,2.335 -1.053,5.003 -1.741,8 -0.703,2.991 -1.464,6.071 -2.272,9.235 -0.823,3.168 -1.631,6.306 -2.455,9.417 -0.813,3.117 -1.564,5.9 -2.262,8.365 z m 12.414,37.486 v 0 l -7.166,-20.069 h -27.762 l -6.639,20.069 h -24.63 l 34.589,-94.866 h 23.754 l 32.489,94.866 z m 90.659,-36.252 v 0 c -0.365,-4.346 -0.641,-8.51 -0.876,-12.502 -0.234,-3.987 -0.349,-7.677 -0.349,-11.091 l -0.354,-34.667 h 21.664 v 94.511 l -23.931,-0.177 -17.469,-38.545 c -1.976,-4.456 -3.867,-8.739 -5.675,-12.841 -1.814,-4.112 -3.346,-7.864 -4.633,-11.267 0.115,1.876 0.214,4.018 0.271,6.426 0.047,2.403 0.104,4.841 0.177,7.301 0.052,2.46 0.115,4.868 0.172,7.213 0.058,2.345 0.078,4.284 0.078,5.816 l 0.532,36.074 h -22.008 v -94.511 h 25.489 l 18.167,36.429 c 1.991,4.112 3.586,7.781 4.805,11.001 1.231,3.227 2.539,6.839 3.94,10.83 z m 131.581,36.252 v 0 H 791.622 V 206.1 h 23.577 l 0.187,75.327 h 35.976 z m 81.05,-48.222 v 0 c 0,-9.621 -1.339,-17.131 -4.013,-22.53 -2.7,-5.399 -7.635,-8.099 -14.853,-8.099 -6.994,0 -11.971,2.788 -14.931,8.365 -2.976,5.576 -4.461,13.753 -4.461,24.546 0,5.988 0.407,10.95 1.219,14.884 0.823,3.914 2.012,7.067 3.58,9.417 1.584,2.345 3.586,4.002 6.04,5.014 2.434,0.995 5.285,1.491 8.552,1.491 3.023,0 5.733,-0.558 8.114,-1.673 2.392,-1.121 4.372,-2.96 5.941,-5.55 1.568,-2.575 2.772,-5.983 3.586,-10.205 0.809,-4.21 1.226,-9.443 1.226,-15.66 z m 26.725,0 v 0 c 0,7.39 -0.928,14.139 -2.799,20.241 -1.866,6.098 -4.623,11.315 -8.296,15.655 -3.659,4.352 -8.297,7.718 -13.878,10.121 -5.587,2.408 -12.07,3.612 -19.403,3.612 -7.447,0 -14.081,-1.178 -19.908,-3.523 -5.811,-2.335 -10.715,-5.654 -14.666,-9.944 -3.966,-4.273 -6.968,-9.349 -9.005,-15.223 -2.038,-5.868 -3.049,-12.32 -3.049,-19.361 0,-15.598 4.076,-27.658 12.221,-36.163 8.156,-8.51 19.324,-12.763 33.546,-12.763 6.618,0 12.711,1.006 18.235,2.991 5.535,2.001 10.319,4.961 14.337,8.891 4.013,3.935 7.129,8.859 9.334,14.78 2.226,5.932 3.331,12.821 3.331,20.686 z m 66.014,-17.777 v 0 c 0,-3.752 -1.126,-6.571 -3.393,-8.443 -2.267,-1.882 -6.624,-2.819 -13.018,-2.819 h -8.042 v 22.347 h 7.687 c 6.41,0 10.814,-0.907 13.195,-2.726 2.383,-1.818 3.571,-4.601 3.571,-8.359 z m 3.497,65.999 v 0 c -1.052,-1.517 -1.975,-2.908 -2.799,-4.133 -0.807,-1.24 -1.595,-2.439 -2.356,-3.612 -0.761,-1.172 -1.532,-2.413 -2.345,-3.7 -0.834,-1.277 -1.694,-2.757 -2.632,-4.388 -2.788,-4.81 -5.092,-8.667 -6.9,-11.538 -1.798,-2.872 -3.257,-5.102 -4.372,-6.686 -1.089,-1.579 -2.001,-2.642 -2.71,-3.164 -0.683,-0.521 -1.391,-0.792 -2.09,-0.792 l -1.569,0.167 v 37.846 H 973.113 V 205.75 h 36.335 c 5.118,0 10.069,0.553 14.832,1.673 4.784,1.121 8.75,3.195 11.877,6.254 3.038,3.038 5.19,6.301 6.473,9.761 1.276,3.455 1.913,7.124 1.913,11.001 0,3.284 -0.521,6.42 -1.558,9.412 -1.053,2.991 -2.496,5.665 -4.294,8.015 -1.798,2.345 -3.836,4.31 -6.103,5.894 -2.267,1.584 -4.638,2.606 -7.082,3.075 1.042,1.183 2.355,2.877 3.929,5.097 1.579,2.236 3.267,4.7 5.076,7.39 1.798,2.72 3.596,5.524 5.41,8.463 1.808,2.934 3.481,5.649 5.066,8.177 1.568,2.527 2.934,4.722 4.112,6.608 1.157,1.876 1.913,3.164 2.267,3.867 h -27.607 z m 42.26,0 v 0 -94.689 h 59.573 l -3.32,18.308 h -33.015 v 17.6 h 27.605 v 18.485 h -27.084 v 21.117 h 36.861 v 19.178 z m 133.452,-36.252 v 0 c -0.338,-4.346 -0.63,-8.51 -0.87,-12.502 -0.229,-3.987 -0.344,-7.677 -0.344,-11.091 l -0.354,-34.667 h 21.669 v 94.511 l -23.936,-0.177 -17.474,-38.545 c -1.975,-4.456 -3.862,-8.739 -5.665,-12.841 -1.808,-4.112 -3.356,-7.864 -4.633,-11.267 0.099,1.876 0.203,4.018 0.266,6.426 0.052,2.403 0.115,4.841 0.167,7.301 0.063,2.46 0.125,4.868 0.177,7.213 0.063,2.345 0.099,4.284 0.099,5.816 l 0.505,36.074 h -21.998 v -94.511 h 25.495 l 18.162,36.429 c 1.986,4.112 3.58,7.781 4.811,11.001 1.228,3.227 2.532,6.839 3.923,10.83 z m 104.101,36.252 v 0 h -64.79 v -15.833 l 36.319,-54.043 c 1.866,-2.575 3.559,-4.8 5.065,-6.681 -1.276,0.109 -2.647,0.177 -4.086,0.177 -1.459,0 -3.356,0 -5.675,0 h -29.7 l 5.587,-18.308 h 62.356 v 15.666 l -36.152,54.559 c -0.938,1.293 -1.762,2.491 -2.459,3.612 -0.693,1.11 -1.444,2.079 -2.267,2.897 1.292,-0.114 2.663,-0.177 4.117,-0.177 1.443,0 3.278,0 5.482,0 h 33.031 z m 81.747,-48.222 v 0 c 0,-9.621 -1.329,-17.131 -4.018,-22.53 -2.668,-5.399 -7.619,-8.099 -14.843,-8.099 -6.988,0 -11.95,2.788 -14.942,8.365 -2.965,5.576 -4.445,13.753 -4.445,24.546 0,5.988 0.407,10.95 1.23,14.884 0.808,3.914 2.001,7.067 3.569,9.417 1.584,2.345 3.57,4.002 6.03,5.014 2.444,0.995 5.306,1.491 8.557,1.491 3.044,0 5.738,-0.558 8.12,-1.673 2.392,-1.121 4.367,-2.96 5.952,-5.55 1.558,-2.575 2.752,-5.983 3.575,-10.205 0.825,-4.21 1.215,-9.443 1.215,-15.66 z m 26.72,0 v 0 c 0,7.39 -0.912,14.139 -2.773,20.241 -1.876,6.098 -4.649,11.315 -8.323,15.655 -3.643,4.352 -8.266,7.718 -13.878,10.121 -5.598,2.408 -12.044,3.612 -19.387,3.612 -7.447,0 -14.082,-1.178 -19.908,-3.523 -5.826,-2.335 -10.715,-5.654 -14.666,-9.944 -3.976,-4.273 -6.967,-9.349 -9.005,-15.223 -2.037,-5.868 -3.054,-12.32 -3.054,-19.361 0,-15.598 4.08,-27.658 12.236,-36.163 8.14,-8.51 19.324,-12.763 33.536,-12.763 6.619,0 12.711,1.006 18.246,2.991 5.524,2.001 10.308,4.961 14.321,8.891 4.002,3.935 7.135,8.859 9.334,14.78 2.232,5.932 3.321,12.821 3.321,20.686 z"
   id="XMLID_286_" /><g
   id="XMLID_266_"
   style="fill:#ffffff">
		<line
   style="fill:#ffffff;stroke:#ffffe8;stroke-opacity:1"
   y2="328.14899"
   x2="1412.0389"
   y1="328.14899"
   x1="470.35199"
   id="XMLID_284_" />
		<line
   style="fill:#ffffff;stroke:#ffffff;stroke-opacity:1"
   y2="431.08701"
   x2="1412.0389"
   y1="431.08701"
   x1="470.35199"
   id="XMLID_282_" />
	</g><g
   id="XMLID_1051_"
   style="fill:#ffffff">
		<path
   style="fill:#ffffff"
   inkscape:connector-curvature="0"
   d="m 524.103,383.245 h 21.05 v 24.703 h -4.878 l -1.157,-6.545 c -3.017,3.528 -7.89,7.702 -17.579,7.702 -18.355,0 -24.192,-13.221 -24.192,-23.295 0,-17.709 12.127,-24.833 23.999,-24.833 9.433,0 20.148,2.955 23.035,15.592 h -7.187 c -2.121,-6.353 -6.869,-9.688 -15.53,-9.688 -12.127,0 -17.516,8.599 -17.516,18.35 0,12.961 8.276,17.969 17.839,17.969 9.944,0 16.427,-5.905 17.13,-14.056 h -15.015 v -5.899 z"
   id="XMLID_1052_" />
		<path
   style="fill:#ffffff"
   inkscape:connector-curvature="0"
   d="m 567.635,362.133 h 36.835 v 5.904 h -30.034 v 13.279 h 29.132 v 5.904 h -29.132 v 14.822 h 30.675 v 5.904 h -37.476 z"
   id="XMLID_1054_" />
		<path
   style="fill:#ffffff"
   inkscape:connector-curvature="0"
   d="m 628.501,392.871 c 0.13,8.214 7.833,10.33 14.759,10.33 7.255,0 12.388,-2.762 12.388,-7.765 0,-4.169 -3.273,-5.905 -8.537,-6.801 l -10.397,-1.73 c -5.451,-0.902 -13.602,-3.086 -13.602,-12.003 0,-8.343 6.608,-13.925 18.355,-13.925 9.173,0 18.861,3.34 19.507,14.373 h -6.806 c -0.573,-3.59 -2.627,-8.469 -13.602,-8.469 -5.003,0 -10.652,2.116 -10.652,7.51 0,2.819 1.86,5.066 7.51,6.03 l 11.231,1.923 c 3.59,0.641 13.795,2.376 13.795,11.742 0,11.679 -10.459,15.019 -19.699,15.019 -10.334,0 -21.049,-3.596 -21.049,-16.234 z"
   id="XMLID_1056_" />
		<path
   style="fill:#ffffff"
   inkscape:connector-curvature="0"
   d="m 693.666,368.038 h -17.323 v -5.904 h 41.452 v 5.904 h -17.323 v 39.91 h -6.806 z"
   id="XMLID_1058_" />
		<path
   style="fill:#ffffff"
   inkscape:connector-curvature="0"
   d="m 736.182,362.133 h 6.801 v 45.814 h -6.801 z"
   id="XMLID_1060_" />
		<path
   style="fill:#ffffff"
   inkscape:connector-curvature="0"
   d="m 789.235,360.976 c 18.412,0 25.474,12.32 25.474,24.061 0,11.747 -7.061,24.067 -25.474,24.067 -18.418,0 -25.474,-12.32 -25.474,-24.067 0,-11.741 7.056,-24.061 25.474,-24.061 z m 0,5.905 c -10.46,0 -18.673,6.03 -18.673,18.157 0,12.133 8.214,18.163 18.673,18.163 10.459,0 18.673,-6.03 18.673,-18.163 0,-12.127 -8.214,-18.157 -18.673,-18.157 z m 1.668,-16.75 h 8.02 l -8.406,8.985 h -5.133 z"
   id="XMLID_1062_" />
		<path
   style="fill:#ffffff"
   inkscape:connector-curvature="0"
   d="m 842.075,371.498 h -0.13 v 36.45 h -6.801 v -45.814 h 7.896 l 29.45,36.444 h 0.131 v -36.444 h 6.801 v 45.814 h -7.896 z"
   id="XMLID_1066_" />
		<path
   style="fill:#ffffff"
   inkscape:connector-curvature="0"
   d="m 936.601,362.133 h 23.228 c 13.732,0 20.023,8.984 20.023,22.263 0,12.774 -5.582,23.551 -19.637,23.551 h -23.613 v -45.814 z m 23.296,39.91 c 11.163,0 13.154,-9.365 13.154,-17.516 0,-8.083 -2.632,-16.489 -14.436,-16.489 h -15.213 v 34.005 z"
   id="XMLID_1068_" />
		<path
   style="fill:#ffffff"
   inkscape:connector-curvature="0"
   d="m 1000.479,362.133 h 36.835 v 5.904 h -30.034 v 13.279 h 29.132 v 5.904 h -29.132 v 14.822 h 30.675 v 5.904 h -37.476 z"
   id="XMLID_1071_" />
		<path
   style="fill:#ffffff"
   inkscape:connector-curvature="0"
   d="m 1105.158,368.038 h -17.328 v -5.904 h 41.453 v 5.904 h -17.323 v 39.91 h -6.801 v -39.91 z"
   id="XMLID_1073_" />
		<path
   style="fill:#ffffff"
   inkscape:connector-curvature="0"
   d="m 1170.062,360.976 c 18.418,0 25.474,12.32 25.474,24.061 0,11.747 -7.056,24.067 -25.474,24.067 -18.418,0 -25.474,-12.32 -25.474,-24.067 0,-11.741 7.057,-24.061 25.474,-24.061 z m 0,5.905 c -10.46,0 -18.673,6.03 -18.673,18.157 0,12.133 8.213,18.163 18.673,18.163 10.459,0 18.673,-6.03 18.673,-18.163 0,-12.127 -8.213,-18.157 -18.673,-18.157 z"
   id="XMLID_1075_" />
		<path
   style="fill:#ffffff"
   inkscape:connector-curvature="0"
   d="m 1215.716,362.133 h 23.228 c 13.733,0 20.023,8.984 20.023,22.263 0,12.774 -5.587,23.551 -19.637,23.551 h -23.613 v -45.814 z m 23.29,39.91 c 11.168,0 13.16,-9.365 13.16,-17.516 0,-8.083 -2.632,-16.489 -14.441,-16.489 h -15.207 v 34.005 z"
   id="XMLID_1078_" />
		<path
   style="fill:#ffffff"
   inkscape:connector-curvature="0"
   d="m 1302.566,360.976 c 18.418,0 25.474,12.32 25.474,24.061 0,11.747 -7.056,24.067 -25.474,24.067 -18.418,0 -25.474,-12.32 -25.474,-24.067 0,-11.741 7.056,-24.061 25.474,-24.061 z m 0,5.905 c -10.46,0 -18.673,6.03 -18.673,18.157 0,12.133 8.213,18.163 18.673,18.163 10.459,0 18.673,-6.03 18.673,-18.163 -10e-4,-12.127 -8.214,-18.157 -18.673,-18.157 z"
   id="XMLID_1081_" />
		<path
   style="fill:#ffffff"
   inkscape:connector-curvature="0"
   d="m 1351.106,392.871 c 0.13,8.214 7.828,10.33 14.759,10.33 7.249,0 12.382,-2.762 12.382,-7.765 0,-4.169 -3.273,-5.905 -8.531,-6.801 l -10.397,-1.73 c -5.451,-0.902 -13.602,-3.086 -13.602,-12.003 0,-8.343 6.608,-13.925 18.35,-13.925 9.177,0 18.866,3.34 19.507,14.373 h -6.801 c -0.578,-3.59 -2.632,-8.469 -13.603,-8.469 -5.008,0 -10.652,2.116 -10.652,7.51 0,2.819 1.861,5.066 7.51,6.03 l 11.226,1.923 c 3.596,0.641 13.795,2.376 13.795,11.742 0,11.679 -10.459,15.019 -19.694,15.019 -10.334,0 -21.049,-3.596 -21.049,-16.234 z"
   id="XMLID_1084_" />
	</g><g
   id="XMLID_187_">
		<path
   style="fill:#007199"
   inkscape:connector-curvature="0"
   d="M 244.521,260.894 H 127.292 c -16.708,0 -30.253,-13.544 -30.253,-30.253 v -86.975 c 0,-16.708 13.545,-30.253 30.253,-30.253 h 86.975 c 16.708,0 30.253,13.545 30.253,30.253 z"
   id="XMLID_264_" />
		<path
   style="fill:#e30613"
   inkscape:connector-curvature="0"
   d="M 386.431,260.894 H 269.203 V 143.666 c 0,-16.708 13.545,-30.253 30.253,-30.253 h 86.976 c 16.708,0 30.253,13.545 30.253,30.253 v 86.975 c -0.002,16.708 -13.546,30.253 -30.254,30.253 z"
   id="XMLID_263_" />
		<path
   style="fill:#f39200"
   inkscape:connector-curvature="0"
   d="m 214.267,431.087 h -86.975 c -16.708,0 -30.253,-13.545 -30.253,-30.253 v -86.975 c 0,-16.708 13.545,-30.253 30.253,-30.253 H 244.52 v 117.228 c 10e-4,16.708 -13.544,30.253 -30.253,30.253 z"
   id="XMLID_262_" />
		<path
   style="fill:#afca0b"
   inkscape:connector-curvature="0"
   d="m 386.431,431.087 h -86.976 c -16.708,0 -30.253,-13.545 -30.253,-30.253 V 283.606 H 386.43 c 16.708,0 30.253,13.545 30.253,30.253 v 86.975 c 0,16.708 -13.544,30.253 -30.252,30.253 z"
   id="XMLID_261_" />
		<g
   style="opacity:0.31000001"
   id="XMLID_257_">
			<polygon
   points="135.454,214.407 212.151,214.407 202.318,235.06 145.287,235.06 "
   id="XMLID_260_" />
			<path
   inkscape:connector-curvature="0"
   d="m 163.658,194.879 c 9.23,0 17.573,4.545 23.598,11.877 V 141.3 c -0.969,-0.083 -1.944,-0.141 -2.929,-0.141 -22.285,0 -40.353,21.732 -40.353,48.54 0,4.117 0.433,8.114 1.235,11.935 5.28,-4.264 11.622,-6.755 18.449,-6.755 z"
   id="XMLID_259_" />
			<rect
   height="71.554001"
   width="3.382"
   y="141.159"
   x="189.174"
   id="XMLID_258_" />
		</g>
		<path
   style="opacity:0.31000001"
   inkscape:connector-curvature="0"
   d="m 399.308,212.202 c -12.904,-3.773 -22.081,-13.378 -22.081,-24.635 0,-4.138 1.246,-8.052 3.455,-11.538 l -0.391,-0.24 c -7.369,-0.495 -13.727,-4.639 -17.271,-10.637 0,0 -2.267,-4.862 -2.548,-6.556 -0.068,-0.334 -0.13,-0.672 -0.183,-1.011 -1.881,-9.511 -7.577,-16.427 -14.326,-16.427 -6.744,0 -12.44,6.916 -14.321,16.427 -0.052,0.338 -0.115,0.677 -0.182,1.011 -0.281,1.694 -2.549,6.556 -2.549,6.556 -3.544,5.998 -9.901,10.142 -17.271,10.637 l -0.391,0.24 c 2.209,3.486 3.455,7.4 3.455,11.538 0,11.262 -9.177,20.862 -22.081,24.635 l -0.453,0.391 v 22.467 h 107.592 v -22.467 z m -43.026,1.976 h -20.633 v -31.451 c 0,-5.702 4.618,-10.319 10.314,-10.319 v 0 c 5.701,0 10.319,4.617 10.319,10.319 z"
   enable-background="new    "
   id="XMLID_254_" />
		<g
   style="opacity:0.31000001"
   id="XMLID_250_">
			<path
   inkscape:connector-curvature="0"
   d="m 165.305,320.973 c 0,6.754 3.362,12.721 8.5,16.327 5.133,-3.606 8.495,-9.573 8.495,-16.327 0,-6.755 -3.362,-12.721 -8.495,-16.328 -5.138,3.606 -8.5,9.573 -8.5,16.328 z"
   id="XMLID_253_" />
			<path
   inkscape:connector-curvature="0"
   d="m 191.707,337.623 c -6.931,0.615 -13.467,4.482 -17.208,10.965 -0.25,0.432 -0.48,0.865 -0.693,1.303 -0.219,-0.438 -0.448,-0.87 -0.699,-1.303 -3.741,-6.483 -10.277,-10.35 -17.208,-10.965 -2.929,6.311 -2.851,13.904 0.891,20.387 3.669,6.353 10.022,10.189 16.797,10.923 0.01,0.01 0.015,0.026 0.021,0.042 0.068,-0.005 0.13,-0.016 0.198,-0.021 0.062,0.005 0.13,0.015 0.193,0.021 0.011,-0.016 0.016,-0.031 0.021,-0.042 6.775,-0.735 13.128,-4.571 16.797,-10.923 3.741,-6.483 3.824,-14.075 0.89,-20.387 z"
   id="XMLID_252_" />
			<path
   inkscape:connector-curvature="0"
   d="m 198.539,368.653 c -9.579,0.85 -18.606,6.186 -23.775,15.145 -0.344,0.594 -0.662,1.194 -0.959,1.803 -0.302,-0.609 -0.62,-1.209 -0.964,-1.803 -5.17,-8.959 -14.196,-14.295 -23.77,-15.145 -4.054,8.714 -3.94,19.2 1.23,28.158 5.071,8.781 13.842,14.082 23.207,15.092 0.005,0.016 0.016,0.037 0.026,0.058 0.089,-0.011 0.177,-0.021 0.271,-0.031 0.089,0.011 0.177,0.021 0.271,0.031 0.005,-0.021 0.015,-0.042 0.026,-0.058 9.36,-1.011 18.136,-6.311 23.201,-15.092 5.176,-8.959 5.285,-19.445 1.236,-28.158 z"
   id="XMLID_251_" />
		</g>
		<path
   style="opacity:0.31000001"
   inkscape:connector-curvature="0"
   d="m 389.625,343.731 c 0,-8.474 -7.932,-15.921 -19.918,-20.226 -1.694,-10.569 -11.721,-18.694 -23.874,-18.694 -12.153,0 -22.185,8.125 -23.879,18.694 -11.987,4.305 -19.918,11.752 -19.918,20.226 0,7.843 6.801,14.811 17.329,19.22 l 21.753,26.203 v 22.973 h 9.428 v -22.973 l 21.753,-26.203 c 10.525,-4.409 17.326,-11.377 17.326,-19.22 z m -59.39,22.545 c 3.445,0.725 7.088,1.215 10.882,1.439 v 11.668 z m 20.309,13.107 v -11.668 c 3.794,-0.224 7.442,-0.714 10.881,-1.439 z"
   enable-background="new    "
   id="XMLID_245_" />
		<polygon
   style="fill:#ffffff"
   points="132.431,213.453 209.129,213.453 199.295,234.107 142.265,234.107 "
   id="XMLID_244_" />
		<path
   style="fill:#ffffff"
   inkscape:connector-curvature="0"
   d="m 160.641,193.926 c 9.224,0 17.568,4.545 23.593,11.877 v -65.457 c -0.969,-0.083 -1.944,-0.141 -2.929,-0.141 -22.285,0 -40.353,21.732 -40.353,48.535 0,4.123 0.433,8.12 1.235,11.94 5.279,-4.263 11.627,-6.754 18.454,-6.754 z"
   id="XMLID_242_" />
		<rect
   style="fill:#ffffff"
   height="71.554001"
   width="3.382"
   y="140.205"
   x="186.151"
   id="XMLID_241_" />
		<path
   style="fill:#ffffff"
   inkscape:connector-curvature="0"
   d="m 396.285,211.249 c -12.903,-3.773 -22.081,-13.378 -22.081,-24.635 0,-4.143 1.245,-8.057 3.455,-11.544 l -0.391,-0.234 c -7.369,-0.495 -13.727,-4.639 -17.271,-10.637 0,0 -2.267,-4.862 -2.548,-6.556 -0.068,-0.334 -0.13,-0.672 -0.182,-1.011 -1.881,-9.511 -7.577,-16.427 -14.321,-16.427 -6.743,0 -12.445,6.916 -14.326,16.427 -0.052,0.339 -0.115,0.678 -0.182,1.011 -0.282,1.694 -2.549,6.556 -2.549,6.556 -3.543,5.998 -9.902,10.142 -17.271,10.637 l -0.391,0.234 c 2.209,3.486 3.455,7.4 3.455,11.544 0,11.257 -9.177,20.862 -22.081,24.635 l -0.453,0.386 v 22.472 H 396.74 v -22.472 z m -43.026,1.975 h -20.632 v -31.457 c 0,-5.696 4.618,-10.319 10.319,-10.319 v 0 c 5.696,0 10.314,4.623 10.314,10.319 v 31.457 z"
   id="XMLID_238_" />
		<path
   style="fill:#ffffff"
   inkscape:connector-curvature="0"
   d="m 162.282,320.019 c 0,6.754 3.362,12.721 8.5,16.327 5.139,-3.606 8.495,-9.573 8.495,-16.327 0,-6.755 -3.356,-12.721 -8.495,-16.328 -5.138,3.607 -8.5,9.573 -8.5,16.328 z"
   id="XMLID_237_" />
		<path
   style="fill:#ffffff"
   inkscape:connector-curvature="0"
   d="m 188.684,336.67 c -6.931,0.615 -13.462,4.482 -17.208,10.965 -0.245,0.427 -0.48,0.865 -0.693,1.303 -0.219,-0.438 -0.448,-0.876 -0.699,-1.303 -3.742,-6.483 -10.277,-10.35 -17.208,-10.965 -2.929,6.311 -2.851,13.899 0.891,20.382 3.674,6.358 10.022,10.194 16.797,10.923 0.01,0.015 0.015,0.031 0.021,0.042 0.068,-0.005 0.13,-0.011 0.198,-0.021 0.062,0.01 0.13,0.015 0.193,0.021 0.011,-0.011 0.015,-0.026 0.021,-0.042 6.78,-0.729 13.128,-4.565 16.797,-10.923 3.741,-6.483 3.824,-14.071 0.89,-20.382 z"
   id="XMLID_235_" />
		<path
   style="fill:#ffffff"
   inkscape:connector-curvature="0"
   d="m 195.517,367.694 c -9.579,0.855 -18.6,6.192 -23.775,15.15 -0.344,0.594 -0.662,1.193 -0.959,1.803 -0.303,-0.61 -0.62,-1.209 -0.964,-1.803 -5.17,-8.959 -14.196,-14.295 -23.77,-15.15 -4.049,8.719 -3.94,19.205 1.23,28.163 5.071,8.781 13.842,14.082 23.207,15.087 0.005,0.021 0.016,0.042 0.026,0.063 0.089,-0.011 0.177,-0.021 0.271,-0.031 0.089,0.01 0.177,0.021 0.271,0.031 0.01,-0.021 0.015,-0.042 0.026,-0.063 9.36,-1.005 18.136,-6.306 23.201,-15.087 5.175,-8.959 5.285,-19.444 1.236,-28.163 z"
   id="XMLID_234_" />
		<path
   style="fill:#ffffff"
   inkscape:connector-curvature="0"
   d="m 386.603,342.772 c 0,-8.469 -7.932,-15.916 -19.918,-20.22 -1.694,-10.569 -11.721,-18.699 -23.874,-18.699 -12.153,0 -22.185,8.13 -23.874,18.699 -11.992,4.305 -19.924,11.752 -19.924,20.22 0,7.849 6.801,14.817 17.329,19.226 l 21.752,26.203 v 22.967 h 9.428 v -22.967 l 21.753,-26.203 c 10.527,-4.409 17.328,-11.377 17.328,-19.226 z m -59.391,22.551 c 3.445,0.725 7.088,1.214 10.881,1.438 v 11.669 z m 20.309,13.107 v -11.669 c 3.794,-0.224 7.442,-0.714 10.881,-1.438 z"
   id="XMLID_188_" />
	</g>
</svg>