<?xml version="1.0" encoding="UTF-8" standalone="no"?>
<!-- Generator: Adobe Illustrator 21.1.0, SVG Export Plug-In . SVG Version: 6.00 Build 0)  -->

<svg
   xmlns:dc="http://purl.org/dc/elements/1.1/"
   xmlns:cc="http://creativecommons.org/ns#"
   xmlns:rdf="http://www.w3.org/1999/02/22-rdf-syntax-ns#"
   xmlns:svg="http://www.w3.org/2000/svg"
   xmlns="http://www.w3.org/2000/svg"
   xmlns:sodipodi="http://sodipodi.sourceforge.net/DTD/sodipodi-0.dtd"
   xmlns:inkscape="http://www.inkscape.org/namespaces/inkscape"
   version="1.1"
   id="Capa_1"
   x="0px"
   y="0px"
   viewBox="0 0 461.11689 250.52847"
   xml:space="preserve"
   sodipodi:docname="PPJ horizontal byn - color.svg"
   width="461.11688"
   height="250.52847"
   inkscape:version="0.92.3 (2405546, 2018-03-11)"><metadata
   id="metadata227"><rdf:RDF><cc:Work
       rdf:about=""><dc:format>image/svg+xml</dc:format><dc:type
         rdf:resource="http://purl.org/dc/dcmitype/StillImage" /><dc:title></dc:title></cc:Work></rdf:RDF></metadata><defs
   id="defs225" /><sodipodi:namedview
   pagecolor="#ffffff"
   bordercolor="#666666"
   borderopacity="1"
   objecttolerance="10"
   gridtolerance="10"
   guidetolerance="10"
   inkscape:pageopacity="0"
   inkscape:pageshadow="2"
   inkscape:window-width="1366"
   inkscape:window-height="740"
   id="namedview223"
   showgrid="false"
   inkscape:zoom="0.79285994"
   inkscape:cx="252.12042"
   inkscape:cy="-234.40587"
   inkscape:window-x="0"
   inkscape:window-y="0"
   inkscape:window-maximized="1"
   inkscape:current-layer="Capa_1"
   fit-margin-top="0"
   fit-margin-left="0"
   fit-margin-right="0"
   fit-margin-bottom="-0.4" />
<style
   type="text/css"
   id="style2">
	.st0{fill:#F4A296;}
	.st1{fill:#E9DEBF;}
	.st2{fill:#E6425D;}
	.st3{fill:#BBD7C1;}
	.st4{fill:#DEEEE0;}
	.st5{fill:#9F2A54;}
	.st6{fill:#4C4846;}
	.st7{fill:#FFFFFF;}
	.st8{fill:#696969;}
	.st9{fill:#696969;stroke:#878787;stroke-width:0.9158;stroke-miterlimit:10;}
	.st10{fill:#E6425D;stroke:#E6425D;stroke-width:1.8078;stroke-miterlimit:10;}
	.st11{fill:#646363;}
	.st12{fill:#B2B2B2;}
	.st13{fill:#929292;}
	.st14{fill:#D0D0D0;}
	.st15{fill:#E3E3E3;}
	.st16{fill:#4C4846;stroke:#4C4846;stroke-miterlimit:10;}
</style>

<g
   id="g220"
   transform="translate(-53.783117,-70.471525)">
	<g
   id="g130">
		<g
   id="XMLID_2_">
			<g
   id="g125">
				<path
   class="st11"
   d="m 176.4,111.5 c 8.9,22.7 1.7,44.7 1.7,44.7 l -6.7,16.9 -46.2,21.4 -0.2,-0.4 23.3,-37.5 z"
   id="path113"
   inkscape:connector-curvature="0"
   style="fill:#646363" />
				<polygon
   class="st12"
   points="62.6,106.6 176.4,111.5 148.3,156.7 "
   id="polygon115"
   style="fill:#b2b2b2" />
				<path
   d="m 171.4,173.1 -18.7,47 -1,14.1 c -3.9,14.7 -12,15.8 -12,15.8 l -47.5,1.8 C 81.6,250.4 80,235.9 80,235.9 c 0,0 0.8,-7.6 -2.1,-19.4 l 47.3,-21.9 z"
   id="path117"
   inkscape:connector-curvature="0" />
				<polygon
   class="st13"
   points="62.6,106.6 148.3,156.7 125,194.2 "
   id="polygon119"
   style="fill:#929292" />
				<path
   class="st14"
   d="m 62.6,106.6 c 4.7,-8.9 12,-18.7 23.2,-25.7 26.9,-17 49.6,-8.1 49.6,-8.1 0,0 20,3.3 36,29 2,3.3 3.6,6.5 4.9,9.8 z"
   id="path121"
   inkscape:connector-curvature="0"
   style="fill:#d0d0d0" />
				<path
   class="st15"
   d="m 54.6,129.9 c 0,0 1.5,-10.9 8,-23.4 l 62.4,87.6 0.2,0.4 -47.3,21.9 C 76,208.3 72.3,198.3 65.7,187.3 49.3,160.2 54.6,129.9 54.6,129.9 Z"
   id="path123"
   inkscape:connector-curvature="0"
   style="fill:#e3e3e3" />
			</g>
			<g
   id="g127">
			</g>
		</g>
	</g>
	<g
   id="g140">
		<g
   id="g134">
			<path
   class="st6"
   d="m 89.7,256.3 54.4,-1.8 -0.1,4.5 c 0,0 1.2,0.9 1.2,2.6 0,1.7 -2.7,3 -2.7,4.3 0,1.3 2.2,1.9 2.2,3.6 0,1.7 -2.4,3.2 -2.3,4.9 0.1,1.7 2.2,1.8 2,3.2 -0.2,1.4 -2.1,2.7 -2.2,4 0,1.3 2,2.2 2,3.6 0,1.4 -2.1,2.7 -2.3,4.2 -0.2,1.4 1.4,1.6 1.3,2.6 0,1 -0.8,3.1 -4.6,6.5 -3.8,3.4 -9.7,8.6 -9.7,8.6 l -25.7,0.8 -11.6,-9.6 c -0.3,-1.3 -0.2,-3.4 -0.5,-4.2 -0.3,-0.8 -2.6,-2 -2.6,-3.4 0,-1.4 2.1,-2 2.2,-3 0,-1 -2.2,-3.5 -2,-5.3 0.2,-1.8 1.7,-2.3 1.9,-3.3 0.2,-1 -1.5,-2.5 -1.5,-3.9 0,-1.4 1.7,-2.9 1.8,-4.1 0.1,-1.2 -1.8,-2.1 -1.9,-4.2 0,-2.1 0.7,-10.6 0.7,-10.6 z"
   id="path132"
   inkscape:connector-curvature="0"
   style="fill:#4c4846" />
		</g>
		<g
   id="g138">
			<path
   class="st6"
   d="m 103.8,309.6 23.3,-0.8 c 0,0 -2.6,3.3 -3.8,3.4 -1.3,0 -14.1,0.5 -15.2,0.5 -1.2,0 -4.3,-3.1 -4.3,-3.1 z"
   id="path136"
   inkscape:connector-curvature="0"
   style="fill:#4c4846" />
		</g>
	</g>
	<g
   id="g150">
		<g
   id="g144">
			<path
   class="st7"
   d="m 119.7,279.8 c 1.5,0 2.8,0.5 3.8,1.6 1.1,1 1.6,2.3 1.6,3.8 v 1.1 c 0,0.7 0.4,1.1 1.1,1.1 h 4.3 c 0.6,0 1.1,0.2 1.5,0.6 0.4,0.4 0.6,0.9 0.6,1.5 v 1.1 c 0,0.6 -0.2,1.1 -0.6,1.5 -0.4,0.4 -0.9,0.6 -1.5,0.6 h -24.8 c -1.5,0 -2.8,-0.5 -3.8,-1.6 -1.1,-1 -1.6,-2.3 -1.6,-3.8 v -2.2 c 0,-1.5 0.5,-2.8 1.6,-3.8 1,-1.1 2.3,-1.6 3.8,-1.6 z m -1.1,5.4 h -11.8 c -0.7,0 -1.1,0.4 -1.1,1.1 0,0.7 0.4,1.1 1.1,1.1 h 11.8 c 0.7,0 1.1,-0.4 1.1,-1.1 0,-0.8 -0.4,-1.1 -1.1,-1.1 z"
   id="path142"
   inkscape:connector-curvature="0"
   style="fill:#ffffff" />
		</g>
		<g
   id="g148">
			<path
   class="st7"
   d="m 119.7,264.7 c 1.5,0 2.8,0.5 3.8,1.6 1.1,1 1.6,2.3 1.6,3.8 v 1.1 c 0,0.7 0.4,1.1 1.1,1.1 h 4.3 c 0.6,0 1.1,0.2 1.5,0.6 0.4,0.4 0.6,0.9 0.6,1.5 v 1.1 c 0,0.6 -0.2,1.1 -0.6,1.5 -0.4,0.4 -0.9,0.6 -1.5,0.6 h -24.8 c -1.5,0 -2.8,-0.5 -3.8,-1.6 -1,-1 -1.6,-2.3 -1.6,-3.8 V 270 c 0,-1.5 0.5,-2.8 1.6,-3.8 1,-1.1 2.3,-1.6 3.8,-1.6 z m -1.1,5.4 h -11.8 c -0.7,0 -1.1,0.4 -1.1,1.1 0,0.7 0.4,1.1 1.1,1.1 h 11.8 c 0.7,0 1.1,-0.4 1.1,-1.1 0,-0.7 -0.4,-1.1 -1.1,-1.1 z"
   id="path146"
   inkscape:connector-curvature="0"
   style="fill:#ffffff" />
		</g>
	</g>
	<g
   id="g206">
		<g
   id="g174">
			<path
   class="st8"
   d="m 215.8,105.8 c 8.2,0 12.7,4.5 12.7,12.8 v 4 c 0,8.3 -4.5,12.8 -12.7,12.8 h -3.4 v 21 h -7.7 v -50.6 z m -3.4,22.6 h 3.1 c 3.7,0 5.3,-2 5.3,-6.2 v -3 c 0,-4.3 -1.7,-6.2 -5.3,-6.2 h -3.1 z"
   id="path152"
   inkscape:connector-curvature="0"
   style="fill:#696969" />
			<path
   class="st8"
   d="M 244.6,135 H 241 v 21.4 h -7.7 v -50.6 h 11.1 c 8.2,0 12.7,4.5 12.7,12.8 v 3.6 c 0,5.3 -1.9,9.1 -5.4,11.1 l 7,23 h -8.1 z m -3.6,-7.1 h 3.1 c 3.7,0 5.3,-2 5.3,-6.2 v -2.6 c 0,-4.3 -1.7,-6.2 -5.3,-6.2 H 241 Z"
   id="path154"
   inkscape:connector-curvature="0"
   style="fill:#696969" />
			<path
   class="st8"
   d="m 272,112.9 v 14.3 h 11.2 v 7.1 H 272 v 15 h 13.9 v 7.1 h -21.5 v -50.6 h 21.5 v 7.1 z"
   id="path156"
   inkscape:connector-curvature="0"
   style="fill:#696969" />
			<path
   class="st8"
   d="m 312.6,116.5 v 1.3 l -7.4,0.7 v -1.9 c 0,-2.9 -1.4,-4.4 -3.9,-4.4 -2.5,0 -3.9,1.5 -3.9,4.4 v 0.6 c 0,3 1.3,5.5 6.4,9.8 7,5.9 9.6,10.1 9.6,16.2 v 2.5 c 0,7.2 -4.3,11.3 -11.8,11.3 -7.6,0 -11.8,-4.1 -11.8,-11.3 v -3.4 l 7.4,-0.7 v 3.6 c 0,3.2 1.4,4.8 4.3,4.8 2.9,0 4.3,-1.6 4.3,-4.8 v -1.7 c 0,-3.2 -1.5,-5.7 -6.6,-10 -7,-5.9 -9.4,-10.1 -9.4,-16 v -1.1 c 0,-7.2 4.1,-11.3 11.4,-11.3 7.3,0 11.4,4.1 11.4,11.4 z"
   id="path158"
   inkscape:connector-curvature="0"
   style="fill:#696969" />
			<path
   class="st8"
   d="m 341.5,145.1 c 0,7.9 -4.6,12.1 -11.9,12.1 -7.2,0 -11.8,-4.1 -11.8,-12.1 v -39.2 h 7.4 v 39 c 0,3.7 1.7,5.1 4.3,5.1 2.6,0 4.3,-1.4 4.3,-5.1 v -39 h 7.7 z"
   id="path160"
   inkscape:connector-curvature="0"
   style="fill:#696969" />
			<path
   class="st8"
   d="m 360.4,105.8 c 8.2,0 12.7,4.5 12.7,12.8 v 4 c 0,8.3 -4.5,12.8 -12.7,12.8 H 357 v 21 h -7.7 v -50.6 z m -3.4,22.6 h 3.1 c 3.7,0 5.3,-2 5.3,-6.2 v -3 c 0,-4.3 -1.7,-6.2 -5.3,-6.2 H 357 Z"
   id="path162"
   inkscape:connector-curvature="0"
   style="fill:#696969" />
			<path
   class="st8"
   d="m 402.2,145.1 c 0,7.9 -4.6,12.1 -11.9,12.1 -7.2,0 -11.8,-4.1 -11.8,-12.1 v -39.2 h 7.4 v 39 c 0,3.7 1.7,5.1 4.3,5.1 2.7,0 4.3,-1.4 4.3,-5.1 v -39 h 7.7 z"
   id="path164"
   inkscape:connector-curvature="0"
   style="fill:#696969" />
			<path
   class="st8"
   d="m 417.6,112.9 v 14.3 h 11.2 v 7.1 h -11.2 v 15 h 13.9 v 7.1 H 410 v -50.6 h 21.5 v 7.1 z"
   id="path166"
   inkscape:connector-curvature="0"
   style="fill:#696969" />
			<path
   class="st8"
   d="m 458.3,116.5 v 1.3 l -7.4,0.7 v -1.9 c 0,-2.9 -1.4,-4.4 -3.9,-4.4 -2.5,0 -3.9,1.5 -3.9,4.4 v 0.6 c 0,3 1.3,5.5 6.4,9.8 7,5.9 9.6,10.1 9.6,16.2 v 2.5 c 0,7.2 -4.3,11.3 -11.8,11.3 -7.6,0 -11.8,-4.1 -11.8,-11.3 v -3.4 l 7.4,-0.7 v 3.6 c 0,3.2 1.4,4.8 4.3,4.8 2.9,0 4.3,-1.6 4.3,-4.8 v -1.7 c 0,-3.2 -1.5,-5.7 -6.6,-10 -7,-5.9 -9.4,-10.1 -9.4,-16 v -1.1 c 0,-7.2 4.1,-11.3 11.4,-11.3 7.3,0 11.4,4.1 11.4,11.4 z"
   id="path168"
   inkscape:connector-curvature="0"
   style="fill:#696969" />
			<path
   class="st8"
   d="m 476.1,113.1 v 43.3 h -7.7 v -43.3 h -8.2 v -7.2 h 24 v 7.2 z"
   id="path170"
   inkscape:connector-curvature="0"
   style="fill:#696969" />
			<path
   class="st8"
   d="m 512.8,117.9 v 26.4 c 0,7.9 -4.7,12.8 -12.4,12.8 -7.7,0 -12.4,-4.8 -12.4,-12.8 v -26.4 c 0,-7.9 4.7,-12.8 12.4,-12.8 7.7,0 12.4,4.9 12.4,12.8 z m -17,0.1 v 26.3 c 0,3.8 1.7,5.8 4.7,5.8 3,0 4.7,-2 4.7,-5.8 V 118 c 0,-3.8 -1.7,-5.8 -4.7,-5.8 -3.1,0 -4.7,2 -4.7,5.8 z"
   id="path172"
   inkscape:connector-curvature="0"
   style="fill:#696969" />
		</g>
		<g
   id="g202">
			<path
   class="st8"
   d="m 215.5,181.3 c 7.9,0 12.2,4.3 12.2,12.3 v 3.9 c 0,8 -4.3,12.3 -12.2,12.3 h -3.3 v 20.1 h -7.4 v -48.6 z m -3.2,21.6 h 3 c 3.5,0 5.1,-1.9 5.1,-6 V 194 c 0,-4.1 -1.6,-6 -5.1,-6 h -3 z"
   id="path176"
   inkscape:connector-curvature="0"
   style="fill:#696969" />
			<path
   class="st8"
   d="m 247,229.9 -1.6,-11 h -8.1 l -1.6,11 h -7.4 l 8.4,-48.6 h 9.4 l 8.4,48.6 z m -8.7,-17.7 h 6.2 l -3,-20.5 h -0.2 z"
   id="path178"
   inkscape:connector-curvature="0"
   style="fill:#696969" />
			<path
   class="st8"
   d="m 269.9,209.3 h -3.4 v 20.6 h -7.4 v -48.6 h 10.6 c 7.9,0 12.2,4.3 12.2,12.3 v 3.5 c 0,5.1 -1.8,8.8 -5.2,10.7 l 6.7,22.2 h -7.8 z m -3.4,-6.8 h 3 c 3.5,0 5.1,-1.9 5.1,-6 V 194 c 0,-4.1 -1.6,-6 -5.1,-6 h -3 z"
   id="path180"
   inkscape:connector-curvature="0"
   style="fill:#696969" />
			<path
   class="st8"
   d="m 300.2,188.2 v 41.7 h -7.4 V 188.2 H 285 v -6.9 h 23.1 v 6.9 z"
   id="path182"
   inkscape:connector-curvature="0"
   style="fill:#696969" />
			<path
   class="st8"
   d="m 312.7,229.9 v -48.6 h 7.4 v 48.6 z"
   id="path184"
   inkscape:connector-curvature="0"
   style="fill:#696969" />
			<path
   class="st8"
   d="m 350,192.2 v 4.4 l -7.1,0.3 v -4 c 0,-3.9 -1.5,-5.6 -4.2,-5.6 -2.7,0 -4.2,1.7 -4.2,4.9 v 26.5 c 0,3.2 1.5,4.9 4.2,4.9 2.7,0 4.2,-1.7 4.2,-5.6 v -5.4 l 7.1,0.3 v 5.8 c 0,7.4 -4.2,11.7 -11.5,11.7 -7.2,0 -11.3,-4.3 -11.3,-11.7 V 192 c 0,-7.4 4.2,-11.7 11.3,-11.7 7.3,0.3 11.5,4.6 11.5,11.9 z"
   id="path186"
   inkscape:connector-curvature="0"
   style="fill:#696969" />
			<path
   class="st8"
   d="m 356.3,229.9 v -48.6 h 7.4 v 48.6 z"
   id="path188"
   inkscape:connector-curvature="0"
   style="fill:#696969" />
			<path
   class="st8"
   d="m 382.2,181.3 c 7.9,0 12.2,4.3 12.2,12.3 v 3.9 c 0,8 -4.3,12.3 -12.2,12.3 h -3.3 v 20.1 h -7.4 v -48.6 z m -3.3,21.6 h 3 c 3.5,0 5.1,-1.9 5.1,-6 V 194 c 0,-4.1 -1.6,-6 -5.1,-6 h -3 z"
   id="path190"
   inkscape:connector-curvature="0"
   style="fill:#696969" />
			<path
   class="st8"
   d="m 413.7,229.9 -1.6,-11 H 404 l -1.6,11 H 395 l 8.4,-48.6 h 9.4 l 8.4,48.6 z m -8.8,-17.7 h 6.2 l -3,-20.5 h -0.2 z"
   id="path192"
   inkscape:connector-curvature="0"
   style="fill:#696969" />
			<path
   class="st8"
   d="m 436,188.2 v 41.7 h -7.4 v -41.7 h -7.9 v -6.9 h 23.1 v 6.9 z"
   id="path194"
   inkscape:connector-curvature="0"
   style="fill:#696969" />
			<path
   class="st8"
   d="m 448.5,229.9 v -48.6 h 7.4 v 48.6 z"
   id="path196"
   inkscape:connector-curvature="0"
   style="fill:#696969" />
			<path
   class="st8"
   d="m 469.3,229.9 -8.2,-48.6 h 7.5 l 5.5,37.1 h 0.1 l 5.4,-37.1 h 7.4 l -8.2,48.6 z"
   id="path198"
   inkscape:connector-curvature="0"
   style="fill:#696969" />
			<path
   class="st8"
   d="m 514.9,192.9 v 25.4 c 0,7.6 -4.5,12.3 -11.9,12.3 -7.4,0 -11.9,-4.7 -11.9,-12.3 v -25.4 c 0,-7.6 4.5,-12.3 11.9,-12.3 7.4,0 11.9,4.6 11.9,12.3 z m -16.3,0 v 25.3 c 0,3.6 1.6,5.6 4.5,5.6 2.9,0 4.5,-1.9 4.5,-5.6 v -25.3 c 0,-3.6 -1.6,-5.6 -4.5,-5.6 -2.9,0.1 -4.5,2 -4.5,5.6 z"
   id="path200"
   inkscape:connector-curvature="0"
   style="fill:#696969" />
		</g>
		<line
   class="st8"
   x1="251.3"
   y1="169.10001"
   x2="467.39999"
   y2="169.10001"
   id="line204"
   style="fill:#696969" />
	</g>
	<g
   id="g218">
		<path
   class="st16"
   d="m 289.6,262 c 0.9,0 1.4,0.2 1.4,0.5 0,0.4 -0.6,0.8 -1.7,1.2 -1.2,0.4 -2.8,0.9 -5.1,1.7 -2.2,0.8 -4.9,2 -8.1,3.5 -3.2,1.5 -6.9,3.6 -11,6.4 -1,4.9 -1.9,9.4 -2.7,13.7 -0.8,4.3 -1.8,8.8 -3,13.6 -0.5,2.1 -1.2,4.2 -2.1,6.4 -0.9,2.1 -2,4.1 -3.2,5.9 -1.2,1.8 -2.6,3.2 -4,4.3 -1.4,1.1 -3,1.7 -4.6,1.7 -1.5,0 -2.7,-0.4 -3.6,-1.1 -0.9,-0.7 -1.7,-1.6 -2.3,-2.8 -0.6,-1.2 -1,-2.5 -1.2,-3.9 -0.2,-1.4 -0.4,-2.9 -0.4,-4.3 0,-0.9 0.2,-2.7 0.6,-5.3 0.4,-2.6 1.4,-5.7 3,-9.1 1.6,-3.4 4,-7.1 7.2,-11 3.2,-3.9 7.6,-7.5 13.1,-10.9 0.5,-2.2 1,-4.4 1.6,-6.6 0.6,-2.2 1.1,-4.4 1.6,-6.4 0.5,-2 1,-3.8 1.5,-5.5 0.5,-1.7 0.8,-3 1,-4.2 0.6,-1.2 1.2,-2 2,-2.5 0.7,-0.5 1.4,-0.7 1.8,-0.7 0.6,0 0.8,0.2 0.8,0.5 l -6.2,23 c 5.3,-2.5 9.8,-4.4 13.7,-5.7 3.9,-1.3 7,-2.1 9.5,-2.4 z m -34.4,39.5 c 0.5,-2 0.9,-3.7 1.3,-5.2 0.4,-1.5 0.7,-3 1,-4.4 0.3,-1.4 0.6,-2.8 0.9,-4.3 0.3,-1.5 0.6,-3.2 1.1,-5.2 0.1,-0.5 0.2,-1.2 0.3,-2.1 0.1,-0.9 0.3,-1.6 0.4,-2 -1,0.4 -2.5,1.5 -4.7,3.3 -2.1,1.8 -4.3,4.1 -6.4,6.9 -2.1,2.8 -4,5.9 -5.7,9.5 -1.7,3.5 -2.5,7.3 -2.5,11.1 0,2.7 0.3,4.6 1,5.9 0.7,1.2 1.6,1.8 2.7,1.8 0.8,0 1.8,-0.4 2.7,-1.1 1,-0.7 2,-1.7 3,-3 1,-1.3 1.9,-2.9 2.8,-4.8 0.8,-1.9 1.5,-4.1 2.1,-6.4 z m 15.7,-62.1 c -0.6,-0.1 -0.9,-0.5 -0.9,-1.3 0,-1.2 0.4,-2.3 1.3,-3.4 0.9,-1.1 2,-1.6 3.4,-1.6 0.4,0 0.8,0.1 1.1,0.4 0.3,0.2 0.5,0.6 0.5,1.1 0,1.4 -0.5,2.6 -1.5,3.5 -1,0.9 -2.1,1.4 -3.2,1.4 -0.4,0 -0.6,-0.1 -0.7,-0.1 z"
   id="path208"
   inkscape:connector-curvature="0"
   style="fill:#4c4846;stroke:#4c4846;stroke-miterlimit:10" />
		<path
   class="st16"
   d="m 287.2,270.5 c 0,-1.9 0.3,-3.9 1,-6.1 0.7,-2.2 1.5,-4.3 2.4,-6.3 0.9,-2 1.8,-3.8 2.7,-5.4 0.9,-1.6 1.6,-2.7 2,-3.4 -0.9,-0.1 -1.4,-0.4 -1.4,-1.1 0,-0.6 0.3,-1.1 0.8,-1.5 0.5,-0.5 0.9,-0.7 1.1,-0.7 1.9,0.4 4,0.8 6.4,1.1 2.4,0.3 4.6,0.9 6.6,1.6 2.1,0.8 3.8,1.9 5.2,3.4 1.4,1.5 2.1,3.6 2.1,6.4 0,2.5 -0.5,4.9 -1.6,7.2 -1.1,2.4 -2.6,4.4 -4.4,6.3 -1.9,1.8 -4,3.3 -6.4,4.4 -2.4,1.1 -5,1.7 -7.6,1.7 -2.3,0 -4.2,-0.5 -6,-1.5 -1.7,-1 -2.7,-2.8 -2.8,-5.4 v -0.7 z m 23.7,-13.3 c -0.4,-1.5 -1,-2.7 -1.9,-3.6 -0.8,-0.9 -1.8,-1.7 -2.9,-2.3 -1.1,-0.6 -2.3,-1 -3.6,-1.2 -1.3,-0.2 -2.6,-0.4 -3.9,-0.6 -0.6,1.6 -1.2,3.2 -2,4.9 -0.8,1.6 -1.5,3.3 -2.2,4.9 -0.7,1.7 -1.3,3.3 -1.8,5 -0.5,1.7 -0.7,3.3 -0.7,5 0,2.2 0.6,3.7 1.9,4.6 1.3,0.9 2.5,1.4 3.8,1.4 1.6,0 3.1,-0.4 4.7,-1.3 1.6,-0.9 3.1,-2 4.4,-3.5 1.3,-1.4 2.4,-3 3.3,-4.8 0.8,-1.8 1.3,-3.5 1.3,-5.3 0,-1.3 -0.2,-2.3 -0.4,-3.2 z"
   id="path210"
   inkscape:connector-curvature="0"
   style="fill:#4c4846;stroke:#4c4846;stroke-miterlimit:10" />
		<path
   class="st16"
   d="m 353.1,243.1 c 0.1,-0.3 0.6,-0.6 1.4,-0.8 0.8,-0.3 1.5,-0.4 2.1,-0.4 0.6,0 0.8,0.1 0.8,0.4 0,0.1 0,0.1 -0.1,0.2 0,0 -0.1,0.1 -0.1,0.2 -1.5,3.8 -3.5,7.8 -5.9,12 -2.4,4.2 -4.8,8.1 -7.3,11.7 -2.5,3.6 -5,6.5 -7.4,8.9 -2.4,2.3 -4.4,3.5 -6.1,3.5 -1.1,0 -1.9,-0.5 -2.5,-1.5 -0.6,-1 -1.1,-2.3 -1.4,-3.9 -0.3,-1.6 -0.5,-3.5 -0.7,-5.5 -0.1,-2.1 -0.2,-4.2 -0.3,-6.4 -0.1,-2.2 -0.1,-4.3 -0.2,-6.5 -0.1,-2.1 -0.2,-4.1 -0.5,-5.7 0,-0.4 0.3,-0.9 1,-1.3 0.7,-0.5 1.3,-0.7 2,-0.7 0.4,0 0.7,0.6 0.9,1.9 0.2,1.3 0.4,2.9 0.5,4.8 0.1,1.9 0.2,4 0.3,6.2 0.1,2.2 0.2,4.3 0.4,6.2 0.2,1.9 0.4,3.5 0.8,4.8 0.4,1.3 0.9,1.9 1.6,1.9 0.7,0 1.7,-0.6 2.8,-1.7 1.2,-1.2 2.5,-2.6 4,-4.4 1.4,-1.8 2.9,-3.8 4.4,-6.1 1.5,-2.2 2.9,-4.5 4.2,-6.7 1.3,-2.2 2.4,-4.3 3.4,-6.2 0.9,-2.1 1.6,-3.7 1.9,-4.9 z"
   id="path212"
   inkscape:connector-curvature="0"
   style="fill:#4c4846;stroke:#4c4846;stroke-miterlimit:10" />
		<path
   class="st16"
   d="m 398.2,262.5 c 0.1,-0.1 0.3,-0.2 0.5,-0.2 0.3,0 0.6,0.1 0.8,0.4 0.3,0.2 0.4,0.5 0.4,0.7 0,0.1 0,0.2 -0.1,0.2 -1.5,1.4 -3.3,3 -5.5,4.6 -2.2,1.7 -4.6,3.3 -7.1,4.8 -2.6,1.5 -5.3,2.8 -8.1,3.8 -2.8,1 -5.6,1.5 -8.3,1.5 -2.5,0 -4.4,-0.5 -6,-1.4 -1.5,-0.9 -2.7,-2.1 -3.5,-3.3 -0.8,-1.3 -1.4,-2.5 -1.6,-3.8 -0.3,-1.3 -0.5,-2.2 -0.5,-2.8 -0.1,-0.4 -0.1,-0.9 -0.1,-1.7 0,-2.7 0.5,-5.3 1.4,-7.6 0.9,-2.4 2.1,-4.4 3.4,-6.2 1.4,-1.8 2.9,-3.2 4.5,-4.2 1.6,-1 3.1,-1.5 4.5,-1.5 1.4,0 2.5,0.4 3.3,1.2 0.8,0.8 1.2,1.8 1.2,3 0,1.5 -0.6,3.3 -1.9,5.4 -0.5,0.8 -1.3,1.8 -2.5,3 -1.2,1.2 -2.4,2.4 -3.6,3.6 -1.2,1.2 -2.3,2.2 -3.3,3.1 -0.9,0.9 -1.4,1.4 -1.4,1.5 0,0.7 0.2,1.5 0.5,2.5 0.3,0.9 0.8,1.9 1.4,2.7 0.6,0.9 1.4,1.6 2.4,2.2 1,0.6 2.2,0.9 3.6,0.9 2.3,0 4.7,-0.4 7.1,-1.2 2.4,-0.8 4.8,-1.8 7,-3.1 2.2,-1.2 4.4,-2.6 6.4,-4 2,-1.5 3.7,-2.9 5.1,-4.1 z m -24.3,-13 c -0.4,-0.4 -0.8,-0.5 -1.5,-0.5 -1,0 -1.9,0.4 -2.6,1.1 -0.8,0.7 -1.5,1.5 -2.1,2.5 -0.6,0.9 -1.1,1.9 -1.5,3 -0.4,1 -0.7,1.8 -0.9,2.4 -0.4,0.8 -0.6,1.7 -0.7,2.7 -0.1,1.1 -0.2,2.1 -0.3,3.1 1.1,-0.9 2.1,-2 3.3,-3.2 1.1,-1.2 2.2,-2.4 3.2,-3.4 0.3,-0.3 0.6,-0.7 1,-1.2 0.4,-0.5 0.8,-1.1 1.1,-1.7 0.4,-0.6 0.7,-1.3 0.9,-1.9 0.3,-0.6 0.4,-1.2 0.4,-1.7 0,-0.7 -0.1,-1 -0.3,-1.2 z"
   id="path214"
   inkscape:connector-curvature="0"
   style="fill:#4c4846;stroke:#4c4846;stroke-miterlimit:10" />
		<path
   class="st16"
   d="m 402.4,245.7 c 0.5,-0.6 0.9,-1.1 1.4,-1.6 0.4,-0.4 0.7,-0.8 1.2,-1.2 0.4,-0.4 0.7,-0.5 0.9,-0.5 0.1,0 0.2,0.1 0.2,0.3 0,4.4 -0.4,8.8 -1.1,13 -0.7,4.2 -1.6,8.5 -2.5,12.8 1.5,-2.2 3.3,-4.5 5.3,-7 2,-2.5 4,-4.8 6.1,-7 2.1,-2.1 4.1,-3.9 6.2,-5.3 2.1,-1.4 4,-2.1 5.9,-2.1 1.8,0 3.1,0.6 4.2,1.7 1,1.2 1.8,2.6 2.5,4.3 0.6,1.7 1.2,3.6 1.6,5.7 0.4,2.1 0.9,4 1.6,5.7 0.4,1.2 0.8,2.3 1.2,3.4 0.4,1.1 0.8,2.1 1.3,2.9 0.5,0.8 1.1,1.5 1.8,2.1 0.7,0.5 1.6,0.8 2.7,0.8 0.6,-0.1 1.3,-0.2 2.1,-0.4 0.8,-0.2 1.7,-0.5 2.6,-0.9 3.3,-1.5 5.8,-2.7 7.5,-3.8 1.7,-1.1 2.7,-1.7 3,-1.8 0.5,-0.1 1,-0.3 1.5,-0.5 0.5,-0.2 0.9,-0.3 1.1,-0.3 0.1,0 0.1,0 0.2,0.1 0,0.1 -0.2,0.4 -0.5,0.7 -1,1 -2.2,2.1 -3.6,3.3 -1.4,1.2 -3,2.3 -4.8,3.4 -1.8,1.1 -3.6,2 -5.5,2.7 -1.9,0.7 -3.8,1.1 -5.6,1.1 -1.4,0 -2.8,-0.3 -4.1,-0.8 -1.3,-0.5 -2.6,-1.5 -3.8,-2.9 -0.6,-0.6 -1.1,-1.7 -1.5,-3.1 -0.5,-1.4 -0.9,-3 -1.3,-4.7 -0.4,-1.7 -0.8,-3.5 -1.3,-5.3 -0.4,-1.8 -0.8,-3.4 -1.3,-5 -0.4,-1.5 -0.9,-2.7 -1.4,-3.7 -0.5,-0.9 -1.1,-1.4 -1.7,-1.4 -0.8,0 -1.9,0.5 -3.2,1.5 -1.3,1 -2.6,2.3 -4.1,3.8 -1.4,1.6 -3,3.4 -4.5,5.4 -1.6,2 -3.1,4.1 -4.6,6.3 -1.5,2.1 -3,4.3 -4.3,6.4 -1.4,2.1 -2.5,4 -3.5,5.6 -0.2,0.4 -0.8,0.7 -1.6,1 -0.9,0.3 -1.7,0.5 -2.5,0.5 -0.8,0 -1.3,-0.2 -1.3,-0.7 0,-0.1 0,-0.1 0.1,-0.2 0,0 0.1,-0.1 0.1,-0.2 0.7,-2.3 1.5,-5.1 2.3,-8.3 0.8,-3.2 1.6,-6.4 2.3,-9.7 0.7,-3.3 1.4,-6.4 1.9,-9.3 0.5,-2.9 0.6,-5.1 0.8,-6.8 z"
   id="path216"
   inkscape:connector-curvature="0"
   style="fill:#4c4846;stroke:#4c4846;stroke-miterlimit:10" />
	</g>
</g>
</svg>