<svg id="Layer_1" enable-background="new 0 0 511.823 511.823" height="512" viewBox="0 0 511.823 511.823" width="512" xmlns="http://www.w3.org/2000/svg" xmlns:xlink="http://www.w3.org/1999/xlink"><linearGradient id="SVGID_1_" gradientUnits="userSpaceOnUse" x1="255.912" x2="255.912" y1="0" y2="511.823"><stop offset="0" stop-color="#2af598"/><stop offset="1" stop-color="#009efd"/></linearGradient><path d="m420.353 65.169c-48.485-8.689-93.136-35.168-115.436-50.178-14.571-9.807-31.516-14.991-49.005-14.991s-34.435 5.184-49.005 14.991c-22.3 15.01-66.951 41.489-115.436 50.178-28.716 5.146-49.559 29.992-49.559 59.077v120.668c0 39.863 11.153 78.722 33.148 115.499 17.208 28.771 41.05 56.269 70.863 81.729 50.13 42.811 99.769 65.134 101.857 66.063l8.131 3.618 8.131-3.618c2.089-.93 51.727-23.253 101.857-66.063 29.813-25.46 53.656-52.958 70.863-81.729 21.996-36.776 33.148-75.636 33.148-115.499v-120.667c.002-29.086-20.841-53.931-49.557-59.078zm9.559 179.746c0 59.428-30.023 115.334-89.236 166.167-34.423 29.55-69.369 48.809-84.763 56.623-15.405-7.82-50.347-27.078-84.764-56.623-59.213-50.832-89.236-106.738-89.236-166.167v-120.668c0-9.692 6.988-17.979 16.615-19.704 55.699-9.982 105.806-39.602 130.716-56.368 7.943-5.348 17.165-8.175 26.668-8.175s18.725 2.827 26.669 8.174c24.91 16.767 75.017 46.386 130.716 56.368 9.627 1.725 16.615 10.012 16.615 19.704zm-88-11.982c16.569 0 30-13.431 30-30s-13.431-30-30-30c-14.391 0-26.41 10.136-29.322 23.657l-15.893 8.459c-5.956-5.549-13.034-9.901-20.857-12.676v-18.023c6.177-5.495 10.072-13.5 10.072-22.417 0-16.569-13.431-30-30-30s-30 13.431-30 30c0 8.849 3.833 16.801 9.928 22.292v18.148c-7.606 2.698-14.516 6.878-20.366 12.208l-15.278-8.158c-2.974-13.437-14.951-23.49-29.283-23.49-16.569 0-30 13.431-30 30s13.431 30 30 30c3.4 0 6.664-.574 9.71-1.616l15.909 8.495c-.456 2.975-.692 6.021-.692 9.121 0 3.42.303 6.769.855 10.034l-16.073 8.582c-3.047-1.042-6.311-1.616-9.711-1.616-16.569 0-30 13.431-30 30s13.431 30 30 30c14.332 0 26.309-10.053 29.283-23.49l15.989-8.538c5.698 5.03 12.351 8.997 19.655 11.588v18.148c-6.094 5.491-9.928 13.443-9.928 22.292 0 16.569 13.431 30 30 30s30-13.431 30-30c0-8.918-3.895-16.922-10.072-22.417v-18.023c7.524-2.669 14.365-6.79 20.176-12.039l16.575 8.822c2.911 13.521 14.93 23.657 29.322 23.657 16.569 0 30-13.431 30-30s-13.431-30-30-30c-3.337 0-6.543.553-9.541 1.559l-17.267-9.191c.481-3.053.736-6.181.736-9.367 0-2.865-.215-5.679-.605-8.438l17.136-9.121c2.999 1.005 6.205 1.558 9.542 1.558zm-86.073 36c-11.028 0-20-8.972-20-20s8.972-20 20-20 20 8.972 20 20-8.972 20-20 20z" fill="url(#SVGID_1_)"/></svg>