<?xml version="1.0" encoding="UTF-8" standalone="no"?>
<!-- Generator: Adobe Illustrator 17.0.0, SVG Export Plug-In . SVG Version: 6.00 Build 0)  -->

<svg
   xmlns:dc="http://purl.org/dc/elements/1.1/"
   xmlns:cc="http://creativecommons.org/ns#"
   xmlns:rdf="http://www.w3.org/1999/02/22-rdf-syntax-ns#"
   xmlns:svg="http://www.w3.org/2000/svg"
   xmlns="http://www.w3.org/2000/svg"
   xmlns:sodipodi="http://sodipodi.sourceforge.net/DTD/sodipodi-0.dtd"
   xmlns:inkscape="http://www.inkscape.org/namespaces/inkscape"
   version="1.1"
   id="Layer_1"
   x="0px"
   y="0px"
   width="3920"
   height="1083.423"
   viewBox="236.577 1443.492 3920.0001 1083.423"
   enable-background="new 236.577 1443.492 1083.423 1083.423"
   xml:space="preserve"
   inkscape:version="0.91 r13725"
   sodipodi:docname="santalab-logo-footer.svg"><metadata
     id="metadata19"><rdf:RDF><cc:Work
         rdf:about=""><dc:format>image/svg+xml</dc:format><dc:type
           rdf:resource="http://purl.org/dc/dcmitype/StillImage" /><dc:title>Recurso 2</dc:title></cc:Work></rdf:RDF></metadata><defs
     id="defs17" /><sodipodi:namedview
     pagecolor="#ffffff"
     bordercolor="#666666"
     borderopacity="1"
     objecttolerance="10"
     gridtolerance="10"
     guidetolerance="10"
     inkscape:pageopacity="0"
     inkscape:pageshadow="2"
     inkscape:window-width="1600"
     inkscape:window-height="879"
     id="namedview15"
     showgrid="false"
     fit-margin-top="0"
     fit-margin-left="0"
     fit-margin-right="0"
     fit-margin-bottom="0"
     inkscape:zoom="0.1767767"
     inkscape:cx="-432.95299"
     inkscape:cy="552.30977"
     inkscape:window-x="0"
     inkscape:window-y="21"
     inkscape:window-maximized="1"
     inkscape:current-layer="Layer_1" /><title
     id="title3">Recurso 2</title><g
     id="Capa_2"
     transform="translate(1418.2885,-6.9824219e-5)"><g
       id="Capa_1-2"><path
         d="m 1093.356,2210.029 c 1.58,-1.171 3.752,-3.315 3.752,-8.168 0.174,-2.546 -0.964,-5.004 -3.019,-6.518 -2.821,-2.116 -7.59,-3.273 -13.529,-3.273 l -26.14,0 0,21.443 25.153,0 c 5.869,-0.014 10.792,-1.185 13.783,-3.484 z"
         id="path7"
         inkscape:connector-curvature="0"
         style="fill:#00b799" /><path
         d="m 1099.93,2247.596 c -2.568,-1.721 -7.815,-3.739 -17.986,-3.739 l -27.509,0 0,22.444 29.851,0 c 7.195,0 19.298,-1.495 19.298,-11.652 0.217,-2.854 -1.198,-5.585 -3.654,-7.053 z"
         id="path9"
         inkscape:connector-curvature="0"
         style="fill:#00b799" /><polygon
         points="790.364,1719.483 778.133,1746.696 802.468,1746.696 "
         id="polygon11"
         style="fill:#00b799" /><path
         d="m 236.577,1443.492 0,1083.423 1083.423,0 0,-1083.423 -1083.423,0 z m 273.352,311.88 c -23.093,-5.008 -46.553,-14.022 -46.553,-42.998 -0.076,-11.692 5.134,-22.792 14.178,-30.203 8.662,-7.195 20.582,-11.159 33.49,-11.159 18.339,0 32.785,5.078 46.878,16.406 l 7.054,5.643 -18.974,25.181 -7.533,-6.122 c -8.873,-7.209 -17.676,-10.538 -27.763,-10.538 -9.141,0 -15.518,3.95 -15.518,9.635 0,4.232 0,8.464 24.264,13.684 15.123,3.301 25.548,7.745 32.869,13.98 8.351,7.054 12.541,16.632 12.541,28.327 0,25.054 -20.215,42.533 -49.191,42.533 -20.385,0 -38.089,-6.884 -53.875,-21.048 l -6.785,-6.08 20.258,-23.982 7.166,6.489 c 11.286,10.129 20.695,14.107 33.744,14.107 7.674,0 16.632,-2.821 16.632,-10.637 0.014,-4.133 0.014,-8.394 -22.882,-13.218 z m -53.381,161.709 110.402,0 0,30.909 -39.175,0 0,104.491 -32.037,0 0,-104.505 -39.189,0 0,-30.895 z m 110.628,379.805 -97.522,0 0,-135.343 31.868,0 0,104.392 65.64,0 0.014,30.951 z m 239.002,-53.113 -15.8,-35.479 -15.927,35.479 -33.716,0 37.553,-83.105 24.419,0 37.652,83.105 -34.181,0 z m 23.46,-191.292 -16.082,-36.396 -5.191,-11.864 -17.958,-40.346 -18.114,40.36 -5.177,11.892 -16.336,36.354 -34.069,0 61.577,-136.218 24.405,0 61.648,136.218 -34.703,0 z m 0,-244.405 -13.656,-30.838 -51.392,0 -13.839,30.838 -34.04,0 61.577,-136.218 24.419,0 61.634,136.218 -34.703,0 z m 254.336,488.81 -61.267,0 0,-135.343 59.038,0 c 28.327,0 47.358,15.518 47.358,38.526 0.215,9.347 -3.134,18.425 -9.367,25.393 10.165,6.574 16.181,17.96 15.885,30.062 0,25.125 -20.328,41.362 -51.674,41.362 l 0.027,0 z m 53.918,-488.81 -24.405,0 -61.521,-78.026 0,78.026 -31.487,0 0,-135.428 26.239,0 59.616,75.84 0,-75.811 31.529,0 0.029,135.399 z"
         id="path13"
         inkscape:connector-curvature="0"
         style="fill:#00b799" /></g></g></svg>