<?xml version="1.0" encoding="UTF-8" standalone="no"?>
<!-- Generator: Adobe Illustrator 17.0.0, SVG Export Plug-In . SVG Version: 6.00 Build 0)  -->

<svg
   xmlns:dc="http://purl.org/dc/elements/1.1/"
   xmlns:cc="http://creativecommons.org/ns#"
   xmlns:rdf="http://www.w3.org/1999/02/22-rdf-syntax-ns#"
   xmlns:svg="http://www.w3.org/2000/svg"
   xmlns="http://www.w3.org/2000/svg"
   xmlns:sodipodi="http://sodipodi.sourceforge.net/DTD/sodipodi-0.dtd"
   xmlns:inkscape="http://www.inkscape.org/namespaces/inkscape"
   version="1.1"
   id="Layer_1"
   x="0px"
   y="0px"
   width="625.203px"
   height="625.204px"
   viewBox="0 0 625.203 625.204"
   enable-background="new 0 0 625.203 625.204"
   xml:space="preserve"
   inkscape:version="0.91 r13725"
   sodipodi:docname="santafelogo-ark.svg"><metadata
     id="metadata11"><rdf:RDF><cc:Work
         rdf:about=""><dc:format>image/svg+xml</dc:format><dc:type
           rdf:resource="http://purl.org/dc/dcmitype/StillImage" /><dc:title></dc:title></cc:Work></rdf:RDF></metadata><defs
     id="defs9" /><sodipodi:namedview
     pagecolor="#ffffff"
     bordercolor="#666666"
     borderopacity="1"
     objecttolerance="10"
     gridtolerance="10"
     guidetolerance="10"
     inkscape:pageopacity="0"
     inkscape:pageshadow="2"
     inkscape:window-width="1366"
     inkscape:window-height="747"
     id="namedview7"
     showgrid="false"
     inkscape:zoom="0.3774768"
     inkscape:cx="307.30316"
     inkscape:cy="312.60199"
     inkscape:window-x="0"
     inkscape:window-y="21"
     inkscape:window-maximized="1"
     inkscape:current-layer="Layer_1" /><path
     fill-rule="evenodd"
     clip-rule="evenodd"
     fill="#FFFFFF"
     d="M291.069,238.985H114.508c-6.192,0-11.241,5.081-11.241,11.338  v242.294c0,6.177,5.049,11.217,11.241,11.217h66.055c6.168,0,11.209-5.041,11.209-11.217v-85.671H277.5  c6.225,0,11.258-5.073,11.258-11.322v-46.343c0-6.257-5.033-11.314-11.258-11.314h-85.728v-23.675h99.297  c6.168,0,11.201-5.073,11.201-11.29v-52.68C302.27,244.066,297.237,238.985,291.069,238.985 M510.438,311.128  c6.176,0,11.233-5.049,11.233-11.314v-49.483c0-6.265-5.057-11.346-11.233-11.346H336.856c-0.902,0-1.78,0.137-2.617,0.346  c-2.537,0.354-4.526,0.926-5.919,1.538c-4.228,1.611-7.231,5.645-7.231,10.436v241.151c0,6.2,5.009,11.193,11.209,11.193h178.139  c6.176,0,11.233-5.049,11.233-11.29v-49.507c0-6.249-5.057-11.314-11.233-11.314H408.283v-24.593h89.327  c6.208,0,11.249-5.081,11.249-11.33v-46.335c0-6.257-5.041-11.314-11.249-11.314h-89.327v-26.839H510.438z M0,0h625.203v625.204H0V0  z"
     id="path3"
     style="fill:#1d1d24;fill-opacity:1" /><path
     fill="#4D4D4F"
     d="M175.628,219.477h13.238c2.094,0,3.906-0.62,5.355-1.804l2.883-3.913l6.184-16.822h33.95l6.184,16.854  l2.939,4.002c1.49,1.12,3.269,1.683,5.387,1.683h13.279l2.818-2.794l-0.58-1.699l-35.705-90.841l-2.625-1.78h-17.345l-2.641,1.78  l-35.898,91.462l0.282,2.633L175.628,219.477z M219.41,152.826l0.87-2.319l0.781,2.158l9.768,26.638h-21.13L219.41,152.826z   M277.389,219.477h14.994l2.826-2.818v-55.224l42.429,54.001l3.608,3.14l4.526,0.902h8.81l2.834-2.818v-91.486l-2.834-2.826h-14.97  l-2.818,2.826v55.233l-42.574-54.25l-1.53-1.715l-1.908-1.328l-2.182-0.644l-2.239-0.12h-8.971l-2.794,2.826v91.486L277.389,219.477  z M367.892,141.971h24.81v74.688l2.859,2.818h17.007l2.778-2.818v-74.688h24.762l2.778-2.826v-13.972l-2.778-2.81h-72.216  l-2.835,2.81v13.972L367.892,141.971z M428.141,218.237l2.359,1.24h13.174c2.134,0,3.946-0.62,5.435-1.804l2.859-3.913l6.144-16.822  h34.014l6.128,16.854l2.955,4.002c1.458,1.12,3.269,1.683,5.363,1.683h13.279l2.802-2.794l-0.588-1.699l-35.665-90.841l-2.593-1.78  h-17.41l-2.617,1.78l-35.923,91.462L428.141,218.237z M474.299,152.826l0.862-2.319l0.789,2.158l9.719,26.638h-21.122  L474.299,152.826z M109.46,212.914c2.384,1.595,5.001,2.94,7.779,4.083c2.746,1.087,5.621,1.957,8.608,2.585  c3.004,0.604,6.08,0.878,9.188,0.878c5.379,0,10.275-0.838,14.479-2.496c4.316-1.65,7.924-4.01,10.903-6.925  c2.996-2.939,5.282-6.45,6.845-10.396c1.538-3.905,2.319-8.181,2.319-12.634c0-4.171-0.685-7.852-2.029-10.863  c-1.369-2.955-3.181-5.532-5.476-7.61c-2.158-2.037-4.679-3.728-7.465-5.017c-2.593-1.272-5.323-2.384-8.012-3.31  c-2.665-0.902-5.282-1.78-7.819-2.577c-2.335-0.765-4.501-1.587-6.37-2.553l-3.889-2.971l-1.127-3.576l0.652-3.575l1.925-2.561  l3.487-1.868c3.108-0.982,8.101-0.91,11.193,0.105l4.566,1.997l3.624,2.109c2.979,1.877,5.798,1.756,7.98,0.419l2.625-3.036  l4.163-8.036l-0.54-3.35c-3.463-3.261-7.698-5.822-12.602-7.658c-9.156-3.422-21.106-3.68-29.666-0.298  c-4.034,1.587-7.505,3.784-10.275,6.474c-2.843,2.697-5.001,5.846-6.49,9.341c-1.474,3.503-2.214,7.143-2.214,10.815  c0,4.558,0.701,8.488,2.053,11.628c1.329,3.205,3.141,5.903,5.395,8.045c2.198,2.126,4.759,3.849,7.521,5.154  c2.633,1.224,5.339,2.295,8.061,3.189c2.649,0.838,5.275,1.626,7.787,2.351c2.327,0.668,4.421,1.473,6.257,2.416l3.881,3.06  l1.168,4.139c0,3.503-0.958,6.039-2.979,7.787c-2.134,1.836-5.299,2.786-9.422,2.786c-2.826,0-5.186-0.378-7.143-1.103  c-2.094-0.805-3.906-1.699-5.395-2.641l-4.187-2.818c-3.084-2.142-6.225-2.279-8.729-0.789l-2.617,2.44l-4.92,8.149l0.411,3.406  C104.846,209.548,107.044,211.32,109.46,212.914"
     id="path5"
     style="fill:#ffffff" /></svg>
