<?xml version="1.0" encoding="utf-8"?>
<!-- Generator: Adobe Illustrator 17.0.0, SVG Export Plug-In . SVG Version: 6.00 Build 0)  -->
<!DOCTYPE svg PUBLIC "-//W3C//DTD SVG 1.1//EN" "http://www.w3.org/Graphics/SVG/1.1/DTD/svg11.dtd">
<svg version="1.1" id="Layer_1" xmlns="http://www.w3.org/2000/svg" xmlns:xlink="http://www.w3.org/1999/xlink" x="0px" y="0px"
	 width="1083.423px" height="1083.423px" viewBox="236.577 1443.492 1083.423 1083.423"
	 enable-background="new 236.577 1443.492 1083.423 1083.423" xml:space="preserve">
<title>Recurso 2</title>
<g id="Capa_2">
	<g id="Capa_1-2">
		<path fill="#00B799" d="M1093.356,2210.029c1.58-1.171,3.752-3.315,3.752-8.168c0.174-2.546-0.964-5.004-3.019-6.518
			c-2.821-2.116-7.59-3.273-13.529-3.273h-26.14v21.443h25.153C1085.442,2213.499,1090.365,2212.328,1093.356,2210.029z"/>
		<path fill="#00B799" d="M1099.93,2247.596c-2.568-1.721-7.815-3.739-17.986-3.739h-27.509v22.444h29.851
			c7.195,0,19.298-1.495,19.298-11.652C1103.801,2251.795,1102.386,2249.064,1099.93,2247.596z"/>
		<polygon fill="#00B799" points="778.133,1746.696 802.468,1746.696 790.364,1719.483 		"/>
		<path fill="#00B799" d="M236.577,1443.492v1083.423H1320V1443.492H236.577z M509.929,1755.372
			c-23.093-5.008-46.553-14.022-46.553-42.998c-0.076-11.692,5.134-22.792,14.178-30.203c8.662-7.195,20.582-11.159,33.49-11.159
			c18.339,0,32.785,5.078,46.878,16.406l7.054,5.643l-18.974,25.181l-7.533-6.122c-8.873-7.209-17.676-10.538-27.763-10.538
			c-9.141,0-15.518,3.95-15.518,9.635c0,4.232,0,8.464,24.264,13.684c15.123,3.301,25.548,7.745,32.869,13.98
			c8.351,7.054,12.541,16.632,12.541,28.327c0,25.054-20.215,42.533-49.191,42.533c-20.385,0-38.089-6.884-53.875-21.048
			l-6.785-6.08l20.258-23.982l7.166,6.489c11.286,10.129,20.695,14.107,33.744,14.107c7.674,0,16.632-2.821,16.632-10.637
			C532.825,1764.457,532.825,1760.196,509.929,1755.372z M456.548,1917.081H566.95v30.909h-39.175v104.491h-32.037v-104.505h-39.189
			V1917.081z M567.176,2296.886h-97.522v-135.343h31.868v104.392h65.64L567.176,2296.886z M806.178,2243.773l-15.8-35.479
			l-15.927,35.479h-33.716l37.553-83.105h24.419l37.652,83.105H806.178z M829.638,2052.481l-16.082-36.396l-5.191-11.864
			l-17.958-40.346l-18.114,40.36l-5.177,11.892l-16.336,36.354h-34.069l61.577-136.218h24.405l61.648,136.218H829.638z
			 M829.638,1808.076l-13.656-30.838H764.59l-13.839,30.838h-34.04l61.577-136.218h24.419l61.634,136.218L829.638,1808.076z
			 M1083.974,2296.886h-61.267v-135.343h59.038c28.327,0,47.358,15.518,47.358,38.526c0.215,9.347-3.134,18.425-9.367,25.393
			c10.165,6.574,16.181,17.96,15.885,30.062c0,25.125-20.328,41.362-51.674,41.362H1083.974z M1137.892,1808.076h-24.405
			l-61.521-78.026v78.026h-31.487v-135.428h26.239l59.616,75.84v-75.811h31.529L1137.892,1808.076z"/>
	</g>
</g>
</svg>
