<?xml version="1.0" encoding="UTF-8" standalone="no"?>
<!-- Generator: Adobe Illustrator 16.0.0, SVG Export Plug-In . SVG Version: 6.00 Build 0)  -->

<svg
   xmlns:dc="http://purl.org/dc/elements/1.1/"
   xmlns:cc="http://creativecommons.org/ns#"
   xmlns:rdf="http://www.w3.org/1999/02/22-rdf-syntax-ns#"
   xmlns:svg="http://www.w3.org/2000/svg"
   xmlns="http://www.w3.org/2000/svg"
   xmlns:sodipodi="http://sodipodi.sourceforge.net/DTD/sodipodi-0.dtd"
   xmlns:inkscape="http://www.inkscape.org/namespaces/inkscape"
   version="1.1"
   id="Capa_1"
   x="0px"
   y="0px"
   width="122.574px"
   height="122.574px"
   viewBox="0 0 122.574 122.574"
   style="enable-background:new 0 0 122.574 122.574;"
   xml:space="preserve"
   inkscape:version="0.91 r13725"
   sodipodi:docname="urna-white.svg"><metadata
     id="metadata49"><rdf:RDF><cc:Work
         rdf:about=""><dc:format>image/svg+xml</dc:format><dc:type
           rdf:resource="http://purl.org/dc/dcmitype/StillImage" /><dc:title></dc:title></cc:Work></rdf:RDF></metadata><defs
     id="defs47" /><sodipodi:namedview
     pagecolor="#ffffff"
     bordercolor="#666666"
     borderopacity="1"
     objecttolerance="10"
     gridtolerance="10"
     guidetolerance="10"
     inkscape:pageopacity="0"
     inkscape:pageshadow="2"
     inkscape:window-width="1600"
     inkscape:window-height="879"
     id="namedview45"
     showgrid="false"
     inkscape:zoom="1.9253676"
     inkscape:cx="-16.360512"
     inkscape:cy="61.286999"
     inkscape:window-x="0"
     inkscape:window-y="21"
     inkscape:window-maximized="1"
     inkscape:current-layer="Capa_1" /><g
     id="g3"
     style="fill:#ffffff"><g
       id="g5"
       style="fill:#ffffff"><path
         d="M97.436,36.438H74.706l-5.326,5.326h24.761l8.155,16.35H20.28l8.155-16.35h22.153l-5.326-5.326H25.14L13.312,60.151    v62.423h95.951V60.151L97.436,36.438z M103.938,117.248h-85.3V63.441h85.3V117.248z"
         id="path7"
         style="fill:#ffffff;fill-opacity:1" /><path
         d="M58.771,47.288H48.428l-1.065,3.195H75.39l-1.132-3.195H61.642l27.576-27.574c0.686-0.685,0.686-1.793,0-2.478    L72.495,0.513c-0.685-0.684-1.795-0.684-2.479,0L42.245,28.286c-0.685,0.684-0.685,1.793,0,2.477L58.771,47.288z M68.829,6.655    l-4.106,16.429l-16.356,4.034L68.829,6.655z M66.585,26.232c0.316-0.077,0.598-0.239,0.82-0.462    c0.221-0.221,0.381-0.5,0.459-0.814l4.824-19.294l12.812,12.813L60.206,43.768L47.401,30.964L66.585,26.232z"
         id="path9"
         style="fill:#ffffff;fill-opacity:1" /><path
         d="M45.333,113.938c0.479,0.479,1.256,0.479,1.735,0L66.52,94.487c0.479-0.479,0.479-1.255,0-1.735L54.809,81.04    c-0.479-0.479-1.256-0.479-1.735,0l-19.452,19.451c-0.479,0.479-0.479,1.256,0,1.735L45.333,113.938z M52.241,85.342    l-2.876,11.506L37.91,99.673L52.241,85.342z M50.668,99.054c0.222-0.055,0.418-0.168,0.575-0.323    c0.154-0.155,0.267-0.351,0.322-0.57l3.377-13.513l8.975,8.973l-17.716,17.716l-8.967-8.968L50.668,99.054z"
         id="path11"
         style="fill:#ffffff;fill-opacity:1" /><path
         d="M76.653,98.779c0.416,0.533,1.186,0.628,1.721,0.212l13.062-10.184c0.533-0.416,0.628-1.188,0.212-1.723L74.733,65.391    c-0.416-0.533-1.188-0.629-1.722-0.213L59.95,75.364c-0.533,0.416-0.628,1.188-0.212,1.722L76.653,98.779z M87.481,85.73    l-11.066-4.269L75.02,69.747L87.481,85.73z M72.429,68.746l1.64,13.74c0.026,0.226,0.114,0.437,0.25,0.609    c0.136,0.172,0.315,0.31,0.526,0.391l12.996,5.012l-10.008,7.806L62.427,76.544L72.429,68.746z"
         id="path13"
         style="fill:#ffffff;fill-opacity:1" /></g></g><g
     id="g15" /><g
     id="g17" /><g
     id="g19" /><g
     id="g21" /><g
     id="g23" /><g
     id="g25" /><g
     id="g27" /><g
     id="g29" /><g
     id="g31" /><g
     id="g33" /><g
     id="g35" /><g
     id="g37" /><g
     id="g39" /><g
     id="g41" /><g
     id="g43" /></svg>