<?xml version="1.0" encoding="UTF-8" standalone="no"?>
<!-- Generator: Adobe Illustrator 19.0.0, SVG Export Plug-In . SVG Version: 6.00 Build 0)  -->

<svg
   xmlns:dc="http://purl.org/dc/elements/1.1/"
   xmlns:cc="http://creativecommons.org/ns#"
   xmlns:rdf="http://www.w3.org/1999/02/22-rdf-syntax-ns#"
   xmlns:svg="http://www.w3.org/2000/svg"
   xmlns="http://www.w3.org/2000/svg"
   xmlns:sodipodi="http://sodipodi.sourceforge.net/DTD/sodipodi-0.dtd"
   xmlns:inkscape="http://www.inkscape.org/namespaces/inkscape"
   version="1.1"
   id="Capa_1"
   x="0px"
   y="0px"
   viewBox="0 0 512 512"
   style="enable-background:new 0 0 512 512;"
   xml:space="preserve"
   inkscape:version="0.91 r13725"
   sodipodi:docname="comunidad-linea (copy).svg"><metadata
     id="metadata49"><rdf:RDF><cc:Work
         rdf:about=""><dc:format>image/svg+xml</dc:format><dc:type
           rdf:resource="http://purl.org/dc/dcmitype/StillImage" /></cc:Work></rdf:RDF></metadata><defs
     id="defs47" /><sodipodi:namedview
     pagecolor="#ffffff"
     bordercolor="#666666"
     borderopacity="1"
     objecttolerance="10"
     gridtolerance="10"
     guidetolerance="10"
     inkscape:pageopacity="0"
     inkscape:pageshadow="2"
     inkscape:window-width="640"
     inkscape:window-height="480"
     id="namedview45"
     showgrid="false"
     inkscape:zoom="0.921875"
     inkscape:cx="239.87979"
     inkscape:cy="302.78408"
     inkscape:window-x="0"
     inkscape:window-y="21"
     inkscape:window-maximized="0"
     inkscape:current-layer="Capa_1" /><g
     id="g3"
     style="fill:#4d4d4d"><g
       id="g5"
       style="fill:#4d4d4d"><path
         d="M 293.211,0.013 C 278.723,0.012 265.976,5.906 256.001,17.136 246.024,5.906 233.279,0.012 218.791,0.012 c -29.837,0 -53.209,24.331 -53.209,55.391 0,32.169 24.994,53.121 59.586,82.117 6.706,5.621 13.639,11.434 21.009,17.82 2.819,2.443 6.321,3.665 9.824,3.665 3.502,0 7.005,-1.222 9.824,-3.665 6.71,-5.816 13.04,-11.158 19.162,-16.325 35.126,-29.647 61.433,-51.771 61.433,-83.611 0,-31.06 -23.372,-55.391 -53.209,-55.391 z"
         id="path7"
         style="fill:#aa0000"
         inkscape:connector-curvature="0"
         sodipodi:nodetypes="ccssccscssc" /></g></g><g
     id="g9"
     style="fill:#4d4d4d"><g
       id="g11"
       style="fill:#4d4d4d"><path
         d="M507.449,151.586c14.176-38.948-5.869-81.947-44.823-96.125c-38.859-14.143-81.98,5.964-96.124,44.823    c-7.3,20.056-5.801,41.833,4.213,60.779c-56.151,3.826-100.628,44.432-112.226,93.016l-0.47,1.972    c-2.049-0.068-1.967-0.069-4.039,0c-12.802-53.675-59.052-91.332-112.696-94.987c10.014-18.941,11.515-40.722,4.214-60.78    c-14.143-38.859-57.263-58.967-96.124-44.823C10.427,69.637-9.627,112.631,4.551,151.585c7.563,20.777,23.41,36.187,42.458,43.874    C7.923,233.356-1.466,291.634,21.314,338.943l78.734,164.521c2.493,5.209,7.755,8.525,13.529,8.525c27.409,0,256.042,0,284.844,0    c5.775,0,11.037-3.315,13.529-8.525l78.719-164.489c22.937-47.637,13.172-105.847-25.681-143.517    C484.039,187.771,499.888,172.361,507.449,151.586z M256.001,285.999c16.541,0,29.999,13.457,29.999,29.999    s-13.457,29.999-29.999,29.999s-29.999-13.457-29.999-29.999S239.459,285.999,256.001,285.999z M32.741,141.325    c-8.506-23.37,3.522-49.167,26.895-57.674c23.463-8.54,49.201,3.615,57.674,26.895c8.506,23.37-3.522,49.167-26.895,57.674    C67.047,176.726,41.248,164.697,32.741,141.325z M123.028,481.991l-74.67-156.029c-24.079-50.008,0.466-110.681,52.317-129.553    c52.094-18.96,110.004,11.313,123.681,64.741l0.811,3.403c-14.665,8.823-25.257,23.736-28.274,41.213l-34.927-25.791    c-19.823-14.844-48.048-10.808-62.952,9.02c-14.76,19.674-11.099,47.947,8.967,62.979l81.679,61.497l17.13,68.52H123.028z     M294.524,401.043l-20.236,80.947h-36.575l-20.237-80.947c-0.833-3.333-2.786-6.279-5.53-8.345l-85.949-64.712    c-6.639-4.973-7.951-14.371-2.995-20.978c4.976-6.619,14.395-7.968,20.999-3.009c0.032,0.024,0.064,0.048,0.096,0.072    l62.847,46.407c10.87,15.417,28.8,25.517,49.055,25.517s38.185-10.1,49.055-25.517l62.925-46.465    c6.628-4.959,16.054-3.62,21.01,2.984c4.965,6.618,3.665,16.007-3.015,21.011l-85.92,64.69    C297.31,394.764,295.358,397.71,294.524,401.043z M463.627,325.994L388.973,481.99H305.21l17.13-68.52l81.65-61.475    c19.905-14.912,23.927-43.1,8.994-63.003c-14.873-19.817-43.127-23.853-62.901-9.054l-34.976,25.827    c-3.018-17.477-13.608-32.391-28.274-41.212l0.811-3.403c13.694-53.496,71.654-83.676,123.682-64.741    C463.236,215.302,487.697,276.002,463.627,325.994z M479.261,141.325c-8.507,23.37-34.302,35.4-57.674,26.895    c-23.37-8.507-35.4-34.302-26.895-57.674c8.507-23.37,34.301-35.4,57.674-26.895C475.736,92.157,487.767,117.952,479.261,141.325z    "
         id="path13"
         style="fill:#4d4d4d" /></g></g><g
     id="g15" /><g
     id="g17" /><g
     id="g19" /><g
     id="g21" /><g
     id="g23" /><g
     id="g25" /><g
     id="g27" /><g
     id="g29" /><g
     id="g31" /><g
     id="g33" /><g
     id="g35" /><g
     id="g37" /><g
     id="g39" /><g
     id="g41" /><g
     id="g43" /></svg>