<?xml version="1.0" encoding="UTF-8" standalone="no"?>
<!-- Generator: Adobe Illustrator 19.0.0, SVG Export Plug-In . SVG Version: 6.00 Build 0)  -->

<svg
   xmlns:dc="http://purl.org/dc/elements/1.1/"
   xmlns:cc="http://creativecommons.org/ns#"
   xmlns:rdf="http://www.w3.org/1999/02/22-rdf-syntax-ns#"
   xmlns:svg="http://www.w3.org/2000/svg"
   xmlns="http://www.w3.org/2000/svg"
   xmlns:sodipodi="http://sodipodi.sourceforge.net/DTD/sodipodi-0.dtd"
   xmlns:inkscape="http://www.inkscape.org/namespaces/inkscape"
   version="1.1"
   id="Capa_1"
   x="0px"
   y="0px"
   viewBox="0 0 512 512"
   style="enable-background:new 0 0 512 512;"
   xml:space="preserve"
   inkscape:version="0.91 r13725"
   sodipodi:docname="icon-institucional.svg"><metadata
     id="metadata506"><rdf:RDF><cc:Work
         rdf:about=""><dc:format>image/svg+xml</dc:format><dc:type
           rdf:resource="http://purl.org/dc/dcmitype/StillImage" /><dc:title></dc:title></cc:Work></rdf:RDF></metadata><defs
     id="defs504" /><sodipodi:namedview
     pagecolor="#ffffff"
     bordercolor="#666666"
     borderopacity="1"
     objecttolerance="10"
     gridtolerance="10"
     guidetolerance="10"
     inkscape:pageopacity="0"
     inkscape:pageshadow="2"
     inkscape:window-width="1366"
     inkscape:window-height="747"
     id="namedview502"
     showgrid="false"
     inkscape:zoom="0.4609375"
     inkscape:cx="-68.338983"
     inkscape:cy="256"
     inkscape:window-x="0"
     inkscape:window-y="21"
     inkscape:window-maximized="1"
     inkscape:current-layer="Capa_1" /><g
     id="g466"
     style="fill:#0b3371;fill-opacity:1"><g
       id="g468"
       style="fill:#0b3371;fill-opacity:1"><path
         d="M482,261.953c19.137-21.439,30-50.009,30-79.377V75c0-24.813-20.187-45-45-45c-5.852,0-11.446,1.123-16.579,3.164    C445.211,14.075,427.718,0,407,0c-20.718,0-38.211,14.075-43.421,33.164C358.446,31.123,352.852,30,347,30H230.974    c-21.573-19.394-49.171-30-78.4-30H75C50.187,0,30,20.187,30,45c0,5.852,1.123,11.446,3.164,16.579C14.075,66.789,0,84.282,0,105    s14.075,38.211,33.164,43.421C31.123,153.554,30,159.148,30,165c0,19.555,12.541,36.228,30,42.42v73.609    c-19.394,21.571-30,49.167-30,78.395V437c0,24.813,20.187,45,45,45c5.852,0,11.446-1.123,16.579-3.164    C96.789,497.925,114.282,512,135,512s38.211-14.075,43.421-33.164C183.554,480.877,189.148,482,195,482h85.048    c21.438,19.137,50.008,30,79.376,30H437c24.813,0,45-20.187,45-45c0-5.852-1.123-11.446-3.164-16.579    C497.925,445.211,512,427.718,512,407c0-20.718-14.075-38.211-33.164-43.421C480.877,358.446,482,352.852,482,347V261.953z     M45,120c-8.271,0-15-6.729-15-15s6.729-15,15-15c11.007,0,80.336,0,90,0c8.284,0,15-6.716,15-15s-6.716-15-15-15H75    c-8.271,0-15-6.729-15-15s6.729-15,15-15h77.574c23.353,0,45.307,9.094,61.82,25.606c2.813,2.813,6.628,4.294,10.606,4.294h79.58    C302.915,64.595,302,69.742,302,75v60c0,7.991-7.477,15-16,15h-30c-4.948,0-9.642,2.467-12.459,6.648l-35.992,53.692    C201.485,192.759,184.697,180,165,180H75c-8.271,0-15-6.729-15-15s6.729-15,15-15h60c8.284,0,15-6.716,15-15s-6.716-15-15-15    C124.466,120,59.273,120,45,120z M327.675,257.888l-43.973,65.601l-69.378-69.378l43.974-65.6L327.675,257.888z M210,377v60    c0,8.271-6.729,15-15,15s-15-6.729-15-15v-60c0-8.284-6.716-15-15-15s-15,6.716-15,15c0,10.534,0,75.727,0,90    c0,8.271-6.729,15-15,15s-15-6.729-15-15c0-11.007,0-80.336,0-90c0-8.284-6.716-15-15-15s-15,6.716-15,15v60    c0,8.271-6.729,15-15,15s-15-6.729-15-15v-77.576c0-23.35,9.094-45.303,25.606-61.813c2.813-2.813,4.394-6.628,4.394-10.607V210    h75c8.271,0,15,6.729,15,15v31c0,6.717,4.427,10.606,4.493,10.706c0.001,0,0.001,0.001,0.002,0.001l65.662,65.662    c-9.786,1.245-18.939,5.601-26.235,12.575C214.944,353.526,210,364.911,210,377z M482,407c0,8.271-6.729,15-15,15    c-11.007,0-80.336,0-90,0c-8.284,0-15,6.716-15,15s6.716,15,15,15h60c8.271,0,15,6.729,15,15s-6.729,15-15,15h-77.576    c-23.647,0-46.542-9.333-62.813-25.606c-2.813-2.813-6.629-4.394-10.607-4.394H237.42c1.665-4.695,2.58-9.742,2.58-15v-60    c0-7.991,7.477-15,16-15h30c5.006,0,9.689-2.526,12.46-6.648l35.991-53.692C340.545,319.298,357.316,332,377,332h60    c8.271,0,15,6.729,15,15s-6.729,15-15,15h-60c-8.284,0-15,6.716-15,15s6.716,15,15,15c10.534,0,75.727,0,90,0    C475.271,392,482,398.729,482,407z M456.395,245.389c-2.813,2.813-4.395,6.629-4.395,10.607v48.583    c-4.695-1.665-9.741-2.58-15-2.58h-60c-8.271,0-15-6.729-15-15v-31c0-4.386-2.069-8.606-4.498-10.711l-65.658-65.658    c9.786-1.245,18.939-5.601,26.234-12.575C327.056,158.474,332,147.089,332,135V75c0-8.271,6.729-15,15-15s15,6.729,15,15v60    c0,8.284,6.716,15,15,15s15-6.716,15-15c0-10.534,0-75.727,0-90c0-8.271,6.729-15,15-15s15,6.729,15,15c0,11.007,0,80.336,0,90    c0,8.284,6.716,15,15,15s15-6.716,15-15V75c0-8.271,6.729-15,15-15s15,6.729,15,15v107.576    C482,206.224,472.667,229.118,456.395,245.389z"
         id="path470"
         style="fill:#0b3371;fill-opacity:1" /></g></g><g
     id="g472" /><g
     id="g474" /><g
     id="g476" /><g
     id="g478" /><g
     id="g480" /><g
     id="g482" /><g
     id="g484" /><g
     id="g486" /><g
     id="g488" /><g
     id="g490" /><g
     id="g492" /><g
     id="g494" /><g
     id="g496" /><g
     id="g498" /><g
     id="g500" /></svg>