<?xml version="1.0" encoding="UTF-8" standalone="no"?>
<!-- Generator: Adobe Illustrator 16.0.0, SVG Export Plug-In . SVG Version: 6.00 Build 0)  -->

<svg
   xmlns:dc="http://purl.org/dc/elements/1.1/"
   xmlns:cc="http://creativecommons.org/ns#"
   xmlns:rdf="http://www.w3.org/1999/02/22-rdf-syntax-ns#"
   xmlns:svg="http://www.w3.org/2000/svg"
   xmlns="http://www.w3.org/2000/svg"
   xmlns:sodipodi="http://sodipodi.sourceforge.net/DTD/sodipodi-0.dtd"
   xmlns:inkscape="http://www.inkscape.org/namespaces/inkscape"
   version="1.1"
   id="Capa_1"
   x="0px"
   y="0px"
   width="406"
   height="459"
   viewBox="0 0 406 459"
   xml:space="preserve"
   inkscape:version="0.91 r13725"
   sodipodi:docname="mark-institucional.svg"><metadata
     id="metadata42"><rdf:RDF><cc:Work
         rdf:about=""><dc:format>image/svg+xml</dc:format><dc:type
           rdf:resource="http://purl.org/dc/dcmitype/StillImage" /><dc:title></dc:title></cc:Work></rdf:RDF></metadata><defs
     id="defs40" /><sodipodi:namedview
     pagecolor="#ffffff"
     bordercolor="#666666"
     borderopacity="1"
     objecttolerance="10"
     gridtolerance="10"
     guidetolerance="10"
     inkscape:pageopacity="0"
     inkscape:pageshadow="2"
     inkscape:window-width="1366"
     inkscape:window-height="747"
     id="namedview38"
     showgrid="false"
     inkscape:zoom="0.72713377"
     inkscape:cx="186.72585"
     inkscape:cy="315.54595"
     inkscape:window-x="0"
     inkscape:window-y="21"
     inkscape:window-maximized="1"
     inkscape:current-layer="Capa_1"
     fit-margin-top="0"
     fit-margin-left="0"
     fit-margin-right="0"
     fit-margin-bottom="0" /><g
     id="g3"
     style="fill:#9a9e00;fill-opacity:1"
     transform="translate(-51,0)"><g
       id="bookmark"
       style="fill:#9a9e00;fill-opacity:1"><path
         d="M 457,0 102,0 C 73.95,0 51,22.95 51,51 L 51,459 229.5,382.5 408,459 408,51 C 408,22.95 422.81271,0 457,0 Z"
         id="path6"
         style="fill:#0b3371;fill-opacity:1"
         inkscape:connector-curvature="0"
         sodipodi:nodetypes="ssscccss" /></g></g><g
     id="g8"
     transform="translate(-51,0)" /><g
     id="g10"
     transform="translate(-51,0)" /><g
     id="g12"
     transform="translate(-51,0)" /><g
     id="g14"
     transform="translate(-51,0)" /><g
     id="g16"
     transform="translate(-51,0)" /><g
     id="g18"
     transform="translate(-51,0)" /><g
     id="g20"
     transform="translate(-51,0)" /><g
     id="g22"
     transform="translate(-51,0)" /><g
     id="g24"
     transform="translate(-51,0)" /><g
     id="g26"
     transform="translate(-51,0)" /><g
     id="g28"
     transform="translate(-51,0)" /><g
     id="g30"
     transform="translate(-51,0)" /><g
     id="g32"
     transform="translate(-51,0)" /><g
     id="g34"
     transform="translate(-51,0)" /><g
     id="g36"
     transform="translate(-51,0)" /><g
     id="g4273"
     transform="matrix(0.5754715,0,0,0.5754715,31.825206,63.700569)"><g
       style="fill:#ffffff"
       id="g466"><g
         style="fill:#ffffff"
         id="g468"><path
           style="fill:#ffffff"
           id="path470"
           d="m 482,261.953 c 19.137,-21.439 30,-50.009 30,-79.377 L 512,75 c 0,-24.813 -20.187,-45 -45,-45 -5.852,0 -11.446,1.123 -16.579,3.164 C 445.211,14.075 427.718,0 407,0 386.282,0 368.789,14.075 363.579,33.164 358.446,31.123 352.852,30 347,30 L 230.974,30 C 209.401,10.606 181.803,0 152.574,0 L 75,0 C 50.187,0 30,20.187 30,45 30,50.852 31.123,56.446 33.164,61.579 14.075,66.789 0,84.282 0,105 0,125.718 14.075,143.211 33.164,148.421 31.123,153.554 30,159.148 30,165 c 0,19.555 12.541,36.228 30,42.42 l 0,73.609 C 40.606,302.6 30,330.196 30,359.424 L 30,437 c 0,24.813 20.187,45 45,45 5.852,0 11.446,-1.123 16.579,-3.164 C 96.789,497.925 114.282,512 135,512 c 20.718,0 38.211,-14.075 43.421,-33.164 5.133,2.041 10.727,3.164 16.579,3.164 l 85.048,0 c 21.438,19.137 50.008,30 79.376,30 L 437,512 c 24.813,0 45,-20.187 45,-45 0,-5.852 -1.123,-11.446 -3.164,-16.579 C 497.925,445.211 512,427.718 512,407 512,386.282 497.925,368.789 478.836,363.579 480.877,358.446 482,352.852 482,347 l 0,-85.047 z M 45,120 c -8.271,0 -15,-6.729 -15,-15 0,-8.271 6.729,-15 15,-15 11.007,0 80.336,0 90,0 8.284,0 15,-6.716 15,-15 0,-8.284 -6.716,-15 -15,-15 L 75,60 C 66.729,60 60,53.271 60,45 60,36.729 66.729,30 75,30 l 77.574,0 c 23.353,0 45.307,9.094 61.82,25.606 2.813,2.813 6.628,4.294 10.606,4.294 l 79.58,0 C 302.915,64.595 302,69.742 302,75 l 0,60 c 0,7.991 -7.477,15 -16,15 l -30,0 c -4.948,0 -9.642,2.467 -12.459,6.648 L 207.549,210.34 C 201.485,192.759 184.697,180 165,180 l -90,0 c -8.271,0 -15,-6.729 -15,-15 0,-8.271 6.729,-15 15,-15 l 60,0 c 8.284,0 15,-6.716 15,-15 0,-8.284 -6.716,-15 -15,-15 -10.534,0 -75.727,0 -90,0 z m 282.675,137.888 -43.973,65.601 -69.378,-69.378 43.974,-65.6 69.377,69.377 z M 210,377 l 0,60 c 0,8.271 -6.729,15 -15,15 -8.271,0 -15,-6.729 -15,-15 l 0,-60 c 0,-8.284 -6.716,-15 -15,-15 -8.284,0 -15,6.716 -15,15 0,10.534 0,75.727 0,90 0,8.271 -6.729,15 -15,15 -8.271,0 -15,-6.729 -15,-15 0,-11.007 0,-80.336 0,-90 0,-8.284 -6.716,-15 -15,-15 -8.284,0 -15,6.716 -15,15 l 0,60 c 0,8.271 -6.729,15 -15,15 -8.271,0 -15,-6.729 -15,-15 l 0,-77.576 c 0,-23.35 9.094,-45.303 25.606,-61.813 C 88.419,294.798 90,290.983 90,287.004 L 90,210 l 75,0 c 8.271,0 15,6.729 15,15 l 0,31 c 0,6.717 4.427,10.606 4.493,10.706 0.001,0 0.001,10e-4 0.002,10e-4 l 65.662,65.662 c -9.786,1.245 -18.939,5.601 -26.235,12.575 C 214.944,353.526 210,364.911 210,377 Z m 272,30 c 0,8.271 -6.729,15 -15,15 -11.007,0 -80.336,0 -90,0 -8.284,0 -15,6.716 -15,15 0,8.284 6.716,15 15,15 l 60,0 c 8.271,0 15,6.729 15,15 0,8.271 -6.729,15 -15,15 l -77.576,0 c -23.647,0 -46.542,-9.333 -62.813,-25.606 C 293.798,453.581 289.982,452 286.004,452 l -48.584,0 c 1.665,-4.695 2.58,-9.742 2.58,-15 l 0,-60 c 0,-7.991 7.477,-15 16,-15 l 30,0 c 5.006,0 9.689,-2.526 12.46,-6.648 L 334.451,301.66 C 340.545,319.298 357.316,332 377,332 l 60,0 c 8.271,0 15,6.729 15,15 0,8.271 -6.729,15 -15,15 l -60,0 c -8.284,0 -15,6.716 -15,15 0,8.284 6.716,15 15,15 10.534,0 75.727,0 90,0 8.271,0 15,6.729 15,15 z M 456.395,245.389 c -2.813,2.813 -4.395,6.629 -4.395,10.607 l 0,48.583 c -4.695,-1.665 -9.741,-2.58 -15,-2.58 l -60,0 c -8.271,0 -15,-6.729 -15,-15 l 0,-31 c 0,-4.386 -2.069,-8.606 -4.498,-10.711 L 291.844,179.63 c 9.786,-1.245 18.939,-5.601 26.234,-12.575 C 327.056,158.474 332,147.089 332,135 l 0,-60 c 0,-8.271 6.729,-15 15,-15 8.271,0 15,6.729 15,15 l 0,60 c 0,8.284 6.716,15 15,15 8.284,0 15,-6.716 15,-15 0,-10.534 0,-75.727 0,-90 0,-8.271 6.729,-15 15,-15 8.271,0 15,6.729 15,15 0,11.007 0,80.336 0,90 0,8.284 6.716,15 15,15 8.284,0 15,-6.716 15,-15 l 0,-60 c 0,-8.271 6.729,-15 15,-15 8.271,0 15,6.729 15,15 l 0,107.576 c 0,23.648 -9.333,46.542 -25.605,62.813 z"
           inkscape:connector-curvature="0" /></g></g><g
       id="g472" /><g
       id="g474" /><g
       id="g476" /><g
       id="g478" /><g
       id="g480" /><g
       id="g482" /><g
       id="g484" /><g
       id="g486" /><g
       id="g488" /><g
       id="g490" /><g
       id="g492" /><g
       id="g494" /><g
       id="g496" /><g
       id="g498" /><g
       id="g500" /></g></svg>