<?xml version="1.0" encoding="UTF-8" standalone="no"?>
<!-- Generator: Adobe Illustrator 19.0.0, SVG Export Plug-In . SVG Version: 6.00 Build 0)  -->

<svg
   xmlns:dc="http://purl.org/dc/elements/1.1/"
   xmlns:cc="http://creativecommons.org/ns#"
   xmlns:rdf="http://www.w3.org/1999/02/22-rdf-syntax-ns#"
   xmlns:svg="http://www.w3.org/2000/svg"
   xmlns="http://www.w3.org/2000/svg"
   xmlns:sodipodi="http://sodipodi.sourceforge.net/DTD/sodipodi-0.dtd"
   xmlns:inkscape="http://www.inkscape.org/namespaces/inkscape"
   version="1.1"
   id="Capa_1"
   x="0px"
   y="0px"
   viewBox="0 0 508 508"
   style="enable-background:new 0 0 508 508;"
   xml:space="preserve"
   inkscape:version="0.91 r13725"
   sodipodi:docname="medal-institucional.svg"><metadata
     id="metadata49"><rdf:RDF><cc:Work
         rdf:about=""><dc:format>image/svg+xml</dc:format><dc:type
           rdf:resource="http://purl.org/dc/dcmitype/StillImage" /></cc:Work></rdf:RDF></metadata><defs
     id="defs47" /><sodipodi:namedview
     pagecolor="#ffffff"
     bordercolor="#666666"
     borderopacity="1"
     objecttolerance="10"
     gridtolerance="10"
     guidetolerance="10"
     inkscape:pageopacity="0"
     inkscape:pageshadow="2"
     inkscape:window-width="723"
     inkscape:window-height="480"
     id="namedview45"
     showgrid="false"
     inkscape:zoom="0.46456693"
     inkscape:cx="254"
     inkscape:cy="254"
     inkscape:window-x="9"
     inkscape:window-y="30"
     inkscape:window-maximized="0"
     inkscape:current-layer="Capa_1" /><circle
     style="fill:#FFD15C;"
     cx="253.55"
     cy="201.7"
     r="201.7"
     id="circle3" /><g
     id="g5"
     style="fill:#0b3371;fill-opacity:1"><path
       style="fill:#0b3371;fill-opacity:1"
       d="M90.15,319.7L20.75,440l81-4.3l36.8,72.3l64.2-111.3C156.75,384.8,117.25,357.1,90.15,319.7z"
       id="path7" /><path
       style="fill:#0b3371;fill-opacity:1"
       d="M417.35,319.1c-26.9,37.5-66.4,65.3-112.3,77.4l64.4,111.5l36.8-72.3l81,4.3L417.35,319.1z"
       id="path9" /></g><circle
     style="fill:#F8B64C;"
     cx="253.55"
     cy="201.7"
     r="146.2"
     id="circle11" /><path
     style="fill:#FFFFFF;"
     d="M353.75,185.9c4.5-4.4,2-12.1-4.2-13l-57.7-8.4c-2.5-0.4-4.6-1.9-5.7-4.2l-25.8-52.3  c-2.8-5.7-10.9-5.7-13.7,0l-25.7,52.3c-1.1,2.2-3.3,3.8-5.7,4.2l-57.7,8.4c-6.2,0.9-8.7,8.6-4.2,13l41.7,40.7  c1.8,1.8,2.6,4.3,2.2,6.7l-9.8,57.4c-1.1,6.2,5.5,11,11.1,8l51.6-27.1c2.2-1.2,4.9-1.2,7.1,0l51.6,27.1c5.6,2.9,12.1-1.8,11.1-8  l-9.9-57.4c-0.4-2.5,0.4-5,2.2-6.7L353.75,185.9z"
     id="path13" /><g
     id="g15" /><g
     id="g17" /><g
     id="g19" /><g
     id="g21" /><g
     id="g23" /><g
     id="g25" /><g
     id="g27" /><g
     id="g29" /><g
     id="g31" /><g
     id="g33" /><g
     id="g35" /><g
     id="g37" /><g
     id="g39" /><g
     id="g41" /><g
     id="g43" /></svg>