<?xml version="1.0" encoding="UTF-8" standalone="no"?>
<svg
   xmlns:dc="http://purl.org/dc/elements/1.1/"
   xmlns:cc="http://creativecommons.org/ns#"
   xmlns:rdf="http://www.w3.org/1999/02/22-rdf-syntax-ns#"
   xmlns:svg="http://www.w3.org/2000/svg"
   xmlns="http://www.w3.org/2000/svg"
   xmlns:sodipodi="http://sodipodi.sourceforge.net/DTD/sodipodi-0.dtd"
   xmlns:inkscape="http://www.inkscape.org/namespaces/inkscape"
   height="480pt"
   viewBox="-88 0 304 480"
   width="304pt"
   version="1.1"
   id="svg46"
   sodipodi:docname="vote-link.svg"
   inkscape:version="0.92.3 (2405546, 2018-03-11)">
  <metadata
     id="metadata52">
    <rdf:RDF>
      <cc:Work
         rdf:about="">
        <dc:format>image/svg+xml</dc:format>
        <dc:type
           rdf:resource="http://purl.org/dc/dcmitype/StillImage" />
        <dc:title></dc:title>
      </cc:Work>
    </rdf:RDF>
  </metadata>
  <defs
     id="defs50" />
  <sodipodi:namedview
     pagecolor="#ffffff"
     bordercolor="#666666"
     borderopacity="1"
     objecttolerance="10"
     gridtolerance="10"
     guidetolerance="10"
     inkscape:pageopacity="0"
     inkscape:pageshadow="2"
     inkscape:window-width="1366"
     inkscape:window-height="740"
     id="namedview48"
     showgrid="false"
     inkscape:zoom="0.52149125"
     inkscape:cx="138.11043"
     inkscape:cy="374.29061"
     inkscape:window-x="1366"
     inkscape:window-y="0"
     inkscape:window-maximized="1"
     inkscape:current-layer="g44"
     fit-margin-top="0"
     fit-margin-left="0"
     fit-margin-right="0"
     fit-margin-bottom="0" />
  <path
     d="M -40,208 V 8 h -8 c -17.671875,0 -32,14.328125 -32,32 v 400 c 0,17.67187 14.328125,32 32,32 h 224 c 17.67187,0 32,-14.32813 32,-32 V 336 H 88 C 17.30859,336 -40,278.69141 -40,208 Z m 0,0"
     id="path2"
     style="fill:#ffe6d5;fill-opacity:1"
     inkscape:connector-curvature="0" />
  <path
     d="m -80,376 h 288 v 64 c 0,17.67187 -14.32813,32 -32,32 H -48 c -17.671875,0 -32,-14.32813 -32,-32 z m 0,0"
     id="path4"
     style="fill:#f4d7d7;fill-opacity:1"
     inkscape:connector-curvature="0" />
  <path
     d="m 32,408 h 64 c 4.41797,0 8,3.58203 8,8 v 16 c 0,4.41797 -3.58203,8 -8,8 H 32 c -4.41797,0 -8,-3.58203 -8,-8 v -16 c 0,-4.41797 3.58203,-8 8,-8 z m 0,0"
     id="path6"
     style="fill:#ffe6d5;fill-opacity:1"
     inkscape:connector-curvature="0" />
  <g
     id="g44"
     style="fill:#3b8686"
     transform="translate(-88)">
    <path
       d="M 264,0 H 40 C 17.910156,0 0,17.910156 0,40 v 400 c 0,22.08984 17.910156,40 40,40 h 224 c 22.08984,0 40,-17.91016 40,-40 V 40 C 304,17.910156 286.08984,0 264,0 Z M 40,16 h 224 c 13.25391,0 24,10.746094 24,24 V 368 H 16 V 40 C 16,26.746094 26.746094,16 40,16 Z m 248,424 c 0,13.25391 -10.74609,24 -24,24 H 40 C 26.746094,464 16,453.25391 16,440 v -56 h 272 z m 0,0"
       id="path22"
       style="fill:#9e295f;fill-opacity:0.94117647"
       inkscape:connector-curvature="0" />
    <path
       d="m 120,448 h 64 c 8.83594,0 16,-7.16406 16,-16 v -16 c 0,-8.83594 -7.16406,-16 -16,-16 h -64 c -8.83594,0 -16,7.16406 -16,16 v 16 c 0,8.83594 7.16406,16 16,16 z m 0,-32 h 64 v 16 h -64 z m 0,0"
       id="path24"
       style="fill:#9e295f;fill-opacity:0.94117647"
       inkscape:connector-curvature="0" />
    <path
       inkscape:connector-curvature="0"
       style="fill:#9e285f;fill-opacity:0.94117647;stroke-width:0.47195786"
       d="m 40.495286,320.36505 c -1.356884,0 -2.676889,-0.53649 -3.655832,-1.5265 -1.290508,-1.30526 -1.788278,-3.20045 -1.303417,-4.97214 L 51.245231,256.50139 C 41.465008,238.81589 36.308501,218.80929 36.315877,198.50035 36.343537,132.4539 90.091425,78.722601 156.13234,78.722601 c 32.0323,0.01302 62.13067,12.490293 84.75332,35.129509 22.61894,22.64109 35.07052,52.73762 35.06131,84.74411 -0.0294,66.04829 -53.77739,119.78329 -119.81463,119.78329 0,0 -0.0497,0 -0.0516,0 -19.28944,-0.008 -38.41295,-4.70852 -55.4403,-13.61305 l -58.841691,15.43082 c -0.431398,0.11251 -0.870172,0.16777 -1.303411,0.16777 z m 0,0"
       id="path2-3" />
    <path
       inkscape:connector-curvature="0"
       style="fill:#ffffff;stroke-width:0.47195786"
       d="M 40.495286,315.22329 56.763085,255.81742 C 46.728448,238.43057 41.45026,218.7079 41.457636,198.5022 41.483447,135.29118 92.923165,83.864356 156.13234,83.864356 c 30.67358,0.01302 59.46485,11.951968 81.11592,33.621474 21.64923,21.6695 33.56801,50.47368 33.55694,81.10855 -0.0276,63.20917 -51.47474,114.64336 -114.67286,114.64336 -0.004,0 0.001,0 0,0 h -0.0497 c -19.19174,-0.008 -38.04793,-4.82097 -54.79691,-13.95594 z m 63.605534,-36.69473 3.48253,2.06297 c 14.63071,8.68329 31.40549,13.27566 48.51213,13.28487 h 0.0369 c 52.53112,0 95.28757,-42.74905 95.30969,-95.2894 0.009,-25.46176 -9.89452,-49.40441 -27.88975,-67.41439 -17.99709,-18.00999 -41.92498,-27.93402 -67.38491,-27.94507 -52.57352,0 -95.328107,42.74352 -95.348388,95.28203 -0.0074,18.00445 5.029303,35.53695 14.571703,50.70967 l 2.2676,3.60605 -9.63088,35.16087 z m 0,0"
       id="path4-5" />
    <path
       inkscape:connector-curvature="0"
       style="fill:#64b161;stroke-width:0.47195786"
       d="m 44.482957,311.22086 15.705508,-57.3521 c -9.689886,-16.784 -14.783713,-35.82639 -14.778181,-55.3297 0.02397,-61.02267 49.684631,-110.668586 110.701786,-110.668586 29.61535,0.013 57.41109,11.539 78.30813,32.458166 20.90258,20.91917 32.40655,48.72597 32.39549,78.29708 -0.0258,61.02452 -49.68832,110.67597 -110.6981,110.67597 -0.005,0 0.001,0 0,0 h -0.0497 c -18.52619,-0.008 -36.7316,-4.6569 -52.89984,-13.46924 z m 0,0"
       id="path6-6" />
    <g
       transform="matrix(0.47195788,0,0,0.47195788,35.353522,78.722601)"
       style="fill:#ffffff"
       id="g12">
      <path
         inkscape:connector-curvature="0"
         d="m 10.894531,501.10547 34.46875,-125.8711 C 24.101562,338.39453 12.917969,296.60547 12.933594,253.79297 12.988281,119.85938 121.98047,10.894531 255.91016,10.894531 c 64.99218,0.02734 125.99609,25.324219 171.87109,71.238281 45.87109,45.914058 71.125,106.945308 71.10156,171.855468 -0.0586,133.92969 -109.0664,242.91016 -242.97265,242.91016 -0.008,0 0.004,0 0,0 h -0.10547 c -40.66407,-0.0156 -80.61719,-10.21485 -116.10547,-29.57032 z m 134.769529,-77.75 7.37891,4.37109 c 31,18.39844 66.54297,28.12891 102.78906,28.14844 h 0.0781 c 111.30468,0 201.89843,-90.57813 201.94531,-201.90234 C 457.875,200.02344 436.89062,149.29297 398.76172,111.13281 360.62891,72.972656 309.92969,51.945312 255.98437,51.921875 144.58984,51.921875 54,142.48828 53.957031,253.80859 c -0.01563,38.14844 10.65625,75.29688 30.875,107.44532 l 4.804688,7.64062 -20.40625,74.5 z m 0,0"
         id="path8" />
      <path
         style="fill-rule:evenodd"
         inkscape:connector-curvature="0"
         d="m 195.18359,152.24609 c -4.54687,-10.10937 -9.33593,-10.3125 -13.66406,-10.48828 -3.53906,-0.15234 -7.58984,-0.14453 -11.63281,-0.14453 -4.04688,0 -10.625,1.52344 -16.1875,7.59766 -5.56641,6.07422 -21.25391,20.76172 -21.25391,50.63281 0,29.875 21.75781,58.73828 24.79297,62.79297 3.03516,4.05078 42,67.30859 103.70703,91.64453 51.28516,20.22656 61.71875,16.20312 72.85156,15.19141 11.13282,-1.01172 35.91797,-14.6875 40.97657,-28.86329 5.0625,-14.17578 5.0625,-26.32421 3.54297,-28.86718 -1.51954,-2.52735 -5.56641,-4.04688 -11.63672,-7.08203 -6.07032,-3.03516 -35.91797,-17.72657 -41.48438,-19.75 -5.5664,-2.02735 -9.61328,-3.03516 -13.66015,3.04296 -4.05078,6.07032 -15.67579,19.74219 -19.21875,23.78907 -3.54297,4.05859 -7.08594,4.5664 -13.15625,1.52734 -6.07032,-3.04297 -25.625,-9.44922 -48.82032,-30.13281 -18.04687,-16.08985 -30.23437,-35.96485 -33.77734,-42.04297 -3.53906,-6.07031 -0.0586,-9.07031 2.66797,-12.38672 4.91016,-5.97266 13.14844,-16.71094 15.17187,-20.75781 2.02344,-4.05469 1.01172,-7.59766 -0.5039,-10.63672 -1.51953,-3.03516 -13.32031,-33.05859 -18.71485,-45.06641 z m 0,0"
         id="path10" />
    </g>
  </g>
</svg>
