<?xml version="1.0" encoding="UTF-8" standalone="no"?>
<svg
   xmlns:dc="http://purl.org/dc/elements/1.1/"
   xmlns:cc="http://creativecommons.org/ns#"
   xmlns:rdf="http://www.w3.org/1999/02/22-rdf-syntax-ns#"
   xmlns:svg="http://www.w3.org/2000/svg"
   xmlns="http://www.w3.org/2000/svg"
   xmlns:sodipodi="http://sodipodi.sourceforge.net/DTD/sodipodi-0.dtd"
   xmlns:inkscape="http://www.inkscape.org/namespaces/inkscape"
   height="343.32202"
   viewBox="0 0 63.885208 42.915253"
   width="511.08167"
   version="1.1"
   id="svg56"
   sodipodi:docname="vote-tablet.svg"
   inkscape:version="0.92.3 (2405546, 2018-03-11)">
  <metadata
     id="metadata62">
    <rdf:RDF>
      <cc:Work
         rdf:about="">
        <dc:format>image/svg+xml</dc:format>
        <dc:type
           rdf:resource="http://purl.org/dc/dcmitype/StillImage" />
        <dc:title></dc:title>
      </cc:Work>
    </rdf:RDF>
  </metadata>
  <defs
     id="defs60" />
  <sodipodi:namedview
     pagecolor="#ffffff"
     bordercolor="#666666"
     borderopacity="1"
     objecttolerance="10"
     gridtolerance="10"
     guidetolerance="10"
     inkscape:pageopacity="0"
     inkscape:pageshadow="2"
     inkscape:window-width="1366"
     inkscape:window-height="740"
     id="namedview58"
     showgrid="false"
     inkscape:zoom="0.65186406"
     inkscape:cx="175.45874"
     inkscape:cy="121.22748"
     inkscape:window-x="1366"
     inkscape:window-y="0"
     inkscape:window-maximized="1"
     inkscape:current-layer="svg56"
     fit-margin-top="0"
     fit-margin-left="0"
     fit-margin-right="0"
     fit-margin-bottom="0" />
  <g
     id="g116"
     transform="matrix(0.97534669,0,0,0.97534669,-2.994196,-6.724107)">
    <path
       id="path4"
       d="M 17,24 V 11 H 12 A 4,4 0 0 0 8,15 V 47 H 56 V 40 H 33 A 16,16 0 0 1 17,24 Z"
       style="fill:#ffe6d5"
       inkscape:connector-curvature="0" />
    <path
       id="path6"
       transform="rotate(-90,37,38)"
       d="m 35,34 h 4 v 8 h -4 z"
       style="fill:#ffffff"
       inkscape:connector-curvature="0" />
    <path
       id="path8"
       transform="rotate(-90,39,28)"
       d="m 37,22 h 4 v 12 h -4 z"
       style="fill:#ffffff"
       inkscape:connector-curvature="0" />
    <path
       id="path10"
       transform="rotate(-90,42,18)"
       d="m 40,9 h 4 v 18 h -4 z"
       style="fill:#ffffff"
       inkscape:connector-curvature="0" />
    <path
       id="path12"
       d="m 14,16 h 6 v 6 h -6 z"
       style="fill:#ffffff"
       inkscape:connector-curvature="0" />
    <path
       id="path14"
       d="m 14,26 h 6 v 6 h -6 z"
       style="fill:#ffffff"
       inkscape:connector-curvature="0" />
    <path
       id="path16"
       d="m 14,36 h 6 v 6 h -6 z"
       style="fill:#ffffff"
       inkscape:connector-curvature="0" />
  </g>
  <g
     id="g54"
     transform="matrix(0.97534669,0,0,0.97534669,-2.994196,-6.724107)"
     style="fill:#3b8686">
    <path
       d="m 41,36.025276 h -8 a 1,1 0 0 0 -1,1 v 4 a 1,1 0 0 0 1,1 h 8 a 1,1 0 0 0 1,-1 v -4 a 1,1 0 0 0 -1,-1 z m -1,4 h -6 v -2 h 6 z"
       id="path30"
       style="fill:#9e2a5f;fill-opacity:0.94117647"
       inkscape:connector-curvature="0" />
    <path
       d="M 45,26.025276 H 33 a 1,1 0 0 0 -1,1 v 4 a 1,1 0 0 0 1,1 h 12 a 1,1 0 0 0 1,-1 v -4 a 1,1 0 0 0 -1,-1 z m -1,4 H 34 v -2 h 10 z"
       id="path32"
       style="fill:#9e2a5f;fill-opacity:0.94117647"
       inkscape:connector-curvature="0" />
    <path
       d="M 51,16.025276 H 33 a 1,1 0 0 0 -1,1 v 4 a 1,1 0 0 0 1,1 h 18 a 1,1 0 0 0 1,-1 v -4 a 1,1 0 0 0 -1,-1 z m -1,4 H 34 v -2 h 16 z"
       id="path34"
       style="fill:#9e2a5f;fill-opacity:0.94117647"
       inkscape:connector-curvature="0" />
    <path
       d="m 14,23 h 6 a 1,1 0 0 0 1,-1 v -6 a 1,1 0 0 0 -1,-1 h -6 a 1,1 0 0 0 -1,1 v 6 a 1,1 0 0 0 1,1 z m 1,-6 h 4 v 4 h -4 z"
       id="path36"
       style="fill:#9e2a5f;fill-opacity:0.94117647"
       inkscape:connector-curvature="0" />
    <path
       d="m 20,35 h -6 a 1,1 0 0 0 -1,1 v 6 a 1,1 0 0 0 1,1 h 6 a 1,1 0 0 0 1,-1 v -6 a 1,1 0 0 0 -1,-1 z m -1,6 h -4 v -4 h 4 z"
       id="path38"
       style="fill:#9e2a5f;fill-opacity:0.94117647"
       inkscape:connector-curvature="0" />
    <path
       d="m 24.65,24.76 a 1.00005,1.00005 0 0 0 -1.3,-1.52 L 20.8,25.43 A 1,1 0 0 0 20,25 h -6 a 1,1 0 0 0 -1,1 v 6 a 1,1 0 0 0 1,1 h 6 a 1,1 0 0 0 1,-1 V 27.89 Z M 19,27 17.2,28.55 16,27 Z m 0,4 h -4 v -2 l 1.2,1.6 a 1,1 0 0 0 0.69,0.39 H 17 a 1,1 0 0 0 0.65,-0.24 L 19,29.6 Z"
       id="path40"
       style="fill:#9e2a5f;fill-opacity:0.94117647"
       inkscape:connector-curvature="0" />
    <path
       d="m 24,18.025276 h 4 a 1,1 0 0 0 0,-2 h -4 a 1,1 0 0 0 0,2 z"
       id="path42"
       style="fill:#9e2a5f;fill-opacity:0.94117647"
       inkscape:connector-curvature="0" />
    <path
       d="m 29,20.025276 h -5 a 1,1 0 0 0 0,2 h 5 a 1,1 0 0 0 0,-2 z"
       id="path44"
       style="fill:#9e2a5f;fill-opacity:0.94117647"
       inkscape:connector-curvature="0" />
    <path
       d="m 24,38.025276 h 4 a 1,1 0 0 0 0,-2 h -4 a 1,1 0 0 0 0,2 z"
       id="path46"
       style="fill:#9e2a5f;fill-opacity:0.94117647"
       inkscape:connector-curvature="0" />
    <path
       d="m 29,40.025276 h -5 a 1,1 0 0 0 0,2 h 5 a 1,1 0 0 0 0,-2 z"
       id="path48"
       style="fill:#9e2a5f;fill-opacity:0.94117647"
       inkscape:connector-curvature="0" />
    <path
       d="m 28,28.025276 a 1,1 0 0 0 0,-2 h -1 a 1,1 0 0 0 0,2 z"
       id="path50"
       style="fill:#9e2a5f;fill-opacity:0.94117647"
       inkscape:connector-curvature="0" />
    <path
       d="m 29,30.025276 h -5 a 1,1 0 0 0 0,2 h 5 a 1,1 0 0 0 0,-2 z"
       id="path52"
       style="fill:#9e2a5f;fill-opacity:0.94117647"
       inkscape:connector-curvature="0" />
  </g>
  <g
     id="g226"
     transform="matrix(0.97534669,0,0,0.97534669,-2.3474449,-47.841582)">
    <path
       sodipodi:nodetypes="ssssssssssssssssss"
       style="fill:#f4d7d7;stroke-width:1"
       inkscape:connector-curvature="0"
       id="path2"
       d="m 3.40678,54.050848 v 34 c 0,2.209139 1.790861,4 4,4 h 56.25 c 2.209134,0 4.000004,-1.790861 4.000004,-4 v -34 c 0,-2.209139 -1.79087,-4 -4.000004,-4 h -56.25 c -2.209139,0 -4,1.790861 -4,4 z m 50.25,0 c 1.104569,0 2,0.895431 2,2 v 30 c 0,1.104569 -0.895431,2 -2,2 h -44.25 c -1.10457,0 -2,-0.895431 -2,-2 v -30 c 0,-1.104569 0.89543,-2 2,-2 z" />
    <circle
       style="fill:#ffffff;stroke-width:1"
       transform="rotate(-90)"
       id="circle4"
       r="2"
       cy="60.90678"
       cx="-71.05085" />
    <g
       style="fill:#3b8686"
       transform="rotate(-90,51.728814,51.322034)"
       id="g40">
      <path
         sodipodi:nodetypes="ssssssssssssssssss"
         inkscape:connector-curvature="0"
         id="path10-5"
         d="M 49,2 H 15 c -2.761424,0 -5,2.2385763 -5,5 v 55.5 c 0,2.761424 2.238576,5 5,5 h 34 c 2.761424,0 5,-2.238576 5,-5 V 7 C 54,4.2385763 51.761424,2 49,2 Z m 3,60.5 c 0,1.656854 -1.343146,3 -3,3 H 15 c -1.656854,0 -3,-1.343146 -3,-3 V 7 c 0,-1.6568542 1.343146,-3 3,-3 h 34 c 1.656854,0 3,1.3431458 3,3 z"
         style="fill:#9e2a5f;fill-opacity:0.94117647" />
      <path
         sodipodi:nodetypes="ssssssssssssssccss"
         inkscape:connector-curvature="0"
         id="path12-3"
         d="M 47,6 H 17 c -1.656854,0 -3,1.3431458 -3,3 v 45 c 0,1.656854 1.343146,3 3,3 h 30 c 1.656854,0 3,-1.343146 3,-3 V 9 C 50,7.3431458 48.656854,6 47,6 Z m 1,48 c 0,0.552285 -0.447715,1 -1,1 H 17 c -0.552285,0 -1,-0.447715 -1,-1 V 9 c 0,-0.5522847 0.447715,-1 1,-1 h 30 c 0.552285,0 1,0.4477153 1,1 z"
         style="fill:#9e2a5f;fill-opacity:0.94117647" />
      <path
         inkscape:connector-curvature="0"
         id="path14-5"
         d="m 32,58 a 3,3 0 1 0 3,3 3,3 0 0 0 -3,-3 z m 0,4 a 1,1 0 1 1 1,-1 1,1 0 0 1 -1,1 z"
         style="fill:#9e2a5f;fill-opacity:0.94117647" />
      <circle
         id="circle16"
         r="1"
         cy="61"
         cx="38"
         style="fill:#9e2a5f;fill-opacity:0.94117647" />
      <circle
         id="circle18"
         r="1"
         cy="61"
         cx="42"
         style="fill:#9e2a5f;fill-opacity:0.94117647" />
      <circle
         id="circle20"
         r="1"
         cy="61"
         cx="22"
         style="fill:#9e2a5f;fill-opacity:0.94117647" />
      <circle
         id="circle22"
         r="1"
         cy="61"
         cx="26"
         style="fill:#9e2a5f;fill-opacity:0.94117647" />
    </g>
  </g>
</svg>
