<?xml version="1.0" encoding="UTF-8" standalone="no"?>
<!-- Generator: Adobe Illustrator 19.0.0, SVG Export Plug-In . SVG Version: 6.00 Build 0)  -->

<svg
   xmlns:dc="http://purl.org/dc/elements/1.1/"
   xmlns:cc="http://creativecommons.org/ns#"
   xmlns:rdf="http://www.w3.org/1999/02/22-rdf-syntax-ns#"
   xmlns:svg="http://www.w3.org/2000/svg"
   xmlns="http://www.w3.org/2000/svg"
   xmlns:sodipodi="http://sodipodi.sourceforge.net/DTD/sodipodi-0.dtd"
   xmlns:inkscape="http://www.inkscape.org/namespaces/inkscape"
   version="1.1"
   id="Capa_1"
   x="0px"
   y="0px"
   viewBox="0 0 512 512"
   style="enable-background:new 0 0 512 512;"
   xml:space="preserve"
   inkscape:version="0.91 r13725"
   sodipodi:docname="w-capo-linea.svg"><metadata
     id="metadata118"><rdf:RDF><cc:Work
         rdf:about=""><dc:format>image/svg+xml</dc:format><dc:type
           rdf:resource="http://purl.org/dc/dcmitype/StillImage" /><dc:title></dc:title></cc:Work></rdf:RDF></metadata><defs
     id="defs116" /><sodipodi:namedview
     pagecolor="#ffffff"
     bordercolor="#666666"
     borderopacity="1"
     objecttolerance="10"
     gridtolerance="10"
     guidetolerance="10"
     inkscape:pageopacity="0"
     inkscape:pageshadow="2"
     inkscape:window-width="640"
     inkscape:window-height="480"
     id="namedview114"
     showgrid="false"
     inkscape:zoom="0.4609375"
     inkscape:cx="256"
     inkscape:cy="256"
     inkscape:window-x="9"
     inkscape:window-y="30"
     inkscape:window-maximized="0"
     inkscape:current-layer="Capa_1" /><g
     id="g42"
     style="fill:#ffffff"><g
       id="g44"
       style="fill:#ffffff"><path
         d="M437,91h-61c-19.555,0-36.228,12.541-42.42,30H316c-24.813,0-45,20.187-45,45c0,5.857,1.136,11.449,3.181,16.586    c-6.844,1.865-13.043,5.304-18.181,9.909c-5.138-4.605-11.337-8.044-18.181-9.909C239.864,177.449,241,171.857,241,166    c0-24.813-20.187-45-45-45h-17.58c-6.192-17.459-22.865-30-42.42-30H75c-41.355,0-75,33.645-75,75v150c0,41.355,33.645,75,75,75    c9.212,0,82.302,0,91,0c24.813,0,45-20.187,45-45c0-5.857-1.136-11.449-3.181-16.586C226.916,324.209,241,306.723,241,286    c0-5.857-1.136-11.449-3.181-16.586c6.844-1.865,13.043-5.304,18.181-9.909c5.138,4.605,11.337,8.044,18.181,9.909    C272.136,274.551,271,280.143,271,286c0,20.723,14.084,38.209,33.181,43.414C302.136,334.551,301,340.143,301,346    c0,24.813,20.187,45,45,45c8.695,0,81.783,0,91,0c41.355,0,75-33.645,75-75V166C512,124.645,478.355,91,437,91z M181,151h15    c8.271,0,15,6.729,15,15s-6.729,15-15,15h-15V151z M106,151H76c-8.284,0-15,6.716-15,15s6.716,15,15,15h15v45    c0,11.517,4.354,22.032,11.495,30C95.354,263.968,91,274.483,91,286c0,11.517,4.354,22.032,11.495,30    C95.354,323.968,91,334.483,91,346c0,5.258,0.915,10.305,2.58,15H75c-24.813,0-45-20.187-45-45V166c0-24.813,20.187-45,45-45h61    c8.271,0,15,6.729,15,15c0,8.529,0,77.68,0,90c0,8.271-6.729,15-15,15s-15-6.729-15-15v-60C121,157.716,114.284,151,106,151z     M166,361h-30c-8.271,0-15-6.729-15-15s6.729-15,15-15h30c8.271,0,15,6.729,15,15S174.271,361,166,361z M196,301    c-6.359,0-53.641,0-60,0c-8.271,0-15-6.729-15-15s6.729-15,15-15h60c8.271,0,15,6.729,15,15S204.271,301,196,301z M226,241    c-10.963,0-38.344,0-47.58,0c1.665-4.695,2.58-9.742,2.58-15v-15c14.061,0,5.523,0,45,0c8.271,0,15,6.729,15,15    S234.271,241,226,241z M316,151h15v30h-15c-8.271,0-15-6.729-15-15S307.729,151,316,151z M271,226c0-8.271,6.729-15.2,15-15.2    c27.35,0,35.181,0,37.105,0c0.444,0,0.579,0,0.56,0c0.86,0,2.897,0,7.335,0V226c0,5.258,0.915,10.305,2.58,15    c-9.236,0-36.617,0-47.58,0C277.729,241,271,234.271,271,226z M376,361h-30c-8.271,0-15-6.729-15-15s6.729-15,15-15h30    c8.271,0,15,6.729,15,15S384.271,361,376,361z M376,301c-6.359,0-53.641,0-60,0c-8.271,0-15-6.729-15-15s6.729-15,15-15h60    c8.271,0,15,6.729,15,15S384.271,301,376,301z M482,316c0,24.813-20.187,45-45,45h-18.58c1.665-4.695,2.58-9.742,2.58-15    c0-11.517-4.354-22.032-11.495-30c7.142-7.968,11.495-18.483,11.495-30c0-11.517-4.354-22.032-11.495-30    c7.142-7.968,11.495-18.483,11.495-30v-45h15c8.284,0,15-6.716,15-15s-6.716-15-15-15h-30c-8.284,0-15,6.716-15,15v60    c0,8.271-6.729,15-15,15s-15-6.729-15-15c0-11.31,0-80.756,0-90c0-8.271,6.729-15,15-15h61c24.813,0,45,20.187,45,45V316z"
         id="path46"
         style="fill:#ffffff" /></g></g><g
     id="g48"
     style="fill:#ffffff"><g
       id="g50"
       style="fill:#ffffff"><path
         d="M256,0c-8.284,0-15,6.716-15,15v30c0,8.284,6.716,15,15,15s15-6.716,15-15V15C271,6.716,264.284,0,256,0z"
         id="path52"
         style="fill:#ffffff" /></g></g><g
     id="g54"
     style="fill:#ffffff"><g
       id="g56"
       style="fill:#ffffff"><path
         d="M206.607,64.394l-30-30c-5.857-5.858-15.355-5.858-21.213,0c-5.858,5.858-5.858,15.355,0,21.213l30,30    c5.857,5.858,15.355,5.858,21.213,0C212.465,79.749,212.465,70.252,206.607,64.394z"
         id="path58"
         style="fill:#ffffff" /></g></g><g
     id="g60"
     style="fill:#ffffff"><g
       id="g62"
       style="fill:#ffffff"><path
         d="M356.606,34.394c-5.857-5.858-15.355-5.858-21.213,0l-30,30c-5.858,5.858-5.858,15.355,0,21.213    c5.858,5.857,15.356,5.858,21.213,0l30-30C362.464,49.749,362.464,40.252,356.606,34.394z"
         id="path64"
         style="fill:#ffffff" /></g></g><g
     id="g66"
     style="fill:#ffffff"><g
       id="g68"
       style="fill:#ffffff"><path
         d="M256,452c-8.284,0-15,6.716-15,15v30c0,8.284,6.716,15,15,15s15-6.716,15-15v-30C271,458.716,264.284,452,256,452z"
         id="path70"
         style="fill:#ffffff" /></g></g><g
     id="g72"
     style="fill:#ffffff"><g
       id="g74"
       style="fill:#ffffff"><path
         d="M206.607,426.393c-5.858-5.857-15.356-5.857-21.213,0l-30,30c-5.858,5.858-5.858,15.355,0,21.213    c5.858,5.858,15.355,5.858,21.213,0l30-30C212.465,441.748,212.465,432.251,206.607,426.393z"
         id="path76"
         style="fill:#ffffff" /></g></g><g
     id="g78"
     style="fill:#ffffff"><g
       id="g80"
       style="fill:#ffffff"><path
         d="M356.606,456.393l-30-30c-5.857-5.857-15.355-5.857-21.213,0c-5.858,5.858-5.858,15.355,0,21.213l30,30    c5.858,5.858,15.355,5.858,21.213,0C362.464,471.748,362.464,462.251,356.606,456.393z"
         id="path82"
         style="fill:#ffffff" /></g></g><g
     id="g84"
     style="fill:#ffffff" /><g
     id="g86"
     style="fill:#ffffff" /><g
     id="g88"
     style="fill:#ffffff" /><g
     id="g90"
     style="fill:#ffffff" /><g
     id="g92"
     style="fill:#ffffff" /><g
     id="g94"
     style="fill:#ffffff" /><g
     id="g96"
     style="fill:#ffffff" /><g
     id="g98"
     style="fill:#ffffff" /><g
     id="g100"
     style="fill:#ffffff" /><g
     id="g102"
     style="fill:#ffffff" /><g
     id="g104"
     style="fill:#ffffff" /><g
     id="g106"
     style="fill:#ffffff" /><g
     id="g108"
     style="fill:#ffffff" /><g
     id="g110"
     style="fill:#ffffff" /><g
     id="g112"
     style="fill:#ffffff" /></svg>