<?xml version="1.0" encoding="UTF-8" standalone="no"?>
<!-- Generator: Adobe Illustrator 19.0.0, SVG Export Plug-In . SVG Version: 6.00 Build 0)  -->

<svg
   xmlns:dc="http://purl.org/dc/elements/1.1/"
   xmlns:cc="http://creativecommons.org/ns#"
   xmlns:rdf="http://www.w3.org/1999/02/22-rdf-syntax-ns#"
   xmlns:svg="http://www.w3.org/2000/svg"
   xmlns="http://www.w3.org/2000/svg"
   xmlns:sodipodi="http://sodipodi.sourceforge.net/DTD/sodipodi-0.dtd"
   xmlns:inkscape="http://www.inkscape.org/namespaces/inkscape"
   version="1.1"
   id="Capa_1"
   x="0px"
   y="0px"
   viewBox="0 0 512.00204 511.96914"
   xml:space="preserve"
   inkscape:version="0.91 r13725"
   sodipodi:docname="w-comunitario.svg"
   width="512.00201"
   height="511.96912"><metadata
     id="metadata312"><rdf:RDF><cc:Work
         rdf:about=""><dc:format>image/svg+xml</dc:format><dc:type
           rdf:resource="http://purl.org/dc/dcmitype/StillImage" /><dc:title></dc:title></cc:Work></rdf:RDF></metadata><defs
     id="defs310" /><sodipodi:namedview
     pagecolor="#ffffff"
     bordercolor="#666666"
     borderopacity="1"
     objecttolerance="10"
     gridtolerance="10"
     guidetolerance="10"
     inkscape:pageopacity="0"
     inkscape:pageshadow="2"
     inkscape:window-width="1600"
     inkscape:window-height="879"
     id="namedview308"
     showgrid="false"
     inkscape:zoom="0.46093662"
     inkscape:cx="401.49192"
     inkscape:cy="140.56407"
     inkscape:window-x="0"
     inkscape:window-y="21"
     inkscape:window-maximized="1"
     inkscape:current-layer="Capa_1"
     fit-margin-top="0"
     fit-margin-left="0"
     fit-margin-right="0"
     fit-margin-bottom="0" /><g
     id="g3366"
     transform="translate(4.264271e-8,-0.016)"
     style="fill:#ffffff"><g
       style="fill:#ffffff"
       id="g260"><g
         style="fill:#ffffff"
         id="g262"><path
           sodipodi:nodetypes="scsscsscccs"
           inkscape:connector-curvature="0"
           style="fill:#ffffff"
           id="path264"
           d="m 389.859,55.515 c -12.866,0 -22.691,5.296 -29.854,12.319 -7.164,-7.024 -16.989,-12.319 -29.854,-12.319 -25.153,0 -44.855,20.825 -44.855,47.408 0,27.537 20.781,45.077 49.542,69.353 4.904,4.139 9.976,8.42 15.345,13.073 2.819,2.443 6.321,3.665 9.824,3.665 3.502,0 7.005,-1.222 9.824,-3.665 5.367,-4.652 10.438,-8.931 15.341,-13.07 25.118,-21.201 49.546,-40.301 49.546,-69.356 -0.003,-26.584 -19.706,-47.408 -44.859,-47.408 z" /></g></g><g
       style="fill:#ffffff"
       id="g266"><g
         style="fill:#ffffff"
         id="g268"><path
           style="fill:#ffffff"
           id="path270"
           d="M 499.057,13.937 C 490.475,4.96 479.09,0.016 467.002,0.016 l -211.996,0 c -12.089,0 -23.474,4.944 -32.055,13.922 -8.348,8.732 -12.944,20.124 -12.944,32.077 l 0,150.997 c 0,24.813 20.187,44.999 44.999,44.999 l 15,0 0,44.999 c 0,6.067 3.654,11.537 9.26,13.858 5.604,2.322 12.057,1.038 16.347,-3.251 l 55.605,-55.606 115.785,0 c 24.813,0 44.999,-20.187 44.999,-44.999 l 0,-150.997 C 512.001,34.061 507.404,22.669 499.057,13.937 Z m -17.055,183.076 c 0,8.271 -6.729,15 -15,15 l -121.998,0 c -3.979,0 -7.794,1.58 -10.606,4.393 l -34.393,34.393 0,-23.786 c 0,-8.284 -6.716,-15 -15,-15 l -29.999,0 c -8.271,0 -15,-6.729 -15,-15 l 0,-150.997 c 0,-8.523 7.01,-16 15,-16 l 211.996,0 c 7.99,0 15,7.477 15,16 l 0,150.997 z"
           inkscape:connector-curvature="0" /></g></g><g
       style="fill:#ffffff"
       id="g272"><g
         style="fill:#ffffff"
         id="g274"><path
           style="fill:#ffffff"
           id="path276"
           d="M 269.566,350.337 121.075,201.847 c -5.857,-5.858 -15.355,-5.858 -21.213,0 -5.858,5.858 -5.858,15.355 0,21.213 l 12.7,12.7 C 99.128,271.847 77.85,305.072 50.627,332.294 L 13.191,369.73 c -17.586,17.585 -17.59,46.05 0,63.638 l 23.033,23.033 c 13.87,13.871 34.518,16.732 51.208,8.782 l 33.644,33.643 c 17.542,17.543 46.09,17.548 63.638,0 17.586,-17.584 17.589,-46.051 0,-63.638 l -31.158,-31.159 c 23.781,-20.129 51.089,-36.133 80.278,-46.999 l 14.52,14.52 c 5.857,5.858 15.355,5.858 21.213,0 5.857,-5.859 5.857,-15.356 -0.001,-21.213 z M 78.649,435.188 c -5.849,5.848 -15.365,5.849 -21.214,0 L 34.403,412.155 c -5.863,-5.863 -5.863,-15.35 0,-21.213 l 37.436,-37.436 c 5.202,-5.202 10.208,-10.604 15.01,-16.182 l 45.418,45.418 c -5.051,4.348 -10.545,9.372 -16.182,15.01 l -37.436,37.436 z m 84.851,21.213 c 5.863,5.863 5.863,15.351 0,21.213 -5.848,5.849 -15.365,5.849 -21.213,0 l -31.819,-31.819 21.214,-21.213 31.818,31.819 z m -7.349,-92.203 -50.758,-50.757 c 11.939,-17.087 22.105,-35.418 30.26,-54.591 l 75.089,75.089 c -19.173,8.156 -37.504,18.321 -54.591,30.259 z"
           inkscape:connector-curvature="0" /></g></g></g><g
     id="g278"
     style="fill:#ffffff"
     transform="translate(4.264271e-8,8.669739)" /><g
     id="g280"
     style="fill:#ffffff"
     transform="translate(4.264271e-8,8.669739)" /><g
     id="g282"
     style="fill:#ffffff"
     transform="translate(4.264271e-8,8.669739)" /><g
     id="g284"
     style="fill:#ffffff"
     transform="translate(4.264271e-8,8.669739)" /><g
     id="g286"
     style="fill:#ffffff"
     transform="translate(4.264271e-8,8.669739)" /><g
     id="g288"
     style="fill:#ffffff"
     transform="translate(4.264271e-8,8.669739)" /><g
     id="g290"
     style="fill:#ffffff"
     transform="translate(4.264271e-8,8.669739)" /><g
     id="g292"
     style="fill:#ffffff"
     transform="translate(4.264271e-8,8.669739)" /><g
     id="g294"
     style="fill:#ffffff"
     transform="translate(4.264271e-8,8.669739)" /><g
     id="g296"
     style="fill:#ffffff"
     transform="translate(4.264271e-8,8.669739)" /><g
     id="g298"
     style="fill:#ffffff"
     transform="translate(4.264271e-8,8.669739)" /><g
     id="g300"
     style="fill:#ffffff"
     transform="translate(4.264271e-8,8.669739)" /><g
     id="g302"
     style="fill:#ffffff"
     transform="translate(4.264271e-8,8.669739)" /><g
     id="g304"
     style="fill:#ffffff"
     transform="translate(4.264271e-8,8.669739)" /><g
     id="g306"
     style="fill:#ffffff"
     transform="translate(4.264271e-8,8.669739)" /></svg>