<?xml version="1.0" encoding="UTF-8" standalone="no"?>
<!-- Generator: Adobe Illustrator 19.0.0, SVG Export Plug-In . SVG Version: 6.00 Build 0)  -->

<svg
   xmlns:dc="http://purl.org/dc/elements/1.1/"
   xmlns:cc="http://creativecommons.org/ns#"
   xmlns:rdf="http://www.w3.org/1999/02/22-rdf-syntax-ns#"
   xmlns:svg="http://www.w3.org/2000/svg"
   xmlns="http://www.w3.org/2000/svg"
   xmlns:sodipodi="http://sodipodi.sourceforge.net/DTD/sodipodi-0.dtd"
   xmlns:inkscape="http://www.inkscape.org/namespaces/inkscape"
   version="1.1"
   id="Layer_1"
   x="0px"
   y="0px"
   viewBox="0 0 512 512"
   style="enable-background:new 0 0 512 512;"
   xml:space="preserve"
   inkscape:version="0.91 r13725"
   sodipodi:docname="w-fono-linea.svg"><metadata
     id="metadata355"><rdf:RDF><cc:Work
         rdf:about=""><dc:format>image/svg+xml</dc:format><dc:type
           rdf:resource="http://purl.org/dc/dcmitype/StillImage" /><dc:title></dc:title></cc:Work></rdf:RDF></metadata><defs
     id="defs353" /><sodipodi:namedview
     pagecolor="#ffffff"
     bordercolor="#666666"
     borderopacity="1"
     objecttolerance="10"
     gridtolerance="10"
     guidetolerance="10"
     inkscape:pageopacity="0"
     inkscape:pageshadow="2"
     inkscape:window-width="640"
     inkscape:window-height="480"
     id="namedview351"
     showgrid="false"
     inkscape:zoom="0.4609375"
     inkscape:cx="256"
     inkscape:cy="256"
     inkscape:window-x="0"
     inkscape:window-y="21"
     inkscape:window-maximized="0"
     inkscape:current-layer="Layer_1" /><g
     id="g315"
     style="fill:#ffffff"><g
       id="g317"
       style="fill:#ffffff"><path
         d="M437.333,64c-14.171,0-26.375,8.622-36.637,22.9L60.905,206.289C54.409,197.104,46.293,192,37.333,192    C16.052,192,0,219.51,0,256s16.052,64,37.333,64c8.96,0,17.076-5.104,23.572-14.289l63.161,22.193l-11.671,24.148    c-0.094,0.198-0.177,0.396-0.26,0.604c-3.583,6.417-5.469,13.531-5.469,20.677c0,14.01,6.771,26.865,18.25,34.865    c0.833,0.823,1.865,1.479,3.146,1.969c4.344,2.521,8.927,4.229,11.781,4.573l74.219,27.833c6.385,3.552,13.479,5.427,20.604,5.427    c14.875,0,28.438-7.635,36.292-20.417l-0.156-0.104c0.49-0.646,0.927-1.302,1.26-1.917c0.958-1.74,1.802-3.51,2.188-4.635    l16.06-34.612L400.697,425.1c10.262,14.277,22.466,22.9,36.637,22.9c48.5,0,74.667-98.927,74.667-192S485.833,64,437.333,64z     M254.583,412.708c-0.344,0.906-0.771,1.76-1.229,2.604c-0.042,0.083-0.208,0.427-0.396,0.823    c-0.063,0.094-0.125,0.188-0.188,0.281c-5.969,9.74-18.896,13.24-29.063,7.094c-0.917-0.563-1.917-0.969-2.958-1.219L145.5,394.26    c-2.271-0.417-4.542-1.271-6.75-2.552c-0.115-0.073-0.271-0.146-0.448-0.229c-0.021-0.021-0.042-0.031-0.052-0.042    C131.833,387.5,128,380.729,128,373.333c0-3.802,1.063-7.5,3.167-10.979c0.385-0.646,0.708-1.344,0.938-2.063l12.219-25.271    l125.772,44.191L254.583,412.708z M46.198,277.938c-5.573-2-11.635,0.948-13.594,6.531c-1.957,5.548,0.965,11.635,6.521,13.587    c-0.678,0.398-1.29,0.611-1.792,0.611c-5.646,0-16-16.198-16-42.667s10.354-42.667,16-42.667c0.501,0,1.113,0.212,1.792,0.611    c-5.556,1.952-8.478,8.039-6.521,13.587c1.542,4.396,5.656,7.135,10.063,7.135c1.177,0,2.365-0.188,3.531-0.604l339.583-119.315    c-15.167,37.294-23.115,90.108-23.115,141.253s7.948,103.958,23.115,141.253L46.198,277.938z M437.333,426.667    C415.063,426.667,384,361.74,384,256s31.063-170.667,53.333-170.667c22.271,0,53.333,64.927,53.333,170.667    S459.604,426.667,437.333,426.667z"
         id="path319"
         style="fill:#ffffff" /></g></g><g
     id="g321" /><g
     id="g323" /><g
     id="g325" /><g
     id="g327" /><g
     id="g329" /><g
     id="g331" /><g
     id="g333" /><g
     id="g335" /><g
     id="g337" /><g
     id="g339" /><g
     id="g341" /><g
     id="g343" /><g
     id="g345" /><g
     id="g347" /><g
     id="g349" /></svg>