<?xml version="1.0" encoding="UTF-8" standalone="no"?>
<!-- Generator: Adobe Illustrator 19.0.0, SVG Export Plug-In . SVG Version: 6.00 Build 0)  -->

<svg
   xmlns:dc="http://purl.org/dc/elements/1.1/"
   xmlns:cc="http://creativecommons.org/ns#"
   xmlns:rdf="http://www.w3.org/1999/02/22-rdf-syntax-ns#"
   xmlns:svg="http://www.w3.org/2000/svg"
   xmlns="http://www.w3.org/2000/svg"
   xmlns:sodipodi="http://sodipodi.sourceforge.net/DTD/sodipodi-0.dtd"
   xmlns:inkscape="http://www.inkscape.org/namespaces/inkscape"
   version="1.1"
   id="Capa_1"
   x="0px"
   y="0px"
   viewBox="0 0 512.001 512.001"
   style="enable-background:new 0 0 512.001 512.001;"
   xml:space="preserve"
   inkscape:version="0.91 r13725"
   sodipodi:docname="w-fono3-linea.svg"><metadata
     id="metadata312"><rdf:RDF><cc:Work
         rdf:about=""><dc:format>image/svg+xml</dc:format><dc:type
           rdf:resource="http://purl.org/dc/dcmitype/StillImage" /><dc:title></dc:title></cc:Work></rdf:RDF></metadata><defs
     id="defs310" /><sodipodi:namedview
     pagecolor="#ffffff"
     bordercolor="#666666"
     borderopacity="1"
     objecttolerance="10"
     gridtolerance="10"
     guidetolerance="10"
     inkscape:pageopacity="0"
     inkscape:pageshadow="2"
     inkscape:window-width="640"
     inkscape:window-height="480"
     id="namedview308"
     showgrid="false"
     inkscape:zoom="0.46093662"
     inkscape:cx="256.00049"
     inkscape:cy="256.00049"
     inkscape:window-x="0"
     inkscape:window-y="21"
     inkscape:window-maximized="0"
     inkscape:current-layer="Capa_1" /><g
     id="g260"
     style="fill:#ffffff"><g
       id="g262"
       style="fill:#ffffff"><path
         d="M389.859,63.515c-12.866,0-22.691,5.296-29.854,12.319c-7.164-7.024-16.989-12.319-29.854-12.319    c-25.153,0-44.855,20.825-44.855,47.408c0,27.537,20.781,45.077,49.542,69.353c4.904,4.139,9.976,8.42,15.345,13.073    c2.819,2.443,6.321,3.665,9.824,3.665c3.502,0,7.005-1.222,9.824-3.665c5.367-4.652,10.438-8.931,15.341-13.07    c25.118-21.201,49.546-40.301,49.546-69.356C434.715,84.339,415.012,63.515,389.859,63.515z M365.82,157.353    c-1.91,1.612-3.845,3.245-5.815,4.915c-1.972-1.672-3.908-3.306-5.818-4.918c-25.558-21.57-38.893-33.431-38.893-46.427    c0-8.651,5.104-17.409,14.856-17.409c10.602,0,15.038,13.705,15.414,14.933c1.716,6.546,7.571,11.009,14.344,11.068    c6.813,0.049,12.741-4.578,14.554-11.124c0.041-0.149,4.427-14.878,15.399-14.878c9.753,0,14.856,8.758,14.856,17.409    C404.715,124.777,388.924,137.852,365.82,157.353z"
         id="path264"
         style="fill:#ffffff" /></g></g><g
     id="g266"
     style="fill:#ffffff"><g
       id="g268"
       style="fill:#ffffff"><path
         d="M499.057,13.937c-8.582-8.977-19.967-13.921-32.055-13.921H255.006c-12.089,0-23.474,4.944-32.055,13.922    c-8.348,8.732-12.944,20.124-12.944,32.077v150.997c0,24.813,20.187,44.999,44.999,44.999h15v44.999    c0,6.067,3.654,11.537,9.26,13.858c5.604,2.322,12.057,1.038,16.347-3.251l55.605-55.606h115.785    c24.813,0,44.999-20.187,44.999-44.999V46.015C512.001,34.061,507.404,22.669,499.057,13.937z M482.002,197.013    c0,8.271-6.729,15-15,15H345.004c-3.979,0-7.794,1.58-10.606,4.393l-34.393,34.393v-23.786c0-8.284-6.716-15-15-15h-29.999    c-8.271,0-15-6.729-15-15V46.016c0-8.523,7.01-16,15-16h211.996c7.99,0,15,7.477,15,16V197.013z"
         id="path270"
         style="fill:#ffffff" /></g></g><g
     id="g272"
     style="fill:#ffffff"><g
       id="g274"
       style="fill:#ffffff"><path
         d="M269.566,350.337L121.075,201.847c-5.857-5.858-15.355-5.858-21.213,0c-5.858,5.858-5.858,15.355,0,21.213l12.7,12.7    c-13.434,36.087-34.712,69.312-61.935,96.534L13.191,369.73c-17.586,17.585-17.59,46.05,0,63.638l23.033,23.033    c13.87,13.871,34.518,16.732,51.208,8.782l33.644,33.643c17.542,17.543,46.09,17.548,63.638,0    c17.586-17.584,17.589-46.051,0-63.638l-31.158-31.159c23.781-20.129,51.089-36.133,80.278-46.999l14.52,14.52    c5.857,5.858,15.355,5.858,21.213,0C275.424,365.691,275.424,356.194,269.566,350.337z M78.649,435.188    c-5.849,5.848-15.365,5.849-21.214,0l-23.032-23.033c-5.863-5.863-5.863-15.35,0-21.213l37.436-37.436    c5.202-5.202,10.208-10.604,15.01-16.182l45.418,45.418c-5.051,4.348-10.545,9.372-16.182,15.01L78.649,435.188z M163.5,456.401    c5.863,5.863,5.863,15.351,0,21.213c-5.848,5.849-15.365,5.849-21.213,0l-31.819-31.819l21.214-21.213L163.5,456.401z     M156.151,364.198l-50.758-50.757c11.939-17.087,22.105-35.418,30.26-54.591l75.089,75.089    C191.569,342.095,173.238,352.26,156.151,364.198z"
         id="path276"
         style="fill:#ffffff" /></g></g><g
     id="g278"
     style="fill:#ffffff" /><g
     id="g280"
     style="fill:#ffffff" /><g
     id="g282"
     style="fill:#ffffff" /><g
     id="g284"
     style="fill:#ffffff" /><g
     id="g286"
     style="fill:#ffffff" /><g
     id="g288"
     style="fill:#ffffff" /><g
     id="g290"
     style="fill:#ffffff" /><g
     id="g292"
     style="fill:#ffffff" /><g
     id="g294"
     style="fill:#ffffff" /><g
     id="g296"
     style="fill:#ffffff" /><g
     id="g298"
     style="fill:#ffffff" /><g
     id="g300"
     style="fill:#ffffff" /><g
     id="g302"
     style="fill:#ffffff" /><g
     id="g304"
     style="fill:#ffffff" /><g
     id="g306"
     style="fill:#ffffff" /></svg>