<?xml version="1.0" encoding="UTF-8" standalone="no"?>
<!-- Generator: Adobe Illustrator 19.0.0, SVG Export Plug-In . SVG Version: 6.00 Build 0)  -->

<svg
   xmlns:dc="http://purl.org/dc/elements/1.1/"
   xmlns:cc="http://creativecommons.org/ns#"
   xmlns:rdf="http://www.w3.org/1999/02/22-rdf-syntax-ns#"
   xmlns:svg="http://www.w3.org/2000/svg"
   xmlns="http://www.w3.org/2000/svg"
   xmlns:sodipodi="http://sodipodi.sourceforge.net/DTD/sodipodi-0.dtd"
   xmlns:inkscape="http://www.inkscape.org/namespaces/inkscape"
   version="1.1"
   id="Layer_1"
   x="0px"
   y="0px"
   viewBox="0 0 512 512"
   style="enable-background:new 0 0 512 512;"
   xml:space="preserve"
   inkscape:version="0.91 r13725"
   sodipodi:docname="w-fono.svg"><metadata
     id="metadata210"><rdf:RDF><cc:Work
         rdf:about=""><dc:format>image/svg+xml</dc:format><dc:type
           rdf:resource="http://purl.org/dc/dcmitype/StillImage" /><dc:title></dc:title></cc:Work></rdf:RDF></metadata><defs
     id="defs208" /><sodipodi:namedview
     pagecolor="#ffffff"
     bordercolor="#666666"
     borderopacity="1"
     objecttolerance="10"
     gridtolerance="10"
     guidetolerance="10"
     inkscape:pageopacity="0"
     inkscape:pageshadow="2"
     inkscape:window-width="640"
     inkscape:window-height="480"
     id="namedview206"
     showgrid="false"
     inkscape:zoom="0.4609375"
     inkscape:cx="256"
     inkscape:cy="256"
     inkscape:window-x="0"
     inkscape:window-y="21"
     inkscape:window-maximized="0"
     inkscape:current-layer="Layer_1" /><g
     id="g170"
     style="fill:#ffffff"><g
       id="g172"
       style="fill:#ffffff"><path
         d="M437.333,64c-14.165,0-26.368,8.619-36.629,22.891L61.035,206.229C54.528,196.992,46.315,192,37.333,192    C16.043,192,0,219.52,0,256s16.043,64,37.333,64c8.981,0,17.195-4.992,23.701-14.229l64.405,22.635l-12.48,20.821    c-4.117,6.869-6.293,14.741-6.293,22.741c0,18.197,10.901,34.304,27.776,41.045l78.528,31.403    c5.995,2.389,12.245,3.541,18.411,3.541c18.539,0,36.416-10.304,45.077-27.669l16.512-33.045l107.712,37.845    C410.944,439.381,423.168,448,437.333,448C485.824,448,512,349.077,512,256S485.824,64,437.333,64z M238.272,401.216    c-1.6,3.2-6.101,4.971-9.451,3.563l-78.528-31.403l-0.747-2.219l17.003-28.331l85.845,30.165L238.272,401.216z M437.333,405.333    c-9.579,0-32-50.795-32-149.333s22.421-149.333,32-149.333c9.579,0,32,50.795,32,149.333S446.912,405.333,437.333,405.333z"
         id="path174"
         style="fill:#ffffff" /></g></g><g
     id="g176" /><g
     id="g178" /><g
     id="g180" /><g
     id="g182" /><g
     id="g184" /><g
     id="g186" /><g
     id="g188" /><g
     id="g190" /><g
     id="g192" /><g
     id="g194" /><g
     id="g196" /><g
     id="g198" /><g
     id="g200" /><g
     id="g202" /><g
     id="g204" /></svg>