<?xml version="1.0" encoding="UTF-8" standalone="no"?>
<!-- Generator: Adobe Illustrator 19.0.0, SVG Export Plug-In . SVG Version: 6.00 Build 0)  -->

<svg
   xmlns:dc="http://purl.org/dc/elements/1.1/"
   xmlns:cc="http://creativecommons.org/ns#"
   xmlns:rdf="http://www.w3.org/1999/02/22-rdf-syntax-ns#"
   xmlns:svg="http://www.w3.org/2000/svg"
   xmlns="http://www.w3.org/2000/svg"
   xmlns:sodipodi="http://sodipodi.sourceforge.net/DTD/sodipodi-0.dtd"
   xmlns:inkscape="http://www.inkscape.org/namespaces/inkscape"
   version="1.1"
   id="Capa_1"
   x="0px"
   y="0px"
   viewBox="0 0 512 512"
   style="enable-background:new 0 0 512 512;"
   xml:space="preserve"
   inkscape:version="0.91 r13725"
   sodipodi:docname="w-grupo-linea.svg"><metadata
     id="metadata404"><rdf:RDF><cc:Work
         rdf:about=""><dc:format>image/svg+xml</dc:format><dc:type
           rdf:resource="http://purl.org/dc/dcmitype/StillImage" /><dc:title></dc:title></cc:Work></rdf:RDF></metadata><defs
     id="defs402" /><sodipodi:namedview
     pagecolor="#ffffff"
     bordercolor="#666666"
     borderopacity="1"
     objecttolerance="10"
     gridtolerance="10"
     guidetolerance="10"
     inkscape:pageopacity="0"
     inkscape:pageshadow="2"
     inkscape:window-width="1600"
     inkscape:window-height="879"
     id="namedview400"
     showgrid="false"
     inkscape:zoom="0.4609375"
     inkscape:cx="256"
     inkscape:cy="256"
     inkscape:window-x="0"
     inkscape:window-y="21"
     inkscape:window-maximized="1"
     inkscape:current-layer="Capa_1" /><g
     id="g358"
     style="fill:#ffffff"><g
       id="g360"
       style="fill:#ffffff"><path
         d="M449.4,402.365C459.672,391.592,466,377.025,466,361c0-23.429-13.507-43.751-33.135-53.625    c-6.477-24.023-22.4-43.659-43.299-55.185C399.741,241.435,406,226.939,406,211c0-33.084-26.916-60-60-60s-60,26.916-60,60    c0,15.964,6.279,30.481,16.483,41.241c-5.341,2.95-10.41,6.435-15.094,10.458c-12.078,10.373-21.134,23.71-26.335,38.529    c-1.668-0.14-3.35-0.229-5.053-0.229s-3.385,0.089-5.053,0.229c-5.202-14.819-14.258-28.156-26.335-38.529    c-4.685-4.023-9.753-7.508-15.094-10.458C219.721,241.481,226,226.964,226,211c0-33.084-26.916-60-60-60s-60,26.916-60,60    c0,15.964,6.279,30.481,16.483,41.241c-5.341,2.95-10.41,6.435-15.094,10.458c-13.72,11.783-23.522,27.399-28.223,44.659    C59.52,317.227,46,337.559,46,361c0,16.025,6.328,30.592,16.6,41.365C34.721,418.056,16,448.011,16,482v15c0,8.284,6.716,15,15,15    c44.076,0,399.309,0,450,0c8.284,0,15-6.716,15-15v-15C496,448.131,477.382,418.114,449.4,402.365z M436,361    c0,16.542-13.458,30-30,30s-30-13.458-30-30s13.458-30,30-30S436,344.458,436,361z M346,181c16.542,0,30,13.458,30,30    s-13.458,30-30,30s-30-13.458-30-30S329.458,181,346,181z M346,271c22.259,0,41.948,12.076,52.306,30.51    c-18.9,2.432-35.066,13.683-44.234,29.49h-46.144c-4.609-7.947-10.978-14.75-18.585-19.855C297.578,287.369,319.973,271,346,271z     M256,331c16.542,0,30,13.458,30,30s-13.458,30-30,30s-30-13.458-30-30S239.458,331,256,331z M166,181c16.542,0,30,13.458,30,30    s-13.458,30-30,30s-30-13.458-30-30S149.458,181,166,181z M166,271c26.027,0,48.422,16.369,56.657,40.145    c-7.607,5.105-13.976,11.908-18.585,19.855h-46.144c-9.172-15.814-25.348-27.068-44.259-29.493    C124.001,283.059,143.663,271,166,271z M93.229,333.862c2.416-0.202,4.698-0.994,6.689-2.241c1.965-0.406,3.999-0.621,6.082-0.621    c16.542,0,30,13.458,30,30s-13.458,30-30,30s-30-13.458-30-30C76,349.024,83.057,338.668,93.229,333.862z M46,482    c0-33.635,26.916-61,60-61s60,27.365,60,61H46z M181,431.884c-7.776-11.791-18.512-22.153-31.6-29.519    C159.672,391.592,166,377.025,166,361h30c0,16.025,6.328,30.592,16.6,41.365C199.524,409.725,188.778,420.091,181,431.884z     M196,482c0-33.635,26.916-61,60-61s60,27.365,60,61H196z M331,431.884c-7.776-11.79-18.512-22.152-31.6-29.519    C309.672,391.592,316,377.025,316,361h30c0,16.025,6.328,30.592,16.6,41.365C349.524,409.725,338.778,420.091,331,431.884z     M346,482c0-33.635,26.916-61,60-61s60,27.365,60,61H346z"
         id="path362"
         style="fill:#ffffff" /></g></g><g
     id="g364"
     style="fill:#ffffff"><g
       id="g366"
       style="fill:#ffffff"><path
         d="M293.789,0c-14.488,0-27.235,5.894-37.211,17.125C246.6,5.894,233.854,0,219.365,0c-29.277,0-52.211,24.332-52.211,55.394    c0,33.168,26.317,55.544,62.742,86.513c5.405,4.595,10.993,9.347,16.857,14.428c2.819,2.443,6.321,3.665,9.824,3.665    c3.503,0,7.005-1.222,9.824-3.665c6.71-5.816,13.042-11.16,19.164-16.327C313.604,116.342,346,91.511,346,55.394    C346,24.332,323.066,0,293.789,0z M293.166,93.586c-7.542,7.116-16.536,14.707-26.95,23.497c-3.145,2.654-6.344,5.354-9.629,8.147    c-2.462-2.101-4.878-4.155-7.258-6.179c-34.284-29.149-52.175-45.219-52.175-63.657c0-12.619,7.629-25.394,22.211-25.394    c16.11,0,22.337,19.856,22.768,21.296c1.744,6.573,7.641,11.152,14.444,11.152c6.804,0,12.701-4.579,14.445-11.153    C271.453,49.851,277.681,30,293.789,30C308.371,30,316,42.775,316,55.394C316,67.062,309.171,78.484,293.166,93.586z"
         id="path368"
         style="fill:#ffffff" /></g></g><g
     id="g370"
     style="fill:#ffffff" /><g
     id="g372"
     style="fill:#ffffff" /><g
     id="g374"
     style="fill:#ffffff" /><g
     id="g376"
     style="fill:#ffffff" /><g
     id="g378"
     style="fill:#ffffff" /><g
     id="g380"
     style="fill:#ffffff" /><g
     id="g382"
     style="fill:#ffffff" /><g
     id="g384"
     style="fill:#ffffff" /><g
     id="g386"
     style="fill:#ffffff" /><g
     id="g388"
     style="fill:#ffffff" /><g
     id="g390"
     style="fill:#ffffff" /><g
     id="g392"
     style="fill:#ffffff" /><g
     id="g394"
     style="fill:#ffffff" /><g
     id="g396"
     style="fill:#ffffff" /><g
     id="g398"
     style="fill:#ffffff" /></svg>