<?xml version="1.0" encoding="UTF-8" standalone="no"?>
<!-- Generator: Adobe Illustrator 19.0.0, SVG Export Plug-In . SVG Version: 6.00 Build 0)  -->

<svg
   xmlns:dc="http://purl.org/dc/elements/1.1/"
   xmlns:cc="http://creativecommons.org/ns#"
   xmlns:rdf="http://www.w3.org/1999/02/22-rdf-syntax-ns#"
   xmlns:svg="http://www.w3.org/2000/svg"
   xmlns="http://www.w3.org/2000/svg"
   xmlns:sodipodi="http://sodipodi.sourceforge.net/DTD/sodipodi-0.dtd"
   xmlns:inkscape="http://www.inkscape.org/namespaces/inkscape"
   version="1.1"
   id="Capa_1"
   x="0px"
   y="0px"
   viewBox="0 0 1186.3067 512.00002"
   xml:space="preserve"
   inkscape:version="0.91 r13725"
   sodipodi:docname="w-proyectos.svg"
   width="1186.3066"
   height="512"><metadata
     id="metadata312"><rdf:RDF><cc:Work
         rdf:about=""><dc:format>image/svg+xml</dc:format><dc:type
           rdf:resource="http://purl.org/dc/dcmitype/StillImage" /><dc:title></dc:title></cc:Work></rdf:RDF></metadata><defs
     id="defs310" /><sodipodi:namedview
     pagecolor="#ffffff"
     bordercolor="#666666"
     borderopacity="1"
     objecttolerance="10"
     gridtolerance="10"
     guidetolerance="10"
     inkscape:pageopacity="0"
     inkscape:pageshadow="2"
     inkscape:window-width="1600"
     inkscape:window-height="879"
     id="namedview308"
     showgrid="false"
     inkscape:zoom="0.46093662"
     inkscape:cx="401.49192"
     inkscape:cy="140.5795"
     inkscape:window-x="0"
     inkscape:window-y="21"
     inkscape:window-maximized="1"
     inkscape:current-layer="Capa_1"
     fit-margin-top="0"
     fit-margin-left="0"
     fit-margin-right="0"
     fit-margin-bottom="0" /><g
     id="g3366"
     transform="translate(4.264271e-8,-5.625e-4)"
     style="fill:#ffffff"><g
       style="fill:#ffffff"
       id="g260"><g
         style="fill:#ffffff"
         id="g262"><path
           sodipodi:nodetypes="scsscsscccs"
           inkscape:connector-curvature="0"
           style="fill:#ffffff"
           id="path264"
           d="m 389.859,55.515 c -12.866,0 -22.691,5.296 -29.854,12.319 -7.164,-7.024 -16.989,-12.319 -29.854,-12.319 -25.153,0 -44.855,20.825 -44.855,47.408 0,27.537 20.781,45.077 49.542,69.353 4.904,4.139 9.976,8.42 15.345,13.073 2.819,2.443 6.321,3.665 9.824,3.665 3.502,0 7.005,-1.222 9.824,-3.665 5.367,-4.652 10.438,-8.931 15.341,-13.07 25.118,-21.201 49.546,-40.301 49.546,-69.356 -0.003,-26.584 -19.706,-47.408 -44.859,-47.408 z" /></g></g><g
       style="fill:#ffffff"
       id="g266"><g
         style="fill:#ffffff"
         id="g268"><path
           style="fill:#ffffff"
           id="path270"
           d="M 499.057,13.937 C 490.475,4.96 479.09,0.016 467.002,0.016 l -211.996,0 c -12.089,0 -23.474,4.944 -32.055,13.922 -8.348,8.732 -12.944,20.124 -12.944,32.077 l 0,150.997 c 0,24.813 20.187,44.999 44.999,44.999 l 15,0 0,44.999 c 0,6.067 3.654,11.537 9.26,13.858 5.604,2.322 12.057,1.038 16.347,-3.251 l 55.605,-55.606 115.785,0 c 24.813,0 44.999,-20.187 44.999,-44.999 l 0,-150.997 C 512.001,34.061 507.404,22.669 499.057,13.937 Z m -17.055,183.076 c 0,8.271 -6.729,15 -15,15 l -121.998,0 c -3.979,0 -7.794,1.58 -10.606,4.393 l -34.393,34.393 0,-23.786 c 0,-8.284 -6.716,-15 -15,-15 l -29.999,0 c -8.271,0 -15,-6.729 -15,-15 l 0,-150.997 c 0,-8.523 7.01,-16 15,-16 l 211.996,0 c 7.99,0 15,7.477 15,16 l 0,150.997 z"
           inkscape:connector-curvature="0" /></g></g><g
       style="fill:#ffffff"
       id="g272"><g
         style="fill:#ffffff"
         id="g274"><path
           style="fill:#ffffff"
           id="path276"
           d="M 269.566,350.337 121.075,201.847 c -5.857,-5.858 -15.355,-5.858 -21.213,0 -5.858,5.858 -5.858,15.355 0,21.213 l 12.7,12.7 C 99.128,271.847 77.85,305.072 50.627,332.294 L 13.191,369.73 c -17.586,17.585 -17.59,46.05 0,63.638 l 23.033,23.033 c 13.87,13.871 34.518,16.732 51.208,8.782 l 33.644,33.643 c 17.542,17.543 46.09,17.548 63.638,0 17.586,-17.584 17.589,-46.051 0,-63.638 l -31.158,-31.159 c 23.781,-20.129 51.089,-36.133 80.278,-46.999 l 14.52,14.52 c 5.857,5.858 15.355,5.858 21.213,0 5.857,-5.859 5.857,-15.356 -0.001,-21.213 z M 78.649,435.188 c -5.849,5.848 -15.365,5.849 -21.214,0 L 34.403,412.155 c -5.863,-5.863 -5.863,-15.35 0,-21.213 l 37.436,-37.436 c 5.202,-5.202 10.208,-10.604 15.01,-16.182 l 45.418,45.418 c -5.051,4.348 -10.545,9.372 -16.182,15.01 l -37.436,37.436 z m 84.851,21.213 c 5.863,5.863 5.863,15.351 0,21.213 -5.848,5.849 -15.365,5.849 -21.213,0 l -31.819,-31.819 21.214,-21.213 31.818,31.819 z m -7.349,-92.203 -50.758,-50.757 c 11.939,-17.087 22.105,-35.418 30.26,-54.591 l 75.089,75.089 c -19.173,8.156 -37.504,18.321 -54.591,30.259 z"
           inkscape:connector-curvature="0" /></g></g></g><g
     id="g278"
     style="fill:#ffffff"
     transform="translate(4.264271e-8,8.6851765)" /><g
     id="g280"
     style="fill:#ffffff"
     transform="translate(4.264271e-8,8.6851765)" /><g
     id="g282"
     style="fill:#ffffff"
     transform="translate(4.264271e-8,8.6851765)" /><g
     id="g284"
     style="fill:#ffffff"
     transform="translate(4.264271e-8,8.6851765)" /><g
     id="g286"
     style="fill:#ffffff"
     transform="translate(4.264271e-8,8.6851765)" /><g
     id="g288"
     style="fill:#ffffff"
     transform="translate(4.264271e-8,8.6851765)" /><g
     id="g290"
     style="fill:#ffffff"
     transform="translate(4.264271e-8,8.6851765)" /><g
     id="g292"
     style="fill:#ffffff"
     transform="translate(4.264271e-8,8.6851765)" /><g
     id="g294"
     style="fill:#ffffff"
     transform="translate(4.264271e-8,8.6851765)" /><g
     id="g296"
     style="fill:#ffffff"
     transform="translate(4.264271e-8,8.6851765)" /><g
     id="g298"
     style="fill:#ffffff"
     transform="translate(4.264271e-8,8.6851765)" /><g
     id="g300"
     style="fill:#ffffff"
     transform="translate(4.264271e-8,8.6851765)" /><g
     id="g302"
     style="fill:#ffffff"
     transform="translate(4.264271e-8,8.6851765)" /><g
     id="g304"
     style="fill:#ffffff"
     transform="translate(4.264271e-8,8.6851765)" /><g
     id="g306"
     style="fill:#ffffff"
     transform="translate(4.264271e-8,8.6851765)" /><g
     id="g466"
     style="fill:#ffffff"
     transform="translate(674.30663,0)"><g
       id="g468"
       style="fill:#ffffff"><path
         inkscape:connector-curvature="0"
         d="m 482,261.953 c 19.137,-21.439 30,-50.009 30,-79.377 L 512,75 c 0,-24.813 -20.187,-45 -45,-45 -5.852,0 -11.446,1.123 -16.579,3.164 C 445.211,14.075 427.718,0 407,0 386.282,0 368.789,14.075 363.579,33.164 358.446,31.123 352.852,30 347,30 L 230.974,30 C 209.401,10.606 181.803,0 152.574,0 L 75,0 C 50.187,0 30,20.187 30,45 30,50.852 31.123,56.446 33.164,61.579 14.075,66.789 0,84.282 0,105 0,125.718 14.075,143.211 33.164,148.421 31.123,153.554 30,159.148 30,165 c 0,19.555 12.541,36.228 30,42.42 l 0,73.609 C 40.606,302.6 30,330.196 30,359.424 L 30,437 c 0,24.813 20.187,45 45,45 5.852,0 11.446,-1.123 16.579,-3.164 C 96.789,497.925 114.282,512 135,512 c 20.718,0 38.211,-14.075 43.421,-33.164 5.133,2.041 10.727,3.164 16.579,3.164 l 85.048,0 c 21.438,19.137 50.008,30 79.376,30 L 437,512 c 24.813,0 45,-20.187 45,-45 0,-5.852 -1.123,-11.446 -3.164,-16.579 C 497.925,445.211 512,427.718 512,407 512,386.282 497.925,368.789 478.836,363.579 480.877,358.446 482,352.852 482,347 l 0,-85.047 z M 45,120 c -8.271,0 -15,-6.729 -15,-15 0,-8.271 6.729,-15 15,-15 11.007,0 80.336,0 90,0 8.284,0 15,-6.716 15,-15 0,-8.284 -6.716,-15 -15,-15 L 75,60 C 66.729,60 60,53.271 60,45 60,36.729 66.729,30 75,30 l 77.574,0 c 23.353,0 45.307,9.094 61.82,25.606 2.813,2.813 6.628,4.294 10.606,4.294 l 79.58,0 C 302.915,64.595 302,69.742 302,75 l 0,60 c 0,7.991 -7.477,15 -16,15 l -30,0 c -4.948,0 -9.642,2.467 -12.459,6.648 L 207.549,210.34 C 201.485,192.759 184.697,180 165,180 l -90,0 c -8.271,0 -15,-6.729 -15,-15 0,-8.271 6.729,-15 15,-15 l 60,0 c 8.284,0 15,-6.716 15,-15 0,-8.284 -6.716,-15 -15,-15 -10.534,0 -75.727,0 -90,0 z m 282.675,137.888 -43.973,65.601 -69.378,-69.378 43.974,-65.6 69.377,69.377 z M 210,377 l 0,60 c 0,8.271 -6.729,15 -15,15 -8.271,0 -15,-6.729 -15,-15 l 0,-60 c 0,-8.284 -6.716,-15 -15,-15 -8.284,0 -15,6.716 -15,15 0,10.534 0,75.727 0,90 0,8.271 -6.729,15 -15,15 -8.271,0 -15,-6.729 -15,-15 0,-11.007 0,-80.336 0,-90 0,-8.284 -6.716,-15 -15,-15 -8.284,0 -15,6.716 -15,15 l 0,60 c 0,8.271 -6.729,15 -15,15 -8.271,0 -15,-6.729 -15,-15 l 0,-77.576 c 0,-23.35 9.094,-45.303 25.606,-61.813 C 88.419,294.798 90,290.983 90,287.004 L 90,210 l 75,0 c 8.271,0 15,6.729 15,15 l 0,31 c 0,6.717 4.427,10.606 4.493,10.706 0.001,0 0.001,10e-4 0.002,10e-4 l 65.662,65.662 c -9.786,1.245 -18.939,5.601 -26.235,12.575 C 214.944,353.526 210,364.911 210,377 Z m 272,30 c 0,8.271 -6.729,15 -15,15 -11.007,0 -80.336,0 -90,0 -8.284,0 -15,6.716 -15,15 0,8.284 6.716,15 15,15 l 60,0 c 8.271,0 15,6.729 15,15 0,8.271 -6.729,15 -15,15 l -77.576,0 c -23.647,0 -46.542,-9.333 -62.813,-25.606 C 293.798,453.581 289.982,452 286.004,452 l -48.584,0 c 1.665,-4.695 2.58,-9.742 2.58,-15 l 0,-60 c 0,-7.991 7.477,-15 16,-15 l 30,0 c 5.006,0 9.689,-2.526 12.46,-6.648 L 334.451,301.66 C 340.545,319.298 357.316,332 377,332 l 60,0 c 8.271,0 15,6.729 15,15 0,8.271 -6.729,15 -15,15 l -60,0 c -8.284,0 -15,6.716 -15,15 0,8.284 6.716,15 15,15 10.534,0 75.727,0 90,0 8.271,0 15,6.729 15,15 z M 456.395,245.389 c -2.813,2.813 -4.395,6.629 -4.395,10.607 l 0,48.583 c -4.695,-1.665 -9.741,-2.58 -15,-2.58 l -60,0 c -8.271,0 -15,-6.729 -15,-15 l 0,-31 c 0,-4.386 -2.069,-8.606 -4.498,-10.711 L 291.844,179.63 c 9.786,-1.245 18.939,-5.601 26.234,-12.575 C 327.056,158.474 332,147.089 332,135 l 0,-60 c 0,-8.271 6.729,-15 15,-15 8.271,0 15,6.729 15,15 l 0,60 c 0,8.284 6.716,15 15,15 8.284,0 15,-6.716 15,-15 0,-10.534 0,-75.727 0,-90 0,-8.271 6.729,-15 15,-15 8.271,0 15,6.729 15,15 0,11.007 0,80.336 0,90 0,8.284 6.716,15 15,15 8.284,0 15,-6.716 15,-15 l 0,-60 c 0,-8.271 6.729,-15 15,-15 8.271,0 15,6.729 15,15 l 0,107.576 c 0,23.648 -9.333,46.542 -25.605,62.813 z"
         id="path470"
         style="fill:#ffffff" /></g></g></svg>